WaldbaWookianos-Regular.ufo
<glyph name="exclam" format="2">
  <advance width="1381"/>
  <unicode hex="0021"/>
  <outline>
    <contour>
      <point x="743.53" y="444.277" type="line"/>
      <point x="787.268" y="1314.41" type="line"/>
      <point x="596.206" y="1314.41" type="line"/>
      <point x="637.641" y="444.277" type="line"/>
    </contour>
    <contour>
      <point x="849.42" y="101.286" type="qcurve"/>
      <point x="849.42" y="161.137"/>
      <point x="759.644" y="244.007"/>
      <point x="690.586" y="244.007" type="qcurve"/>
      <point x="623.829" y="244.007"/>
      <point x="531.751" y="163.439"/>
      <point x="531.751" y="103.588" type="qcurve"/>
      <point x="531.751" y="43.7371"/>
      <point x="623.829" y="-39.1332"/>
      <point x="690.586" y="-39.1332" type="qcurve"/>
      <point x="757.342" y="-39.1332"/>
      <point x="849.42" y="41.4351"/>
    </contour>
  </outline>
</glyph>
<glyph name="percent" format="2">
  <advance width="1381"/>
  <unicode hex="0025"/>
  <outline>
    <contour>
      <point x="1249.96" y="273.932" type="qcurve"/>
      <point x="1249.96" y="326.877"/>
      <point x="1208.52" y="437.371"/>
      <point x="1125.65" y="527.147"/>
      <point x="1003.65" y="582.394"/>
      <point x="923.083" y="582.394" type="qcurve"/>
      <point x="842.514" y="582.394"/>
      <point x="720.511" y="524.845"/>
      <point x="639.943" y="435.069"/>
      <point x="598.508" y="324.575"/>
      <point x="598.508" y="273.932" type="qcurve"/>
      <point x="598.508" y="220.987"/>
      <point x="639.943" y="112.796"/>
      <point x="722.813" y="23.0195"/>
      <point x="842.514" y="-32.2273"/>
      <point x="923.083" y="-32.2273" type="qcurve"/>
      <point x="1001.35" y="-32.2273"/>
      <point x="1123.35" y="23.0195"/>
      <point x="1206.22" y="110.494"/>
      <point x="1249.96" y="218.685"/>
    </contour>
    <contour>
      <point x="1125.65" y="276.234" type="qcurve"/>
      <point x="1125.65" y="239.403"/>
      <point x="1100.33" y="168.042"/>
      <point x="1047.39" y="110.494"/>
      <point x="971.424" y="75.9644"/>
      <point x="923.083" y="75.9644" type="qcurve"/>
      <point x="826.401" y="75.9644"/>
      <point x="722.813" y="197.968"/>
      <point x="722.813" y="276.234" type="qcurve"/>
      <point x="722.813" y="313.065"/>
      <point x="750.436" y="384.426"/>
      <point x="801.079" y="439.673"/>
      <point x="874.742" y="474.202"/>
      <point x="923.083" y="474.202" type="qcurve"/>
      <point x="973.726" y="474.202"/>
      <point x="1049.69" y="439.673"/>
      <point x="1100.33" y="382.124"/>
      <point x="1125.65" y="310.764"/>
    </contour>
    <contour>
      <point x="755.04" y="1104.94" type="qcurve"/>
      <point x="755.04" y="1160.18"/>
      <point x="711.303" y="1268.38"/>
      <point x="628.433" y="1358.15"/>
      <point x="506.429" y="1413.4"/>
      <point x="428.163" y="1413.4" type="qcurve"/>
      <point x="347.595" y="1413.4"/>
      <point x="227.893" y="1358.15"/>
      <point x="145.023" y="1268.38"/>
      <point x="103.588" y="1157.88"/>
      <point x="103.588" y="1104.94" type="qcurve"/>
      <point x="103.588" y="1049.69"/>
      <point x="147.325" y="939.196"/>
      <point x="230.195" y="854.024"/>
      <point x="352.199" y="798.777"/>
      <point x="428.163" y="798.777" type="qcurve"/>
      <point x="506.429" y="798.777"/>
      <point x="628.433" y="851.722"/>
      <point x="711.303" y="939.196"/>
      <point x="755.04" y="1049.69"/>
    </contour>
    <contour>
      <point x="630.735" y="1104.94" type="qcurve"/>
      <point x="630.735" y="1026.67"/>
      <point x="527.147" y="906.969"/>
      <point x="430.465" y="906.969" type="qcurve"/>
      <point x="382.124" y="906.969"/>
      <point x="306.16" y="941.498"/>
      <point x="255.517" y="996.745"/>
      <point x="227.893" y="1068.11"/>
      <point x="227.893" y="1104.94" type="qcurve"/>
      <point x="227.893" y="1141.77"/>
      <point x="253.215" y="1213.13"/>
      <point x="303.858" y="1270.68"/>
      <point x="379.822" y="1305.21"/>
      <point x="430.465" y="1305.21" type="qcurve"/>
      <point x="527.147" y="1305.21"/>
      <point x="630.735" y="1180.9"/>
    </contour>
    <contour>
      <point x="1180.9" y="858.628" type="line"/>
      <point x="1134.86" y="966.82" type="line"/>
      <point x="200.27" y="552.468" type="line"/>
      <point x="246.309" y="444.277" type="line"/>
    </contour>
  </outline>
</glyph>
<glyph name="plus" format="2">
  <advance width="1381"/>
  <unicode hex="002B"/>
  <outline>
    <contour>
      <point x="748.134" y="755.04" type="line"/>
      <point x="1229.24" y="755.04" type="line"/>
      <point x="1229.24" y="639.943" type="line"/>
      <point x="748.134" y="639.943" type="line"/>
      <point x="748.134" y="168.042" type="line"/>
      <point x="633.037" y="168.042" type="line"/>
      <point x="633.037" y="639.943" type="line"/>
      <point x="151.929" y="639.943" type="line"/>
      <point x="151.929" y="755.04" type="line"/>
      <point x="633.037" y="755.04" type="line"/>
      <point x="633.037" y="1226.94" type="line"/>
      <point x="748.134" y="1226.94" type="line"/>
    </contour>
  </outline>
</glyph>
<glyph name="hyphen" format="2">
  <advance width="1381"/>
  <unicode hex="002D"/>
  <outline>
    <contour>
      <point x="446.579" y="729.719" type="line"/>
      <point x="934.593" y="729.719" type="line"/>
      <point x="934.593" y="603.111" type="line"/>
      <point x="446.579" y="603.111" type="line"/>
    </contour>
  </outline>
</glyph>
<glyph name="three" format="2">
  <advance width="1381"/>
  <unicode hex="0033"/>
  <outline>
    <contour>
      <point x="237.101" y="181.854" type="line"/>
      <point x="324.575" y="140.419"/>
      <point x="522.543" y="75.9644"/>
      <point x="619.225" y="75.9644" type="qcurve"/>
      <point x="681.378" y="75.9644"/>
      <point x="803.381" y="115.098"/>
      <point x="900.063" y="195.666"/>
      <point x="957.612" y="313.065"/>
      <point x="957.612" y="389.03" type="qcurve"/>
      <point x="957.612" y="469.598"/>
      <point x="902.365" y="575.488"/>
      <point x="835.609" y="637.641"/>
      <point x="773.456" y="665.264"/>
      <point x="766.55" y="667.566" type="qcurve"/>
      <point x="706.699" y="688.284"/>
      <point x="598.508" y="692.888"/>
      <point x="543.261" y="688.284" type="qcurve"/>
      <point x="543.261" y="796.475" type="line"/>
      <point x="593.904" y="796.475"/>
      <point x="711.303" y="810.287"/>
      <point x="764.248" y="844.816" type="qcurve"/>
      <point x="821.797" y="883.95"/>
      <point x="883.95" y="1003.65"/>
      <point x="883.95" y="1070.41" type="qcurve"/>
      <point x="883.95" y="1187.81"/>
      <point x="727.417" y="1321.32"/>
      <point x="610.017" y="1321.32" type="qcurve"/>
      <point x="520.241" y="1321.32"/>
      <point x="372.916" y="1245.36"/>
      <point x="319.971" y="1213.13" type="qcurve"/>
      <point x="278.536" y="1187.81" type="line"/>
      <point x="220.987" y="1277.58" type="line"/>
      <point x="317.669" y="1339.74"/>
      <point x="501.826" y="1429.51"/>
      <point x="612.319" y="1429.51" type="qcurve"/>
      <point x="685.982" y="1429.51"/>
      <point x="826.401" y="1381.17"/>
      <point x="936.894" y="1289.09"/>
      <point x="1003.65" y="1157.88"/>
      <point x="1003.65" y="1072.71" type="qcurve"/>
      <point x="1003.65" y="996.745"/>
      <point x="959.914" y="886.252"/>
      <point x="900.063" y="810.287"/>
      <point x="840.212" y="768.852"/>
      <point x="826.401" y="759.644" type="qcurve"/>
      <point x="863.232" y="745.832"/>
      <point x="948.404" y="685.982"/>
      <point x="1024.37" y="596.206"/>
      <point x="1075.01" y="471.9"/>
      <point x="1075.01" y="393.634" type="qcurve"/>
      <point x="1075.01" y="296.952"/>
      <point x="1003.65" y="138.117"/>
      <point x="877.044" y="27.6234"/>
      <point x="709.001" y="-32.2273"/>
      <point x="612.319" y="-32.2273" type="qcurve"/>
      <point x="559.374" y="-32.2273"/>
      <point x="469.598" y="-18.4156"/>
      <point x="375.218" y="11.5098"/>
      <point x="264.724" y="52.9449"/>
      <point x="193.364" y="80.5683" type="qcurve"/>
    </contour>
  </outline>
</glyph>
<glyph name="four" format="2">
  <advance width="600"/>
  <unicode hex="0034"/>
  <outline>
    <contour>
      <point x="480" y="194" type="line"/>
      <point x="480" y="146" type="line"/>
      <point x="390" y="146" type="line"/>
      <point x="390" y="47" type="line"/>
      <point x="480" y="47" type="line"/>
      <point x="480" y="0" type="line"/>
      <point x="207" y="0" type="line"/>
      <point x="207" y="47" type="line"/>
      <point x="342" y="47" type="line"/>
      <point x="342" y="146" type="line"/>
      <point x="74" y="146" type="line"/>
      <point x="74" y="204" type="line"/>
      <point x="322" y="621" type="line"/>
      <point x="390" y="621" type="line"/>
      <point x="390" y="194" type="line"/>
    </contour>
    <contour>
      <point x="342" y="563" type="line"/>
      <point x="340" y="563" type="line"/>
      <point x="123" y="194" type="line"/>
      <point x="342" y="194" type="line"/>
    </contour>
  </outline>
</glyph>
<glyph name="seven" format="2">
  <advance width="1381"/>
  <unicode hex="0037"/>
  <outline>
    <contour>
      <point x="1123.35" y="1286.79" type="line"/>
      <point x="676.774" y="0" type="line"/>
      <point x="543.261" y="0" type="line"/>
      <point x="1008.25" y="1286.79" type="line"/>
      <point x="331.481" y="1286.79" type="line"/>
      <point x="331.481" y="1075.01" type="line"/>
      <point x="218.685" y="1075.01" type="line"/>
      <point x="218.685" y="1394.98" type="line"/>
      <point x="1123.35" y="1394.98" type="line"/>
    </contour>
  </outline>
</glyph>
<glyph name="B" format="2">
  <advance width="600"/>
  <unicode hex="0042"/>
  <outline>
    <contour>
      <point x="318" y="563" type="line"/>
      <point x="377" y="563"/>
      <point x="441" y="540"/>
      <point x="483" y="502"/>
      <point x="509" y="450"/>
      <point x="509" y="418" type="qcurve"/>
      <point x="509" y="391"/>
      <point x="492" y="349"/>
      <point x="467" y="319"/>
      <point x="440" y="299"/>
      <point x="430" y="294" type="qcurve"/>
      <point x="484" y="278"/>
      <point x="544" y="208"/>
      <point x="544" y="154" type="qcurve"/>
      <point x="544" y="112"/>
      <point x="505" y="45"/>
      <point x="473" y="28" type="qcurve"/>
      <point x="457" y="19"/>
      <point x="427" y="8"/>
      <point x="390" y="2"/>
      <point x="343" y="0"/>
      <point x="309" y="0" type="qcurve"/>
      <point x="45" y="0" type="line"/>
      <point x="45" y="47" type="line"/>
      <point x="128" y="47" type="line"/>
      <point x="128" y="516" type="line"/>
      <point x="45" y="516" type="line"/>
      <point x="45" y="563" type="line"/>
    </contour>
    <contour>
      <point x="178" y="316" type="line"/>
      <point x="311" y="316" type="line"/>
      <point x="360" y="316"/>
      <point x="418" y="340"/>
      <point x="448" y="373"/>
      <point x="457" y="408"/>
      <point x="457" y="420" type="qcurve"/>
      <point x="457" y="456"/>
      <point x="419" y="495"/>
      <point x="370" y="513"/>
      <point x="324" y="516"/>
      <point x="316" y="516" type="qcurve"/>
      <point x="178" y="516" type="line"/>
    </contour>
    <contour>
      <point x="178" y="47" type="line"/>
      <point x="307" y="47" type="line"/>
      <point x="334" y="47"/>
      <point x="398" y="50"/>
      <point x="454" y="70"/>
      <point x="492" y="113"/>
      <point x="492" y="154" type="qcurve"/>
      <point x="492" y="185"/>
      <point x="463" y="229"/>
      <point x="413" y="256"/>
      <point x="343" y="269"/>
      <point x="303" y="269" type="qcurve"/>
      <point x="178" y="269" type="line"/>
    </contour>
  </outline>
</glyph>
<glyph name="D" format="2">
  <advance width="1381"/>
  <unicode hex="0044"/>
  <outline>
    <contour>
      <point x="653.754" y="1296" type="line"/>
      <point x="729.719" y="1296"/>
      <point x="860.93" y="1284.49"/>
      <point x="973.726" y="1249.96"/>
      <point x="1077.31" y="1180.9"/>
      <point x="1125.65" y="1123.35" type="qcurve"/>
      <point x="1176.3" y="1061.2"/>
      <point x="1233.85" y="927.687"/>
      <point x="1261.47" y="803.381"/>
      <point x="1268.38" y="702.095"/>
      <point x="1268.38" y="672.17" type="qcurve"/>
      <point x="1268.38" y="568.582"/>
      <point x="1236.15" y="400.54"/>
      <point x="1183.2" y="269.328"/>
      <point x="1114.14" y="168.042"/>
      <point x="1077.31" y="133.513" type="qcurve"/>
      <point x="1024.37" y="82.8703"/>
      <point x="900.063" y="29.9254"/>
      <point x="780.362" y="4.6039"/>
      <point x="676.774" y="0"/>
      <point x="644.547" y="0" type="qcurve"/>
      <point x="78.2664" y="0" type="line"/>
      <point x="78.2664" y="108.192" type="line"/>
      <point x="260.121" y="108.192" type="line"/>
      <point x="260.121" y="1187.81" type="line"/>
      <point x="78.2664" y="1187.81" type="line"/>
      <point x="78.2664" y="1296" type="line"/>
    </contour>
    <contour>
      <point x="375.218" y="108.192" type="line"/>
      <point x="644.547" y="108.192" type="line"/>
      <point x="674.472" y="108.192"/>
      <point x="757.342" y="110.494"/>
      <point x="851.722" y="131.211"/>
      <point x="948.404" y="174.948"/>
      <point x="989.839" y="216.383" type="qcurve"/>
      <point x="1051.99" y="278.536"/>
      <point x="1144.07" y="506.429"/>
      <point x="1144.07" y="665.264" type="qcurve"/>
      <point x="1141.77" y="773.456"/>
      <point x="1102.64" y="925.385"/>
      <point x="1047.39" y="1031.27"/>
      <point x="985.235" y="1095.73"/>
      <point x="959.914" y="1116.45" type="qcurve"/>
      <point x="900.063" y="1162.49"/>
      <point x="755.04" y="1187.81"/>
      <point x="656.056" y="1187.81" type="qcurve"/>
      <point x="375.218" y="1187.81" type="line"/>
    </contour>
  </outline>
</glyph>
<glyph name="H" format="2">
  <advance width="1381"/>
  <unicode hex="0048"/>
  <outline>
    <contour>
      <point x="550.167" y="1187.81" type="line"/>
      <point x="377.52" y="1187.81" type="line"/>
      <point x="377.52" y="722.813" type="line"/>
      <point x="1003.65" y="722.813" type="line"/>
      <point x="1003.65" y="1187.81" type="line"/>
      <point x="831.005" y="1187.81" type="line"/>
      <point x="831.005" y="1296" type="line"/>
      <point x="1293.7" y="1296" type="line"/>
      <point x="1293.7" y="1187.81" type="line"/>
      <point x="1118.75" y="1187.81" type="line"/>
      <point x="1118.75" y="108.192" type="line"/>
      <point x="1293.7" y="108.192" type="line"/>
      <point x="1293.7" y="0" type="line"/>
      <point x="831.005" y="0" type="line"/>
      <point x="831.005" y="108.192" type="line"/>
      <point x="1003.65" y="108.192" type="line"/>
      <point x="1003.65" y="614.621" type="line"/>
      <point x="377.52" y="614.621" type="line"/>
      <point x="377.52" y="108.192" type="line"/>
      <point x="550.167" y="108.192" type="line"/>
      <point x="550.167" y="0" type="line"/>
      <point x="89.7761" y="0" type="line"/>
      <point x="89.7761" y="108.192" type="line"/>
      <point x="262.423" y="108.192" type="line"/>
      <point x="262.423" y="1187.81" type="line"/>
      <point x="89.7761" y="1187.81" type="line"/>
      <point x="89.7761" y="1296" type="line"/>
      <point x="550.167" y="1296" type="line"/>
    </contour>
  </outline>
</glyph>
<glyph name="I" format="2">
  <advance width="1381"/>
  <unicode hex="0049"/>
  <outline>
    <contour>
      <point x="1150.98" y="1187.81" type="line"/>
      <point x="748.134" y="1187.81" type="line"/>
      <point x="748.134" y="108.192" type="line"/>
      <point x="1150.98" y="108.192" type="line"/>
      <point x="1150.98" y="0" type="line"/>
      <point x="230.195" y="0" type="line"/>
      <point x="230.195" y="108.192" type="line"/>
      <point x="633.037" y="108.192" type="line"/>
      <point x="633.037" y="1187.81" type="line"/>
      <point x="230.195" y="1187.81" type="line"/>
      <point x="230.195" y="1296" type="line"/>
      <point x="1150.98" y="1296" type="line"/>
    </contour>
  </outline>
</glyph>
<glyph name="Q" format="2">
  <advance width="600"/>
  <unicode hex="0051"/>
  <outline>
    <contour>
      <point x="547" y="-88" type="line"/>
      <point x="530" y="-100"/>
      <point x="481" y="-128"/>
      <point x="446" y="-128" type="qcurve"/>
      <point x="423" y="-128"/>
      <point x="387" y="-115"/>
      <point x="335" y="-93"/>
      <point x="302" y="-84"/>
      <point x="283" y="-84" type="qcurve"/>
      <point x="250" y="-84"/>
      <point x="200" y="-105"/>
      <point x="165" y="-125" type="qcurve"/>
      <point x="142" y="-88" type="line"/>
      <point x="160" y="-76"/>
      <point x="190" y="-49"/>
      <point x="212" y="-26"/>
      <point x="225" y="-9"/>
      <point x="227" y="-7" type="qcurve"/>
      <point x="185" y="6"/>
      <point x="117" y="61"/>
      <point x="69" y="136"/>
      <point x="43" y="229"/>
      <point x="43" y="281" type="qcurve"/>
      <point x="43" y="352"/>
      <point x="85" y="463"/>
      <point x="156" y="540"/>
      <point x="249" y="580"/>
      <point x="299" y="580" type="qcurve"/>
      <point x="353" y="580"/>
      <point x="447" y="537"/>
      <point x="517" y="458"/>
      <point x="557" y="346"/>
      <point x="557" y="277" type="qcurve"/>
      <point x="557" y="226"/>
      <point x="530" y="121"/>
      <point x="466" y="35"/>
      <point x="361" y="-18"/>
      <point x="283" y="-17" type="qcurve"/>
      <point x="279" y="-22"/>
      <point x="275" y="-26"/>
      <point x="267" y="-34" type="qcurve"/>
      <point x="266" y="-36"/>
      <point x="264" y="-38"/>
      <point x="265" y="-36" type="qcurve"/>
      <point x="263" y="-36" type="line"/>
      <point x="263" y="-38" type="line"/>
      <point x="268" y="-38"/>
      <point x="277" y="-37"/>
      <point x="285" y="-37" type="qcurve"/>
      <point x="303" y="-37"/>
      <point x="347" y="-46"/>
      <point x="373" y="-57" type="qcurve"/>
      <point x="391" y="-64"/>
      <point x="412" y="-72"/>
      <point x="426" y="-77"/>
      <point x="436" y="-78"/>
      <point x="442" y="-78" type="qcurve"/>
      <point x="467" y="-78"/>
      <point x="502" y="-61"/>
      <point x="516" y="-52" type="qcurve"/>
    </contour>
    <contour>
      <point x="97" y="282" type="qcurve"/>
      <point x="97" y="237"/>
      <point x="123" y="148"/>
      <point x="174" y="77"/>
      <point x="250" y="33"/>
      <point x="300" y="33" type="qcurve"/>
      <point x="349" y="33"/>
      <point x="425" y="76"/>
      <point x="477" y="146"/>
      <point x="503" y="235"/>
      <point x="503" y="282" type="qcurve"/>
      <point x="503" y="329"/>
      <point x="476" y="419"/>
      <point x="424" y="488"/>
      <point x="349" y="530"/>
      <point x="300" y="530" type="qcurve"/>
      <point x="248" y="530"/>
      <point x="172" y="485"/>
      <point x="122" y="414"/>
      <point x="97" y="325"/>
    </contour>
  </outline>
</glyph>
<glyph name="V" format="2">
  <advance width="1381"/>
  <unicode hex="0056"/>
  <outline>
    <contour>
      <point x="506.429" y="1187.81" type="line"/>
      <point x="290.046" y="1187.81" type="line"/>
      <point x="697.491" y="128.909" type="line"/>
      <point x="1111.84" y="1187.81" type="line"/>
      <point x="877.044" y="1187.81" type="line"/>
      <point x="877.044" y="1296" type="line"/>
      <point x="1367.36" y="1296" type="line"/>
      <point x="1367.36" y="1187.81" type="line"/>
      <point x="1222.34" y="1187.81" type="line"/>
      <point x="766.55" y="0" type="line"/>
      <point x="623.829" y="0" type="line"/>
      <point x="172.646" y="1187.81" type="line"/>
      <point x="13.8117" y="1187.81" type="line"/>
      <point x="13.8117" y="1296" type="line"/>
      <point x="506.429" y="1296" type="line"/>
    </contour>
  </outline>
</glyph>
<glyph name="W" format="2">
  <advance width="1381"/>
  <unicode hex="0057"/>
  <outline>
    <contour>
      <point x="458.088" y="1187.81" type="line"/>
      <point x="225.591" y="1187.81" type="line"/>
      <point x="354.501" y="220.987" type="line"/>
      <point x="359.105" y="220.987" type="line"/>
      <point x="656.056" y="1058.9" type="line"/>
      <point x="734.323" y="1058.9" type="line"/>
      <point x="1024.37" y="220.987" type="line"/>
      <point x="1028.97" y="220.987" type="line"/>
      <point x="1162.49" y="1187.81" type="line"/>
      <point x="927.687" y="1187.81" type="line"/>
      <point x="927.687" y="1296" type="line"/>
      <point x="1376.57" y="1296" type="line"/>
      <point x="1376.57" y="1187.81" type="line"/>
      <point x="1270.68" y="1187.81" type="line"/>
      <point x="1098.03" y="0" type="line"/>
      <point x="982.934" y="0" type="line"/>
      <point x="690.586" y="837.911" type="line"/>
      <point x="685.982" y="837.911" type="line"/>
      <point x="389.03" y="0" type="line"/>
      <point x="273.932" y="0" type="line"/>
      <point x="112.796" y="1187.81" type="line"/>
      <point x="4.6039" y="1187.81" type="line"/>
      <point x="4.6039" y="1296" type="line"/>
      <point x="458.088" y="1296" type="line"/>
    </contour>
  </outline>
</glyph>
<glyph name="Y" format="2">
  <advance width="600"/>
  <unicode hex="0059"/>
  <outline>
    <contour>
      <point x="228" y="516" type="line"/>
      <point x="152" y="516" type="line"/>
      <point x="303" y="268" type="line"/>
      <point x="452" y="516" type="line"/>
      <point x="374" y="516" type="line"/>
      <point x="374" y="563" type="line"/>
      <point x="568" y="563" type="line"/>
      <point x="568" y="516" type="line"/>
      <point x="505" y="516" type="line"/>
      <point x="326" y="218" type="line"/>
      <point x="326" y="47" type="line"/>
      <point x="444" y="47" type="line"/>
      <point x="444" y="0" type="line"/>
      <point x="157" y="0" type="line"/>
      <point x="157" y="47" type="line"/>
      <point x="276" y="47" type="line"/>
      <point x="276" y="218" type="line"/>
      <point x="95" y="516" type="line"/>
      <point x="32" y="516" type="line"/>
      <point x="32" y="563" type="line"/>
      <point x="228" y="563" type="line"/>
    </contour>
  </outline>
</glyph>
<glyph name="Z" format="2">
  <advance width="600"/>
  <unicode hex="005A"/>
  <outline>
    <contour>
      <point x="493" y="522" type="line"/>
      <point x="144" y="47" type="line"/>
      <point x="469" y="47" type="line"/>
      <point x="469" y="209" type="line"/>
      <point x="516" y="209" type="line"/>
      <point x="516" y="0" type="line"/>
      <point x="84" y="0" type="line"/>
      <point x="84" y="47" type="line"/>
      <point x="429" y="516" type="line"/>
      <point x="138" y="516" type="line"/>
      <point x="138" y="370" type="line"/>
      <point x="91" y="370" type="line"/>
      <point x="91" y="563" type="line"/>
      <point x="493" y="563" type="line"/>
    </contour>
  </outline>
</glyph>
<glyph name="backslash" format="2">
  <advance width="600"/>
  <unicode hex="005C"/>
  <outline>
    <contour>
      <point x="468" y="-139" type="line"/>
      <point x="93" y="686" type="line"/>
      <point x="136" y="705" type="line"/>
      <point x="511" y="-119" type="line"/>
    </contour>
  </outline>
</glyph>
<glyph name="grave" format="2">
  <advance width="600"/>
  <unicode hex="0060"/>
  <outline>
    <contour>
      <point x="374" y="503" type="line"/>
      <point x="322" y="503" type="line"/>
      <point x="190" y="618" type="line"/>
      <point x="297" y="618" type="line"/>
    </contour>
  </outline>
</glyph>
<glyph name="b" format="2">
  <advance width="600"/>
  <unicode hex="0062"/>
  <outline>
    <contour>
      <point x="147" y="346" type="line"/>
      <point x="149" y="346" type="line"/>
      <point x="180" y="388"/>
      <point x="265" y="434"/>
      <point x="320" y="434" type="qcurve"/>
      <point x="366" y="434"/>
      <point x="448" y="399"/>
      <point x="509" y="339"/>
      <point x="544" y="257"/>
      <point x="544" y="211" type="qcurve"/>
      <point x="544" y="169"/>
      <point x="512" y="90"/>
      <point x="454" y="28"/>
      <point x="373" y="-10"/>
      <point x="324" y="-10" type="qcurve"/>
      <point x="283" y="-10"/>
      <point x="225" y="10"/>
      <point x="183" y="37"/>
      <point x="156" y="67"/>
      <point x="147" y="77" type="qcurve"/>
      <point x="147" y="0" type="line"/>
      <point x="17" y="0" type="line"/>
      <point x="17" y="47" type="line"/>
      <point x="97" y="47" type="line"/>
      <point x="97" y="578" type="line"/>
      <point x="5" y="573" type="line"/>
      <point x="5" y="620" type="line"/>
      <point x="147" y="629" type="line"/>
    </contour>
    <contour>
      <point x="148" y="213" type="qcurve"/>
      <point x="148" y="178"/>
      <point x="175" y="115"/>
      <point x="221" y="68"/>
      <point x="285" y="40"/>
      <point x="323" y="40" type="qcurve"/>
      <point x="360" y="40"/>
      <point x="422" y="68"/>
      <point x="466" y="116"/>
      <point x="490" y="178"/>
      <point x="490" y="212" type="qcurve"/>
      <point x="490" y="246"/>
      <point x="465" y="309"/>
      <point x="420" y="356"/>
      <point x="358" y="384"/>
      <point x="322" y="384" type="qcurve"/>
      <point x="285" y="384"/>
      <point x="222" y="356"/>
      <point x="175" y="309"/>
      <point x="148" y="247"/>
    </contour>
  </outline>
</glyph>
<glyph name="f" format="2">
  <advance width="1381"/>
  <unicode hex="0066"/>
  <outline>
    <contour>
      <point x="462.692" y="1091.13" type="line"/>
      <point x="462.692" y="1162.49"/>
      <point x="483.41" y="1289.09"/>
      <point x="554.77" y="1383.47"/>
      <point x="699.793" y="1438.72"/>
      <point x="824.099" y="1438.72" type="qcurve"/>
      <point x="920.781" y="1438.72"/>
      <point x="1091.13" y="1415.7"/>
      <point x="1164.79" y="1401.89" type="qcurve"/>
      <point x="1116.45" y="1286.79" type="line"/>
      <point x="1040.48" y="1305.21"/>
      <point x="867.836" y="1323.62"/>
      <point x="794.173" y="1323.62" type="qcurve"/>
      <point x="713.605" y="1323.62"/>
      <point x="626.131" y="1284.49"/>
      <point x="584.696" y="1217.73"/>
      <point x="577.79" y="1130.26"/>
      <point x="577.79" y="1084.22" type="qcurve"/>
      <point x="577.79" y="962.216" type="line"/>
      <point x="1068.11" y="962.216" type="line"/>
      <point x="1068.11" y="854.024" type="line"/>
      <point x="577.79" y="854.024" type="line"/>
      <point x="577.79" y="108.192" type="line"/>
      <point x="1068.11" y="108.192" type="line"/>
      <point x="1068.11" y="0" type="line"/>
      <point x="223.289" y="0" type="line"/>
      <point x="223.289" y="108.192" type="line"/>
      <point x="462.692" y="108.192" type="line"/>
      <point x="462.692" y="854.024" type="line"/>
      <point x="223.289" y="854.024" type="line"/>
      <point x="223.289" y="962.216" type="line"/>
      <point x="462.692" y="962.216" type="line"/>
    </contour>
  </outline>
</glyph>
<glyph name="i" format="2">
  <advance width="1381"/>
  <unicode hex="0069"/>
  <outline>
    <contour>
      <point x="752.738" y="108.192" type="line"/>
      <point x="1150.98" y="108.192" type="line"/>
      <point x="1150.98" y="0" type="line"/>
      <point x="232.497" y="0" type="line"/>
      <point x="232.497" y="108.192" type="line"/>
      <point x="637.641" y="108.192" type="line"/>
      <point x="637.641" y="881.648" type="line"/>
      <point x="299.254" y="881.648" type="line"/>
      <point x="299.254" y="989.839" type="line"/>
      <point x="752.738" y="989.839" type="line"/>
    </contour>
    <contour>
      <point x="752.738" y="1510.08" type="line"/>
      <point x="752.738" y="1236.15" type="line"/>
      <point x="586.998" y="1236.15" type="line"/>
      <point x="586.998" y="1510.08" type="line"/>
    </contour>
  </outline>
</glyph>
<glyph name="n" format="2">
  <advance width="1381"/>
  <unicode hex="006E"/>
  <outline>
    <contour>
      <point x="382.124" y="860.93" type="line"/>
      <point x="418.955" y="888.553"/>
      <point x="506.429" y="946.102"/>
      <point x="605.413" y="994.443"/>
      <point x="715.907" y="1024.37"/>
      <point x="778.06" y="1024.37" type="qcurve"/>
      <point x="856.326" y="1024.37"/>
      <point x="982.934" y="969.122"/>
      <point x="1072.71" y="867.836"/>
      <point x="1121.05" y="727.417"/>
      <point x="1121.05" y="644.547" type="qcurve"/>
      <point x="1121.05" y="108.192" type="line"/>
      <point x="1305.21" y="108.192" type="line"/>
      <point x="1305.21" y="0" type="line"/>
      <point x="807.985" y="0" type="line"/>
      <point x="807.985" y="108.192" type="line"/>
      <point x="1005.95" y="108.192" type="line"/>
      <point x="1005.95" y="635.339" type="line"/>
      <point x="1005.95" y="761.946"/>
      <point x="883.95" y="909.271"/>
      <point x="780.362" y="909.271" type="qcurve"/>
      <point x="752.738" y="909.271"/>
      <point x="679.076" y="897.761"/>
      <point x="582.394" y="858.628"/>
      <point x="460.39" y="787.268"/>
      <point x="382.124" y="725.115" type="qcurve"/>
      <point x="382.124" y="108.192" type="line"/>
      <point x="575.488" y="108.192" type="line"/>
      <point x="575.488" y="0" type="line"/>
      <point x="78.2664" y="0" type="line"/>
      <point x="78.2664" y="108.192" type="line"/>
      <point x="267.026" y="108.192" type="line"/>
      <point x="267.026" y="881.648" type="line"/>
      <point x="78.2664" y="881.648" type="line"/>
      <point x="78.2664" y="989.839" type="line"/>
      <point x="382.124" y="989.839" type="line"/>
    </contour>
  </outline>
</glyph>
<glyph name="q" format="2">
  <advance width="1381"/>
  <unicode hex="0071"/>
  <outline>
    <contour>
      <point x="1148.67" y="881.648" type="line"/>
      <point x="1148.67" y="-253.215" type="line"/>
      <point x="1337.43" y="-253.215" type="line"/>
      <point x="1337.43" y="-361.406" type="line"/>
      <point x="690.586" y="-361.406" type="line"/>
      <point x="690.586" y="-253.215" type="line"/>
      <point x="1033.58" y="-253.215" type="line"/>
      <point x="1033.58" y="181.854" type="line"/>
      <point x="1028.97" y="181.854" type="line"/>
      <point x="969.122" y="108.192"/>
      <point x="840.212" y="27.6234"/>
      <point x="725.115" y="-9.20781"/>
      <point x="642.245" y="-16.1137"/>
      <point x="628.433" y="-16.1137" type="qcurve"/>
      <point x="534.053" y="-16.1137"/>
      <point x="352.199" y="59.8508"/>
      <point x="209.478" y="197.968"/>
      <point x="119.702" y="389.03"/>
      <point x="119.702" y="504.127" type="qcurve"/>
      <point x="119.702" y="603.111"/>
      <point x="191.062" y="787.268"/>
      <point x="326.877" y="932.291"/>
      <point x="515.637" y="1019.76"/>
      <point x="633.037" y="1019.76" type="qcurve"/>
      <point x="725.115" y="1019.76"/>
      <point x="860.93" y="973.726"/>
      <point x="957.612" y="911.573"/>
      <point x="1015.16" y="847.118"/>
      <point x="1028.97" y="826.401" type="qcurve"/>
      <point x="1033.58" y="826.401" type="line"/>
      <point x="1033.58" y="989.839" type="line"/>
      <point x="1337.43" y="989.839" type="line"/>
      <point x="1337.43" y="881.648" type="line"/>
    </contour>
    <contour>
      <point x="1042.78" y="511.033" type="qcurve"/>
      <point x="1042.78" y="589.3"/>
      <point x="980.632" y="734.323"/>
      <point x="872.44" y="840.212"/>
      <point x="720.511" y="904.667"/>
      <point x="630.735" y="904.667" type="qcurve"/>
      <point x="534.053" y="904.667"/>
      <point x="389.03" y="833.307"/>
      <point x="292.348" y="720.511"/>
      <point x="244.007" y="577.79"/>
      <point x="244.007" y="506.429" type="qcurve"/>
      <point x="244.007" y="418.955"/>
      <point x="306.16" y="269.328"/>
      <point x="414.351" y="161.137"/>
      <point x="554.77" y="98.9839"/>
      <point x="633.037" y="98.9839" type="qcurve"/>
      <point x="699.793" y="98.9839"/>
      <point x="844.816" y="151.929"/>
      <point x="964.518" y="255.517"/>
      <point x="1042.78" y="409.747"/>
    </contour>
  </outline>
</glyph>
<glyph name="braceleft" format="2">
  <advance width="1381"/>
  <unicode hex="007B"/>
  <outline>
    <contour>
      <point x="1061.2" y="1390.38" type="line"/>
      <point x="1019.76" y="1390.38"/>
      <point x="927.687" y="1383.47"/>
      <point x="851.722" y="1348.94"/>
      <point x="801.079" y="1279.89"/>
      <point x="801.079" y="1217.73" type="qcurve"/>
      <point x="801.079" y="1180.9"/>
      <point x="810.287" y="1104.94"/>
      <point x="828.703" y="1031.27" type="qcurve"/>
      <point x="847.118" y="950.706" type="line"/>
      <point x="849.42" y="939.196"/>
      <point x="858.628" y="877.044"/>
      <point x="858.628" y="849.42" type="qcurve"/>
      <point x="858.628" y="807.985"/>
      <point x="835.609" y="743.53"/>
      <point x="798.777" y="695.19"/>
      <point x="752.738" y="656.056"/>
      <point x="732.021" y="639.943" type="qcurve"/>
      <point x="752.738" y="623.829"/>
      <point x="796.475" y="586.998"/>
      <point x="835.609" y="538.657"/>
      <point x="858.628" y="474.202"/>
      <point x="858.628" y="432.767" type="qcurve"/>
      <point x="858.628" y="405.144"/>
      <point x="849.42" y="342.991"/>
      <point x="847.118" y="331.481" type="qcurve"/>
      <point x="828.703" y="250.913" type="line"/>
      <point x="810.287" y="177.25"/>
      <point x="801.079" y="101.286"/>
      <point x="801.079" y="62.1527" type="qcurve"/>
      <point x="801.079" y="0"/>
      <point x="854.024" y="-69.0586"/>
      <point x="934.593" y="-101.286"/>
      <point x="1024.37" y="-108.192"/>
      <point x="1061.2" y="-108.192" type="qcurve"/>
      <point x="1061.2" y="-218.685" type="line"/>
      <point x="969.122" y="-218.685" type="line"/>
      <point x="932.291" y="-218.685"/>
      <point x="872.44" y="-200.27" type="qcurve"/>
      <point x="780.362" y="-170.344"/>
      <point x="681.378" y="-25.3215"/>
      <point x="681.378" y="66.7566" type="qcurve"/>
      <point x="681.378" y="82.8703"/>
      <point x="685.982" y="142.721"/>
      <point x="695.19" y="181.854" type="qcurve"/>
      <point x="695.19" y="195.666"/>
      <point x="711.303" y="262.423"/>
      <point x="715.907" y="276.234" type="qcurve"/>
      <point x="722.813" y="313.065"/>
      <point x="736.625" y="398.238"/>
      <point x="736.625" y="437.371" type="qcurve"/>
      <point x="736.625" y="483.41"/>
      <point x="688.284" y="538.657"/>
      <point x="623.829" y="568.582"/>
      <point x="557.072" y="580.092"/>
      <point x="540.959" y="582.394" type="qcurve"/>
      <point x="540.959" y="699.793" type="line"/>
      <point x="628.433" y="709.001"/>
      <point x="736.625" y="778.06"/>
      <point x="736.625" y="849.42" type="qcurve"/>
      <point x="736.625" y="870.138"/>
      <point x="732.021" y="916.177"/>
      <point x="725.115" y="962.216"/>
      <point x="718.209" y="996.745"/>
      <point x="715.907" y="1005.95" type="qcurve"/>
      <point x="706.699" y="1054.29"/>
      <point x="692.888" y="1114.14"/>
      <point x="685.982" y="1155.58"/>
      <point x="681.378" y="1187.81"/>
      <point x="681.378" y="1208.52" type="qcurve"/>
      <point x="681.378" y="1323.62"/>
      <point x="782.664" y="1443.32"/>
      <point x="913.875" y="1496.27"/>
      <point x="1038.18" y="1500.87"/>
      <point x="1061.2" y="1500.87" type="qcurve"/>
    </contour>
  </outline>
</glyph>
<glyph name="sterling" format="2">
  <advance width="1381"/>
  <unicode hex="00A3"/>
  <outline>
    <contour>
      <point x="430.465" y="780.362" type="line"/>
      <point x="395.936" y="872.44"/>
      <point x="370.614" y="978.33"/>
      <point x="370.614" y="1031.27" type="qcurve"/>
      <point x="370.614" y="1111.84"/>
      <point x="437.371" y="1249.96"/>
      <point x="552.468" y="1351.25"/>
      <point x="699.793" y="1408.79"/>
      <point x="782.664" y="1408.79" type="qcurve"/>
      <point x="870.138" y="1408.79"/>
      <point x="996.745" y="1371.96"/>
      <point x="1045.09" y="1353.55" type="qcurve"/>
      <point x="1049.69" y="1351.25"/>
      <point x="1065.8" y="1346.64"/>
      <point x="1070.41" y="1346.64" type="qcurve"/>
      <point x="1075.01" y="1346.64"/>
      <point x="1081.92" y="1353.55"/>
      <point x="1088.82" y="1369.66" type="qcurve"/>
      <point x="1192.41" y="1369.66" type="line"/>
      <point x="1174" y="1305.21"/>
      <point x="1153.28" y="1194.71"/>
      <point x="1148.67" y="1111.84" type="qcurve"/>
      <point x="1045.09" y="1100.33" type="line"/>
      <point x="1047.39" y="1127.96"/>
      <point x="1049.69" y="1167.09"/>
      <point x="1049.69" y="1176.3" type="qcurve"/>
      <point x="1049.69" y="1190.11"/>
      <point x="1038.18" y="1229.24"/>
      <point x="1019.76" y="1240.75" type="qcurve"/>
      <point x="994.443" y="1254.56"/>
      <point x="860.93" y="1296"/>
      <point x="787.268" y="1296" type="qcurve"/>
      <point x="713.605" y="1296"/>
      <point x="598.508" y="1249.96"/>
      <point x="522.543" y="1174"/>
      <point x="483.41" y="1079.62"/>
      <point x="483.41" y="1033.58" type="qcurve"/>
      <point x="483.41" y="1008.25"/>
      <point x="490.316" y="964.518"/>
      <point x="504.127" y="906.969"/>
      <point x="527.147" y="833.307"/>
      <point x="545.563" y="780.362" type="qcurve"/>
      <point x="1104.94" y="780.362" type="line"/>
      <point x="1104.94" y="672.17" type="line"/>
      <point x="577.79" y="672.17" type="line"/>
      <point x="589.3" y="626.131"/>
      <point x="598.508" y="552.468"/>
      <point x="598.508" y="504.127" type="qcurve"/>
      <point x="598.508" y="354.501"/>
      <point x="517.939" y="165.741"/>
      <point x="476.504" y="112.796" type="qcurve"/>
      <point x="481.108" y="108.192" type="line"/>
      <point x="513.335" y="124.305"/>
      <point x="591.602" y="151.929"/>
      <point x="644.547" y="151.929" type="qcurve"/>
      <point x="685.982" y="151.929"/>
      <point x="759.644" y="135.815"/>
      <point x="821.797" y="110.494" type="qcurve"/>
      <point x="872.44" y="92.0781"/>
      <point x="927.687" y="75.9644"/>
      <point x="953.008" y="75.9644" type="qcurve"/>
      <point x="1008.25" y="75.9644"/>
      <point x="1093.43" y="124.305"/>
      <point x="1148.67" y="170.344" type="qcurve"/>
      <point x="1215.43" y="87.4742" type="line"/>
      <point x="1199.32" y="71.3605"/>
      <point x="1150.98" y="29.9254"/>
      <point x="1088.82" y="-6.90586"/>
      <point x="1008.25" y="-32.2273"/>
      <point x="959.914" y="-32.2273" type="qcurve"/>
      <point x="927.687" y="-32.2273"/>
      <point x="854.024" y="-18.4156"/>
      <point x="798.777" y="2.30195" type="qcurve"/>
      <point x="734.323" y="25.3215"/>
      <point x="669.868" y="43.7371"/>
      <point x="633.037" y="43.7371" type="qcurve"/>
      <point x="586.998" y="43.7371"/>
      <point x="469.598" y="9.20781"/>
      <point x="372.916" y="-46.039" type="qcurve"/>
      <point x="296.952" y="52.9449" type="line"/>
      <point x="363.708" y="122.003"/>
      <point x="441.975" y="257.819"/>
      <point x="481.108" y="375.218"/>
      <point x="490.316" y="467.296"/>
      <point x="490.316" y="494.92" type="qcurve"/>
      <point x="490.316" y="584.696"/>
      <point x="462.692" y="672.17" type="qcurve"/>
      <point x="220.987" y="672.17" type="line"/>
      <point x="220.987" y="780.362" type="line"/>
    </contour>
  </outline>
</glyph>
<glyph name="currency" format="2">
  <advance width="600"/>
  <unicode hex="00A4"/>
  <outline>
    <contour>
      <point x="490" y="61" type="line"/>
      <point x="409" y="141" type="line"/>
      <point x="378" y="116"/>
      <point x="316" y="104"/>
      <point x="300" y="104" type="qcurve"/>
      <point x="294" y="104"/>
      <point x="271" y="106"/>
      <point x="242" y="113"/>
      <point x="208" y="128"/>
      <point x="191" y="141" type="qcurve"/>
      <point x="110" y="61" type="line"/>
      <point x="75" y="95" type="line"/>
      <point x="157" y="175" type="line"/>
      <point x="131" y="213"/>
      <point x="122" y="267"/>
      <point x="122" y="275" type="qcurve"/>
      <point x="122" y="323"/>
      <point x="146" y="375"/>
      <point x="157" y="390" type="qcurve"/>
      <point x="75" y="471" type="line"/>
      <point x="110" y="504" type="line"/>
      <point x="191" y="424" type="line"/>
      <point x="222" y="448"/>
      <point x="280" y="461"/>
      <point x="300" y="461" type="qcurve"/>
      <point x="322" y="461"/>
      <point x="357" y="453"/>
      <point x="384" y="441"/>
      <point x="403" y="428"/>
      <point x="409" y="424" type="qcurve"/>
      <point x="490" y="504" type="line"/>
      <point x="525" y="471" type="line"/>
      <point x="443" y="390" type="line"/>
      <point x="468" y="355"/>
      <point x="479" y="301"/>
      <point x="479" y="290" type="qcurve"/>
      <point x="479" y="242"/>
      <point x="453" y="189"/>
      <point x="443" y="175" type="qcurve"/>
      <point x="525" y="95" type="line"/>
    </contour>
    <contour>
      <point x="432" y="283" type="qcurve"/>
      <point x="432" y="308"/>
      <point x="414" y="355"/>
      <point x="379" y="392"/>
      <point x="330" y="414"/>
      <point x="300" y="414" type="qcurve"/>
      <point x="269" y="414"/>
      <point x="221" y="391"/>
      <point x="187" y="354"/>
      <point x="169" y="307"/>
      <point x="169" y="283" type="qcurve"/>
      <point x="169" y="257"/>
      <point x="187" y="210"/>
      <point x="220" y="173"/>
      <point x="269" y="151"/>
      <point x="299" y="151" type="qcurve"/>
      <point x="329" y="151"/>
      <point x="379" y="173"/>
      <point x="413" y="210"/>
      <point x="432" y="257"/>
    </contour>
  </outline>
</glyph>
<glyph name="ordfeminine" format="2">
  <advance width="1381"/>
  <unicode hex="00AA"/>
  <outline>
    <contour>
      <point x="439.673" y="1277.58" type="line"/>
      <point x="520.241" y="1309.81"/>
      <point x="621.527" y="1335.13"/>
      <point x="674.472" y="1335.13" type="qcurve"/>
      <point x="883.95" y="1335.13"/>
      <point x="883.95" y="1150.98" type="qcurve"/>
      <point x="883.95" y="879.346" type="line"/>
      <point x="982.934" y="879.346" type="line"/>
      <point x="982.934" y="796.475" type="line"/>
      <point x="796.475" y="796.475" type="line"/>
      <point x="796.475" y="860.93" type="line"/>
      <point x="736.625" y="814.891"/>
      <point x="646.849" y="780.362"/>
      <point x="593.904" y="780.362" type="qcurve"/>
      <point x="513.335" y="780.362"/>
      <point x="398.238" y="879.346"/>
      <point x="398.238" y="953.008" type="qcurve"/>
      <point x="398.238" y="1035.88"/>
      <point x="536.355" y="1139.47"/>
      <point x="653.754" y="1139.47" type="qcurve"/>
      <point x="688.284" y="1139.47"/>
      <point x="745.832" y="1134.86"/>
      <point x="796.475" y="1127.96" type="qcurve"/>
      <point x="796.475" y="1144.07" type="line"/>
      <point x="796.475" y="1201.62"/>
      <point x="738.927" y="1252.26"/>
      <point x="672.17" y="1252.26" type="qcurve"/>
      <point x="628.433" y="1252.26"/>
      <point x="536.355" y="1226.94"/>
      <point x="471.9" y="1199.32" type="qcurve"/>
    </contour>
    <contour>
      <point x="796.475" y="1045.09" type="line"/>
      <point x="748.134" y="1051.99"/>
      <point x="692.888" y="1056.6"/>
      <point x="665.264" y="1056.6" type="qcurve"/>
      <point x="584.696" y="1056.6"/>
      <point x="485.712" y="1001.35"/>
      <point x="485.712" y="953.008" type="qcurve"/>
      <point x="485.712" y="916.177"/>
      <point x="550.167" y="863.232"/>
      <point x="593.904" y="863.232" type="qcurve"/>
      <point x="699.793" y="863.232"/>
      <point x="796.475" y="973.726" type="qcurve"/>
    </contour>
    <contour>
      <point x="971.424" y="612.319" type="line"/>
      <point x="409.747" y="612.319" type="line"/>
      <point x="409.747" y="695.19" type="line"/>
      <point x="971.424" y="695.19" type="line"/>
    </contour>
  </outline>
</glyph>
<glyph name="guillemotleft" format="2">
  <advance width="1227"/>
  <unicode hex="00AB"/>
  <outline>
    <contour>
      <point x="863.232" y="115.098" type="line"/>
      <point x="552.468" y="619.225" type="line"/>
      <point x="863.232" y="1121.05" type="line"/>
      <point x="1111.84" y="1121.05" type="line"/>
      <point x="801.079" y="619.225" type="line"/>
      <point x="1111.84" y="115.098" type="line"/>
    </contour>
    <contour>
      <point x="425.861" y="115.098" type="line"/>
      <point x="115.098" y="619.225" type="line"/>
      <point x="425.861" y="1121.05" type="line"/>
      <point x="676.774" y="1121.05" type="line"/>
      <point x="366.01" y="619.225" type="line"/>
      <point x="676.774" y="115.098" type="line"/>
    </contour>
  </outline>
</glyph>
<glyph name="registered" format="2">
  <advance width="1381"/>
  <unicode hex="00AE"/>
  <outline>
    <contour>
      <point x="685.982" y="1072.71" type="line"/>
      <point x="704.397" y="1072.71"/>
      <point x="791.871" y="1065.8"/>
      <point x="883.95" y="1028.97"/>
      <point x="953.008" y="948.404"/>
      <point x="953.008" y="877.044" type="qcurve"/>
      <point x="953.008" y="865.534"/>
      <point x="946.102" y="814.891"/>
      <point x="913.875" y="752.738"/>
      <point x="842.514" y="695.19"/>
      <point x="778.06" y="679.076" type="qcurve"/>
      <point x="814.891" y="653.754"/>
      <point x="865.534" y="557.072"/>
      <point x="902.365" y="474.202" type="qcurve"/>
      <point x="920.781" y="432.767"/>
      <point x="946.102" y="389.03"/>
      <point x="973.726" y="368.312"/>
      <point x="1010.56" y="366.01"/>
      <point x="1040.48" y="366.01" type="qcurve"/>
      <point x="1040.48" y="310.764" type="line"/>
      <point x="948.404" y="310.764" type="line"/>
      <point x="881.648" y="310.764"/>
      <point x="819.495" y="405.144"/>
      <point x="789.57" y="485.712" type="qcurve"/>
      <point x="766.55" y="547.865"/>
      <point x="734.323" y="614.621"/>
      <point x="697.491" y="649.15"/>
      <point x="649.15" y="656.056"/>
      <point x="607.715" y="656.056" type="qcurve"/>
      <point x="566.28" y="656.056" type="line"/>
      <point x="566.28" y="425.861" type="line"/>
      <point x="566.28" y="395.936"/>
      <point x="570.884" y="379.822"/>
      <point x="582.394" y="372.916" type="qcurve"/>
      <point x="586.998" y="370.614"/>
      <point x="642.245" y="366.01"/>
      <point x="660.66" y="363.708" type="qcurve"/>
      <point x="660.66" y="310.764" type="line"/>
      <point x="368.312" y="310.764" type="line"/>
      <point x="368.312" y="363.708" type="line"/>
      <point x="370.614" y="366.01"/>
      <point x="384.426" y="366.01" type="qcurve"/>
      <point x="398.238" y="366.01"/>
      <point x="400.54" y="368.312" type="qcurve"/>
      <point x="441.975" y="372.916"/>
      <point x="462.692" y="386.728"/>
      <point x="462.692" y="425.861" type="qcurve"/>
      <point x="462.692" y="962.216" type="line"/>
      <point x="462.692" y="989.839"/>
      <point x="460.39" y="1003.65"/>
      <point x="448.881" y="1008.25" type="qcurve"/>
      <point x="446.579" y="1010.56"/>
      <point x="432.767" y="1010.56" type="qcurve"/>
      <point x="428.163" y="1010.56"/>
      <point x="393.634" y="1012.86"/>
      <point x="368.312" y="1015.16" type="qcurve"/>
      <point x="368.312" y="1072.71" type="line"/>
    </contour>
    <contour>
      <point x="619.225" y="711.303" type="line"/>
      <point x="722.813" y="711.303"/>
      <point x="849.42" y="780.362"/>
      <point x="849.42" y="870.138" type="qcurve"/>
      <point x="849.42" y="923.083"/>
      <point x="807.985" y="982.934"/>
      <point x="748.134" y="1010.56"/>
      <point x="683.68" y="1017.46"/>
      <point x="660.66" y="1017.46" type="qcurve"/>
      <point x="596.206" y="1017.46"/>
      <point x="566.28" y="1003.65"/>
      <point x="566.28" y="969.122" type="qcurve"/>
      <point x="566.28" y="711.303" type="line"/>
    </contour>
    <contour>
      <point x="690.586" y="1335.13" type="qcurve"/>
      <point x="828.703" y="1335.13"/>
      <point x="1070.41" y="1231.54"/>
      <point x="1252.26" y="1051.99"/>
      <point x="1358.15" y="807.985"/>
      <point x="1358.15" y="667.566" type="qcurve"/>
      <point x="1358.15" y="529.449"/>
      <point x="1252.26" y="287.744"/>
      <point x="1072.71" y="105.89"/>
      <point x="828.703" y="0"/>
      <point x="690.586" y="0" type="qcurve"/>
      <point x="552.468" y="0"/>
      <point x="308.462" y="105.89"/>
      <point x="128.909" y="287.744"/>
      <point x="23.0195" y="529.449"/>
      <point x="23.0195" y="667.566" type="qcurve"/>
      <point x="23.0195" y="807.985"/>
      <point x="128.909" y="1051.99"/>
      <point x="310.764" y="1231.54"/>
      <point x="554.77" y="1335.13"/>
    </contour>
    <contour>
      <point x="690.586" y="1247.66" type="qcurve"/>
      <point x="570.884" y="1247.66"/>
      <point x="361.406" y="1157.88"/>
      <point x="202.572" y="999.047"/>
      <point x="110.494" y="787.268"/>
      <point x="110.494" y="667.566" type="qcurve"/>
      <point x="110.494" y="547.865"/>
      <point x="200.27" y="338.387"/>
      <point x="359.105" y="179.552"/>
      <point x="568.582" y="87.4742"/>
      <point x="690.586" y="87.4742" type="qcurve"/>
      <point x="810.287" y="87.4742"/>
      <point x="1022.07" y="179.552"/>
      <point x="1180.9" y="338.387"/>
      <point x="1270.68" y="547.865"/>
      <point x="1270.68" y="667.566" type="qcurve"/>
      <point x="1270.68" y="789.57"/>
      <point x="1178.6" y="1001.35"/>
      <point x="1019.76" y="1157.88"/>
      <point x="807.985" y="1247.66"/>
    </contour>
  </outline>
</glyph>
<glyph name="twosuperior" format="2">
  <advance width="1381"/>
  <unicode hex="00B2"/>
  <outline>
    <contour>
      <point x="934.593" y="570.884" type="line"/>
      <point x="384.426" y="570.884" type="line"/>
      <point x="384.426" y="660.66" type="line"/>
      <point x="405.144" y="679.076" type="line"/>
      <point x="428.163" y="699.793"/>
      <point x="497.222" y="761.946"/>
      <point x="570.884" y="828.703"/>
      <point x="639.943" y="890.855"/>
      <point x="662.962" y="911.573" type="qcurve"/>
      <point x="720.511" y="964.518"/>
      <point x="791.871" y="1035.88"/>
      <point x="826.401" y="1091.13"/>
      <point x="837.911" y="1139.47"/>
      <point x="837.911" y="1171.69" type="qcurve"/>
      <point x="837.911" y="1240.75"/>
      <point x="736.625" y="1337.43"/>
      <point x="665.264" y="1337.43" type="qcurve"/>
      <point x="600.809" y="1337.43"/>
      <point x="508.731" y="1268.38"/>
      <point x="506.429" y="1222.34" type="qcurve"/>
      <point x="508.731" y="1194.71" type="line"/>
      <point x="412.049" y="1194.71" type="line"/>
      <point x="412.049" y="1302.9" type="line"/>
      <point x="511.033" y="1429.51"/>
      <point x="667.566" y="1429.51" type="qcurve"/>
      <point x="722.813" y="1429.51"/>
      <point x="821.797" y="1388.08"/>
      <point x="895.459" y="1319.02"/>
      <point x="936.894" y="1224.64"/>
      <point x="936.894" y="1169.39" type="qcurve"/>
      <point x="936.894" y="1125.65"/>
      <point x="913.875" y="1054.29"/>
      <point x="858.628" y="973.726"/>
      <point x="759.644" y="877.044"/>
      <point x="683.68" y="807.985" type="qcurve"/>
      <point x="524.845" y="662.962" type="line"/>
      <point x="844.816" y="662.962" type="line"/>
      <point x="844.816" y="794.173" type="line"/>
      <point x="934.593" y="794.173" type="line"/>
    </contour>
  </outline>
</glyph>
<glyph name="acute" format="2">
  <advance width="1381"/>
  <unicode hex="00B4"/>
  <outline>
    <contour>
      <point x="494.92" y="1157.88" type="line"/>
      <point x="699.793" y="1422.61" type="line"/>
      <point x="946.102" y="1422.61" type="line"/>
      <point x="616.923" y="1157.88" type="line"/>
    </contour>
  </outline>
</glyph>
<glyph name="mu" format="2">
  <advance width="1381"/>
  <unicode hex="00B5"/>
  <outline>
    <contour>
      <point x="386.728" y="448.881" type="line"/>
      <point x="386.728" y="393.634"/>
      <point x="391.332" y="315.367"/>
      <point x="402.842" y="257.819"/>
      <point x="423.559" y="216.383"/>
      <point x="439.673" y="195.666" type="qcurve"/>
      <point x="483.41" y="138.117"/>
      <point x="612.319" y="82.8703"/>
      <point x="676.774" y="82.8703" type="qcurve"/>
      <point x="741.229" y="82.8703"/>
      <point x="883.95" y="138.117"/>
      <point x="923.083" y="188.76" type="qcurve"/>
      <point x="943.8" y="216.383"/>
      <point x="969.122" y="269.328"/>
      <point x="982.934" y="329.179"/>
      <point x="987.537" y="402.842"/>
      <point x="987.537" y="448.881" type="qcurve"/>
      <point x="987.537" y="893.157" type="line"/>
      <point x="798.777" y="893.157" type="line"/>
      <point x="798.777" y="989.839" type="line"/>
      <point x="1102.64" y="989.839" type="line"/>
      <point x="1102.64" y="94.38" type="line"/>
      <point x="1293.7" y="94.38" type="line"/>
      <point x="1293.7" y="0" type="line"/>
      <point x="989.839" y="0" type="line"/>
      <point x="989.839" y="122.003" type="line"/>
      <point x="985.235" y="122.003" type="line"/>
      <point x="966.82" y="94.38" type="line"/>
      <point x="923.083" y="34.5293"/>
      <point x="761.946" y="-32.2273"/>
      <point x="681.378" y="-32.2273" type="qcurve"/>
      <point x="639.943" y="-32.2273"/>
      <point x="561.676" y="-11.5098"/>
      <point x="494.92" y="16.1137"/>
      <point x="448.881" y="46.039"/>
      <point x="439.673" y="57.5488" type="qcurve"/>
      <point x="418.955" y="78.2664"/>
      <point x="405.144" y="92.0781"/>
      <point x="384.426" y="108.192" type="qcurve"/>
      <point x="384.426" y="-342.991" type="line"/>
      <point x="271.63" y="-342.991" type="line"/>
      <point x="271.63" y="893.157" type="line"/>
      <point x="82.8703" y="893.157" type="line"/>
      <point x="82.8703" y="989.839" type="line"/>
      <point x="386.728" y="989.839" type="line"/>
    </contour>
  </outline>
</glyph>
<glyph name="middot" format="2">
  <advance width="1381"/>
  <unicode hex="00B7"/>
  <outline>
    <contour>
      <point x="690.586" y="854.024" type="qcurve"/>
      <point x="725.115" y="854.024"/>
      <point x="787.268" y="831.005"/>
      <point x="837.911" y="789.57"/>
      <point x="867.836" y="732.021"/>
      <point x="867.836" y="697.491" type="qcurve"/>
      <point x="867.836" y="660.66"/>
      <point x="835.609" y="603.111"/>
      <point x="784.966" y="561.676"/>
      <point x="720.511" y="540.959"/>
      <point x="690.586" y="540.959" type="qcurve"/>
      <point x="660.66" y="540.959"/>
      <point x="598.508" y="561.676"/>
      <point x="545.563" y="600.809"/>
      <point x="513.335" y="658.358"/>
      <point x="513.335" y="697.491" type="qcurve"/>
      <point x="513.335" y="734.323"/>
      <point x="545.563" y="791.871"/>
      <point x="596.206" y="833.307"/>
      <point x="658.358" y="854.024"/>
    </contour>
  </outline>
</glyph>
<glyph name="cedilla" format="2">
  <advance width="1381"/>
  <unicode hex="00B8"/>
  <outline>
    <contour>
      <point x="741.229" y="-57.5488" type="line"/>
      <point x="798.777" y="-66.7566"/>
      <point x="863.232" y="-108.192"/>
      <point x="895.459" y="-154.231"/>
      <point x="902.365" y="-193.364"/>
      <point x="902.365" y="-200.27" type="qcurve"/>
      <point x="902.365" y="-211.78"/>
      <point x="893.157" y="-255.517"/>
      <point x="858.628" y="-299.254"/>
      <point x="782.664" y="-333.783"/>
      <point x="718.209" y="-333.783" type="qcurve"/>
      <point x="633.037" y="-333.783"/>
      <point x="497.222" y="-306.16"/>
      <point x="464.994" y="-299.254" type="qcurve"/>
      <point x="481.108" y="-197.968" type="line"/>
      <point x="517.939" y="-207.176"/>
      <point x="642.245" y="-230.195"/>
      <point x="715.907" y="-230.195" type="qcurve"/>
      <point x="736.625" y="-230.195" type="line"/>
      <point x="755.04" y="-230.195"/>
      <point x="794.173" y="-216.383"/>
      <point x="794.173" y="-200.27" type="qcurve"/>
      <point x="794.173" y="-168.042"/>
      <point x="695.19" y="-147.325"/>
      <point x="628.433" y="-142.721" type="qcurve"/>
      <point x="644.547" y="-4.6039" type="line"/>
      <point x="748.134" y="-4.6039" type="line"/>
    </contour>
  </outline>
</glyph>
<glyph name="onesuperior" format="2">
  <advance width="600"/>
  <unicode hex="00B9"/>
  <outline>
    <contour>
      <point x="326" y="621" type="line"/>
      <point x="326" y="288" type="line"/>
      <point x="426" y="288" type="line"/>
      <point x="426" y="248" type="line"/>
      <point x="183" y="248" type="line"/>
      <point x="183" y="288" type="line"/>
      <point x="285" y="288" type="line"/>
      <point x="285" y="571" type="line"/>
      <point x="194" y="531" type="line"/>
      <point x="178" y="567" type="line"/>
      <point x="300" y="621" type="line"/>
    </contour>
  </outline>
</glyph>
<glyph name="guillemotright" format="2">
  <advance width="1227"/>
  <unicode hex="00BB"/>
  <outline>
    <contour>
      <point x="363.708" y="115.098" type="line"/>
      <point x="115.098" y="115.098" type="line"/>
      <point x="428.163" y="619.225" type="line"/>
      <point x="115.098" y="1121.05" type="line"/>
      <point x="363.708" y="1121.05" type="line"/>
      <point x="676.774" y="619.225" type="line"/>
    </contour>
    <contour>
      <point x="801.079" y="115.098" type="line"/>
      <point x="552.468" y="115.098" type="line"/>
      <point x="860.93" y="619.225" type="line"/>
      <point x="552.468" y="1121.05" type="line"/>
      <point x="801.079" y="1121.05" type="line"/>
      <point x="1111.84" y="619.225" type="line"/>
    </contour>
  </outline>
</glyph>
<glyph name="Agrave" format="2">
  <advance width="600"/>
  <unicode hex="00C0"/>
  <outline>
    <contour>
      <point x="539" y="47" type="line"/>
      <point x="590" y="47" type="line"/>
      <point x="590" y="0" type="line"/>
      <point x="385" y="0" type="line"/>
      <point x="385" y="47" type="line"/>
      <point x="487" y="47" type="line"/>
      <point x="430" y="186" type="line"/>
      <point x="169" y="186" type="line"/>
      <point x="113" y="47" type="line"/>
      <point x="215" y="47" type="line"/>
      <point x="215" y="0" type="line"/>
      <point x="10" y="0" type="line"/>
      <point x="10" y="47" type="line"/>
      <point x="63" y="47" type="line"/>
      <point x="256" y="516" type="line"/>
      <point x="113" y="516" type="line"/>
      <point x="113" y="563" type="line"/>
      <point x="328" y="563" type="line"/>
    </contour>
    <contour>
      <point x="187" y="230" type="line"/>
      <point x="413" y="230" type="line"/>
      <point x="300" y="504" type="line"/>
    </contour>
    <contour>
      <point x="374" y="636" type="line"/>
      <point x="322" y="636" type="line"/>
      <point x="190" y="751" type="line"/>
      <point x="297" y="751" type="line"/>
    </contour>
  </outline>
</glyph>
<glyph name="Acircumflex" format="2">
  <advance width="1381"/>
  <unicode hex="00C2"/>
  <outline>
    <contour>
      <point x="1240.75" y="108.192" type="line"/>
      <point x="1358.15" y="108.192" type="line"/>
      <point x="1358.15" y="0" type="line"/>
      <point x="886.252" y="0" type="line"/>
      <point x="886.252" y="108.192" type="line"/>
      <point x="1121.05" y="108.192" type="line"/>
      <point x="989.839" y="428.163" type="line"/>
      <point x="389.03" y="428.163" type="line"/>
      <point x="260.121" y="108.192" type="line"/>
      <point x="494.92" y="108.192" type="line"/>
      <point x="494.92" y="0" type="line"/>
      <point x="23.0195" y="0" type="line"/>
      <point x="23.0195" y="108.192" type="line"/>
      <point x="145.023" y="108.192" type="line"/>
      <point x="589.3" y="1187.81" type="line"/>
      <point x="260.121" y="1187.81" type="line"/>
      <point x="260.121" y="1296" type="line"/>
      <point x="755.04" y="1296" type="line"/>
    </contour>
    <contour>
      <point x="430.465" y="529.449" type="line"/>
      <point x="950.706" y="529.449" type="line"/>
      <point x="690.586" y="1160.18" type="line"/>
    </contour>
    <contour>
      <point x="985.235" y="1519.29" type="line"/>
      <point x="911.573" y="1461.74" type="line"/>
      <point x="679.076" y="1613.67" type="line"/>
      <point x="469.598" y="1461.74" type="line"/>
      <point x="393.634" y="1516.99" type="line"/>
      <point x="596.206" y="1735.67" type="line"/>
      <point x="773.456" y="1735.67" type="line"/>
    </contour>
  </outline>
</glyph>
<glyph name="Atilde" format="2">
  <advance width="1381"/>
  <unicode hex="00C3"/>
  <outline>
    <contour>
      <point x="1240.75" y="108.192" type="line"/>
      <point x="1358.15" y="108.192" type="line"/>
      <point x="1358.15" y="0" type="line"/>
      <point x="886.252" y="0" type="line"/>
      <point x="886.252" y="108.192" type="line"/>
      <point x="1121.05" y="108.192" type="line"/>
      <point x="989.839" y="428.163" type="line"/>
      <point x="389.03" y="428.163" type="line"/>
      <point x="260.121" y="108.192" type="line"/>
      <point x="494.92" y="108.192" type="line"/>
      <point x="494.92" y="0" type="line"/>
      <point x="23.0195" y="0" type="line"/>
      <point x="23.0195" y="108.192" type="line"/>
      <point x="145.023" y="108.192" type="line"/>
      <point x="589.3" y="1187.81" type="line"/>
      <point x="260.121" y="1187.81" type="line"/>
      <point x="260.121" y="1296" type="line"/>
      <point x="755.04" y="1296" type="line"/>
    </contour>
    <contour>
      <point x="430.465" y="529.449" type="line"/>
      <point x="950.706" y="529.449" type="line"/>
      <point x="690.586" y="1160.18" type="line"/>
    </contour>
    <contour>
      <point x="1058.9" y="1701.14" type="line"/>
      <point x="1054.29" y="1696.54"/>
      <point x="1054.29" y="1685.03" type="qcurve"/>
      <point x="1026.67" y="1588.35"/>
      <point x="902.365" y="1489.36"/>
      <point x="828.703" y="1489.36" type="qcurve"/>
      <point x="789.57" y="1489.36"/>
      <point x="718.209" y="1521.59"/>
      <point x="665.264" y="1563.03" type="qcurve"/>
      <point x="610.017" y="1604.46"/>
      <point x="563.978" y="1629.78"/>
      <point x="538.657" y="1629.78" type="qcurve"/>
      <point x="492.618" y="1629.78"/>
      <point x="437.371" y="1556.12"/>
      <point x="418.955" y="1510.08" type="qcurve"/>
      <point x="418.955" y="1507.78"/>
      <point x="416.653" y="1500.87" type="qcurve"/>
      <point x="414.351" y="1496.27" type="line"/>
      <point x="322.273" y="1528.5" type="line"/>
      <point x="354.501" y="1615.97"/>
      <point x="453.485" y="1733.37"/>
      <point x="538.657" y="1733.37" type="qcurve"/>
      <point x="593.904" y="1733.37"/>
      <point x="672.17" y="1687.33"/>
      <point x="709.001" y="1655.1" type="qcurve"/>
      <point x="752.738" y="1622.88"/>
      <point x="810.287" y="1592.95"/>
      <point x="835.609" y="1592.95" type="qcurve"/>
      <point x="865.534" y="1592.95"/>
      <point x="909.271" y="1622.88"/>
      <point x="939.196" y="1666.61"/>
      <point x="959.914" y="1712.65"/>
      <point x="966.82" y="1731.07" type="qcurve"/>
    </contour>
  </outline>
</glyph>
<glyph name="Aring" format="2">
  <advance width="600"/>
  <unicode hex="00C5"/>
  <outline>
    <contour>
      <point x="539" y="47" type="line"/>
      <point x="590" y="47" type="line"/>
      <point x="590" y="0" type="line"/>
      <point x="385" y="0" type="line"/>
      <point x="385" y="47" type="line"/>
      <point x="487" y="47" type="line"/>
      <point x="430" y="186" type="line"/>
      <point x="169" y="186" type="line"/>
      <point x="113" y="47" type="line"/>
      <point x="215" y="47" type="line"/>
      <point x="215" y="0" type="line"/>
      <point x="10" y="0" type="line"/>
      <point x="10" y="47" type="line"/>
      <point x="63" y="47" type="line"/>
      <point x="256" y="516" type="line"/>
      <point x="113" y="516" type="line"/>
      <point x="113" y="563" type="line"/>
      <point x="328" y="563" type="line"/>
    </contour>
    <contour>
      <point x="187" y="230" type="line"/>
      <point x="413" y="230" type="line"/>
      <point x="300" y="504" type="line"/>
    </contour>
    <contour>
      <point x="300" y="775" type="qcurve"/>
      <point x="332" y="775"/>
      <point x="376" y="731"/>
      <point x="376" y="699" type="qcurve"/>
      <point x="376" y="667"/>
      <point x="332" y="623"/>
      <point x="300" y="623" type="qcurve"/>
      <point x="268" y="623"/>
      <point x="224" y="667"/>
      <point x="224" y="699" type="qcurve"/>
      <point x="224" y="731"/>
      <point x="268" y="775"/>
    </contour>
    <contour>
      <point x="301" y="737" type="qcurve"/>
      <point x="285" y="737"/>
      <point x="262" y="717"/>
      <point x="262" y="699" type="qcurve"/>
      <point x="262" y="683"/>
      <point x="285" y="661"/>
      <point x="301" y="661" type="qcurve"/>
      <point x="317" y="661"/>
      <point x="338" y="683"/>
      <point x="338" y="699" type="qcurve"/>
      <point x="338" y="715"/>
      <point x="317" y="737"/>
    </contour>
  </outline>
</glyph>
<glyph name="Ccedilla" format="2">
  <advance width="1381"/>
  <unicode hex="00C7"/>
  <outline>
    <contour>
      <point x="814.891" y="-57.5488" type="line"/>
      <point x="837.911" y="-57.5488"/>
      <point x="893.157" y="-75.9644"/>
      <point x="941.498" y="-112.796"/>
      <point x="976.028" y="-165.741"/>
      <point x="976.028" y="-200.27" type="qcurve"/>
      <point x="976.028" y="-209.478"/>
      <point x="966.82" y="-253.215"/>
      <point x="932.291" y="-299.254"/>
      <point x="856.326" y="-333.783"/>
      <point x="791.871" y="-333.783" type="qcurve"/>
      <point x="706.699" y="-333.783"/>
      <point x="570.884" y="-306.16"/>
      <point x="538.657" y="-299.254" type="qcurve"/>
      <point x="554.77" y="-197.968" type="line"/>
      <point x="600.809" y="-209.478"/>
      <point x="715.907" y="-230.195"/>
      <point x="794.173" y="-230.195" type="qcurve"/>
      <point x="810.287" y="-230.195" type="line"/>
      <point x="828.703" y="-230.195"/>
      <point x="867.836" y="-216.383"/>
      <point x="867.836" y="-200.27" type="qcurve"/>
      <point x="867.836" y="-168.042"/>
      <point x="768.852" y="-147.325"/>
      <point x="702.095" y="-142.721" type="qcurve"/>
      <point x="715.907" y="-39.1332" type="line"/>
      <point x="552.468" y="-23.0195"/>
      <point x="333.783" y="124.305"/>
      <point x="202.572" y="329.179"/>
      <point x="147.325" y="561.676"/>
      <point x="147.325" y="662.962" type="qcurve"/>
      <point x="147.325" y="812.589"/>
      <point x="241.705" y="1061.2"/>
      <point x="407.446" y="1238.45"/>
      <point x="633.037" y="1335.13"/>
      <point x="764.248" y="1335.13" type="qcurve"/>
      <point x="801.079" y="1335.13"/>
      <point x="943.8" y="1314.41"/>
      <point x="1017.46" y="1268.38" type="qcurve"/>
      <point x="1022.07" y="1263.77"/>
      <point x="1045.09" y="1245.36"/>
      <point x="1070.41" y="1224.64"/>
      <point x="1093.43" y="1210.83"/>
      <point x="1098.03" y="1210.83" type="qcurve"/>
      <point x="1104.94" y="1210.83"/>
      <point x="1116.45" y="1233.85"/>
      <point x="1123.35" y="1268.38"/>
      <point x="1130.26" y="1305.21"/>
      <point x="1132.56" y="1321.32" type="qcurve"/>
      <point x="1217.73" y="1321.32" type="line"/>
      <point x="1213.13" y="1176.3"/>
      <point x="1229.24" y="973.726"/>
      <point x="1240.75" y="881.648" type="qcurve"/>
      <point x="1132.56" y="863.232" type="line"/>
      <point x="1125.65" y="902.365"/>
      <point x="1095.73" y="1024.37"/>
      <point x="1019.76" y="1137.16"/>
      <point x="879.346" y="1220.03"/>
      <point x="759.644" y="1220.03" type="qcurve"/>
      <point x="672.17" y="1220.03"/>
      <point x="499.524" y="1153.28"/>
      <point x="359.105" y="1017.46"/>
      <point x="271.63" y="807.985"/>
      <point x="271.63" y="665.264" type="qcurve"/>
      <point x="271.63" y="554.77"/>
      <point x="326.877" y="342.991"/>
      <point x="448.881" y="177.25"/>
      <point x="637.641" y="75.9644"/>
      <point x="768.852" y="75.9644" type="qcurve"/>
      <point x="865.534" y="75.9644"/>
      <point x="1031.27" y="128.909"/>
      <point x="1162.49" y="204.874"/>
      <point x="1259.17" y="285.442"/>
      <point x="1291.4" y="310.764" type="qcurve"/>
      <point x="1367.36" y="227.893" type="line"/>
      <point x="1249.96" y="117.4"/>
      <point x="973.726" y="-25.3215"/>
      <point x="814.891" y="-39.1332" type="qcurve"/>
    </contour>
  </outline>
</glyph>
<glyph name="Egrave" format="2">
  <advance width="1381"/>
  <unicode hex="00C8"/>
  <outline>
    <contour>
      <point x="1233.85" y="872.44" type="line"/>
      <point x="1127.96" y="872.44" type="line"/>
      <point x="1104.94" y="1187.81" type="line"/>
      <point x="441.975" y="1187.81" type="line"/>
      <point x="441.975" y="738.927" type="line"/>
      <point x="814.891" y="738.927" type="line"/>
      <point x="814.891" y="906.969" type="line"/>
      <point x="920.781" y="906.969" type="line"/>
      <point x="920.781" y="464.994" type="line"/>
      <point x="814.891" y="464.994" type="line"/>
      <point x="814.891" y="630.735" type="line"/>
      <point x="441.975" y="630.735" type="line"/>
      <point x="441.975" y="108.192" type="line"/>
      <point x="1127.96" y="108.192" type="line"/>
      <point x="1139.47" y="423.559" type="line"/>
      <point x="1245.36" y="423.559" type="line"/>
      <point x="1245.36" y="0" type="line"/>
      <point x="131.211" y="0" type="line"/>
      <point x="131.211" y="108.192" type="line"/>
      <point x="326.877" y="108.192" type="line"/>
      <point x="326.877" y="1187.81" type="line"/>
      <point x="131.211" y="1187.81" type="line"/>
      <point x="131.211" y="1296" type="line"/>
      <point x="1224.64" y="1296" type="line"/>
    </contour>
    <contour>
      <point x="860.93" y="1464.04" type="line"/>
      <point x="741.229" y="1464.04" type="line"/>
      <point x="437.371" y="1728.77" type="line"/>
      <point x="683.68" y="1728.77" type="line"/>
    </contour>
  </outline>
</glyph>
<glyph name="Ecircumflex" format="2">
  <advance width="1381"/>
  <unicode hex="00CA"/>
  <outline>
    <contour>
      <point x="1233.85" y="872.44" type="line"/>
      <point x="1127.96" y="872.44" type="line"/>
      <point x="1104.94" y="1187.81" type="line"/>
      <point x="441.975" y="1187.81" type="line"/>
      <point x="441.975" y="738.927" type="line"/>
      <point x="814.891" y="738.927" type="line"/>
      <point x="814.891" y="906.969" type="line"/>
      <point x="920.781" y="906.969" type="line"/>
      <point x="920.781" y="464.994" type="line"/>
      <point x="814.891" y="464.994" type="line"/>
      <point x="814.891" y="630.735" type="line"/>
      <point x="441.975" y="630.735" type="line"/>
      <point x="441.975" y="108.192" type="line"/>
      <point x="1127.96" y="108.192" type="line"/>
      <point x="1139.47" y="423.559" type="line"/>
      <point x="1245.36" y="423.559" type="line"/>
      <point x="1245.36" y="0" type="line"/>
      <point x="131.211" y="0" type="line"/>
      <point x="131.211" y="108.192" type="line"/>
      <point x="326.877" y="108.192" type="line"/>
      <point x="326.877" y="1187.81" type="line"/>
      <point x="131.211" y="1187.81" type="line"/>
      <point x="131.211" y="1296" type="line"/>
      <point x="1224.64" y="1296" type="line"/>
    </contour>
    <contour>
      <point x="985.235" y="1519.29" type="line"/>
      <point x="911.573" y="1461.74" type="line"/>
      <point x="679.076" y="1613.67" type="line"/>
      <point x="469.598" y="1461.74" type="line"/>
      <point x="393.634" y="1516.99" type="line"/>
      <point x="596.206" y="1735.67" type="line"/>
      <point x="773.456" y="1735.67" type="line"/>
    </contour>
  </outline>
</glyph>
<glyph name="Igrave" format="2">
  <advance width="1381"/>
  <unicode hex="00CC"/>
  <outline>
    <contour>
      <point x="1150.98" y="1187.81" type="line"/>
      <point x="748.134" y="1187.81" type="line"/>
      <point x="748.134" y="108.192" type="line"/>
      <point x="1150.98" y="108.192" type="line"/>
      <point x="1150.98" y="0" type="line"/>
      <point x="230.195" y="0" type="line"/>
      <point x="230.195" y="108.192" type="line"/>
      <point x="633.037" y="108.192" type="line"/>
      <point x="633.037" y="1187.81" type="line"/>
      <point x="230.195" y="1187.81" type="line"/>
      <point x="230.195" y="1296" type="line"/>
      <point x="1150.98" y="1296" type="line"/>
    </contour>
    <contour>
      <point x="860.93" y="1464.04" type="line"/>
      <point x="741.229" y="1464.04" type="line"/>
      <point x="437.371" y="1728.77" type="line"/>
      <point x="683.68" y="1728.77" type="line"/>
    </contour>
  </outline>
</glyph>
<glyph name="Icircumflex" format="2">
  <advance width="1381"/>
  <unicode hex="00CE"/>
  <outline>
    <contour>
      <point x="1150.98" y="1187.81" type="line"/>
      <point x="748.134" y="1187.81" type="line"/>
      <point x="748.134" y="108.192" type="line"/>
      <point x="1150.98" y="108.192" type="line"/>
      <point x="1150.98" y="0" type="line"/>
      <point x="230.195" y="0" type="line"/>
      <point x="230.195" y="108.192" type="line"/>
      <point x="633.037" y="108.192" type="line"/>
      <point x="633.037" y="1187.81" type="line"/>
      <point x="230.195" y="1187.81" type="line"/>
      <point x="230.195" y="1296" type="line"/>
      <point x="1150.98" y="1296" type="line"/>
    </contour>
    <contour>
      <point x="985.235" y="1519.29" type="line"/>
      <point x="911.573" y="1461.74" type="line"/>
      <point x="679.076" y="1613.67" type="line"/>
      <point x="469.598" y="1461.74" type="line"/>
      <point x="393.634" y="1516.99" type="line"/>
      <point x="596.206" y="1735.67" type="line"/>
      <point x="773.456" y="1735.67" type="line"/>
    </contour>
  </outline>
</glyph>
<glyph name="Idieresis" format="2">
  <advance width="1381"/>
  <unicode hex="00CF"/>
  <outline>
    <contour>
      <point x="1150.98" y="1187.81" type="line"/>
      <point x="748.134" y="1187.81" type="line"/>
      <point x="748.134" y="108.192" type="line"/>
      <point x="1150.98" y="108.192" type="line"/>
      <point x="1150.98" y="0" type="line"/>
      <point x="230.195" y="0" type="line"/>
      <point x="230.195" y="108.192" type="line"/>
      <point x="633.037" y="108.192" type="line"/>
      <point x="633.037" y="1187.81" type="line"/>
      <point x="230.195" y="1187.81" type="line"/>
      <point x="230.195" y="1296" type="line"/>
      <point x="1150.98" y="1296" type="line"/>
    </contour>
    <contour>
      <point x="623.829" y="1735.67" type="line"/>
      <point x="623.829" y="1487.06" type="line"/>
      <point x="458.088" y="1487.06" type="line"/>
      <point x="458.088" y="1735.67" type="line"/>
    </contour>
    <contour>
      <point x="923.083" y="1735.67" type="line"/>
      <point x="923.083" y="1487.06" type="line"/>
      <point x="757.342" y="1487.06" type="line"/>
      <point x="757.342" y="1735.67" type="line"/>
    </contour>
  </outline>
</glyph>
<glyph name="Ntilde" format="2">
  <advance width="600"/>
  <unicode hex="00D1"/>
  <outline>
    <contour>
      <point x="462" y="42" type="line"/>
      <point x="480" y="42" type="line"/>
      <point x="480" y="516" type="line"/>
      <point x="368" y="516" type="line"/>
      <point x="368" y="563" type="line"/>
      <point x="591" y="563" type="line"/>
      <point x="591" y="516" type="line"/>
      <point x="526" y="516" type="line"/>
      <point x="526" y="-13" type="line"/>
      <point x="437" y="-13" type="line"/>
      <point x="169" y="516" type="line"/>
      <point x="152" y="516" type="line"/>
      <point x="152" y="47" type="line"/>
      <point x="265" y="47" type="line"/>
      <point x="265" y="0" type="line"/>
      <point x="28" y="0" type="line"/>
      <point x="28" y="47" type="line"/>
      <point x="106" y="47" type="line"/>
      <point x="106" y="516" type="line"/>
      <point x="28" y="516" type="line"/>
      <point x="28" y="563" type="line"/>
      <point x="199" y="563" type="line"/>
    </contour>
    <contour>
      <point x="460" y="739" type="line"/>
      <point x="458" y="737"/>
      <point x="458" y="732" type="qcurve"/>
      <point x="446" y="690"/>
      <point x="392" y="647"/>
      <point x="360" y="647" type="qcurve"/>
      <point x="343" y="647"/>
      <point x="312" y="661"/>
      <point x="289" y="679" type="qcurve"/>
      <point x="265" y="697"/>
      <point x="245" y="708"/>
      <point x="234" y="708" type="qcurve"/>
      <point x="214" y="708"/>
      <point x="190" y="676"/>
      <point x="182" y="656" type="qcurve"/>
      <point x="182" y="655"/>
      <point x="181" y="652" type="qcurve"/>
      <point x="180" y="650" type="line"/>
      <point x="140" y="664" type="line"/>
      <point x="154" y="702"/>
      <point x="197" y="753"/>
      <point x="234" y="753" type="qcurve"/>
      <point x="258" y="753"/>
      <point x="292" y="733"/>
      <point x="308" y="719" type="qcurve"/>
      <point x="327" y="705"/>
      <point x="352" y="692"/>
      <point x="363" y="692" type="qcurve"/>
      <point x="376" y="692"/>
      <point x="395" y="705"/>
      <point x="408" y="724"/>
      <point x="417" y="744"/>
      <point x="420" y="752" type="qcurve"/>
    </contour>
  </outline>
</glyph>
<glyph name="Otilde" format="2">
  <advance width="1381"/>
  <unicode hex="00D5"/>
  <outline>
    <contour>
      <point x="98.9839" y="646.849" type="qcurve"/>
      <point x="98.9839" y="789.57"/>
      <point x="181.854" y="1040.48"/>
      <point x="336.085" y="1226.94"/>
      <point x="554.77" y="1335.13"/>
      <point x="690.586" y="1335.13" type="qcurve"/>
      <point x="828.703" y="1335.13"/>
      <point x="1047.39" y="1224.64"/>
      <point x="1201.62" y="1035.88"/>
      <point x="1282.19" y="787.268"/>
      <point x="1282.19" y="646.849" type="qcurve"/>
      <point x="1282.19" y="508.731"/>
      <point x="1199.32" y="257.819"/>
      <point x="1047.39" y="71.3605"/>
      <point x="828.703" y="-39.1332"/>
      <point x="690.586" y="-39.1332" type="qcurve"/>
      <point x="554.77" y="-39.1332"/>
      <point x="336.085" y="69.0586"/>
      <point x="181.854" y="255.517"/>
      <point x="98.9839" y="504.127"/>
    </contour>
    <contour>
      <point x="223.289" y="649.15" type="qcurve"/>
      <point x="223.289" y="545.563"/>
      <point x="283.14" y="340.689"/>
      <point x="400.54" y="177.25"/>
      <point x="575.488" y="75.9644"/>
      <point x="690.586" y="75.9644" type="qcurve"/>
      <point x="803.381" y="75.9644"/>
      <point x="978.33" y="174.948"/>
      <point x="1098.03" y="336.085"/>
      <point x="1157.88" y="540.959"/>
      <point x="1157.88" y="649.15" type="qcurve"/>
      <point x="1157.88" y="757.342"/>
      <point x="1095.73" y="964.518"/>
      <point x="976.028" y="1123.35"/>
      <point x="803.381" y="1220.03"/>
      <point x="690.586" y="1220.03" type="qcurve"/>
      <point x="570.884" y="1220.03"/>
      <point x="395.936" y="1116.45"/>
      <point x="280.838" y="953.008"/>
      <point x="223.289" y="748.134"/>
    </contour>
    <contour>
      <point x="1058.9" y="1701.14" type="line"/>
      <point x="1054.29" y="1696.54"/>
      <point x="1054.29" y="1685.03" type="qcurve"/>
      <point x="1026.67" y="1588.35"/>
      <point x="902.365" y="1489.36"/>
      <point x="828.703" y="1489.36" type="qcurve"/>
      <point x="789.57" y="1489.36"/>
      <point x="718.209" y="1521.59"/>
      <point x="665.264" y="1563.03" type="qcurve"/>
      <point x="610.017" y="1604.46"/>
      <point x="563.978" y="1629.78"/>
      <point x="538.657" y="1629.78" type="qcurve"/>
      <point x="492.618" y="1629.78"/>
      <point x="437.371" y="1556.12"/>
      <point x="418.955" y="1510.08" type="qcurve"/>
      <point x="418.955" y="1507.78"/>
      <point x="416.653" y="1500.87" type="qcurve"/>
      <point x="414.351" y="1496.27" type="line"/>
      <point x="322.273" y="1528.5" type="line"/>
      <point x="354.501" y="1615.97"/>
      <point x="453.485" y="1733.37"/>
      <point x="538.657" y="1733.37" type="qcurve"/>
      <point x="593.904" y="1733.37"/>
      <point x="672.17" y="1687.33"/>
      <point x="709.001" y="1655.1" type="qcurve"/>
      <point x="752.738" y="1622.88"/>
      <point x="810.287" y="1592.95"/>
      <point x="835.609" y="1592.95" type="qcurve"/>
      <point x="865.534" y="1592.95"/>
      <point x="909.271" y="1622.88"/>
      <point x="939.196" y="1666.61"/>
      <point x="959.914" y="1712.65"/>
      <point x="966.82" y="1731.07" type="qcurve"/>
    </contour>
  </outline>
</glyph>
<glyph name="Odieresis" format="2">
  <advance width="1381"/>
  <unicode hex="00D6"/>
  <outline>
    <contour>
      <point x="98.9839" y="646.849" type="qcurve"/>
      <point x="98.9839" y="789.57"/>
      <point x="181.854" y="1040.48"/>
      <point x="336.085" y="1226.94"/>
      <point x="554.77" y="1335.13"/>
      <point x="690.586" y="1335.13" type="qcurve"/>
      <point x="828.703" y="1335.13"/>
      <point x="1047.39" y="1224.64"/>
      <point x="1201.62" y="1035.88"/>
      <point x="1282.19" y="787.268"/>
      <point x="1282.19" y="646.849" type="qcurve"/>
      <point x="1282.19" y="508.731"/>
      <point x="1199.32" y="257.819"/>
      <point x="1047.39" y="71.3605"/>
      <point x="828.703" y="-39.1332"/>
      <point x="690.586" y="-39.1332" type="qcurve"/>
      <point x="554.77" y="-39.1332"/>
      <point x="336.085" y="69.0586"/>
      <point x="181.854" y="255.517"/>
      <point x="98.9839" y="504.127"/>
    </contour>
    <contour>
      <point x="223.289" y="649.15" type="qcurve"/>
      <point x="223.289" y="545.563"/>
      <point x="283.14" y="340.689"/>
      <point x="400.54" y="177.25"/>
      <point x="575.488" y="75.9644"/>
      <point x="690.586" y="75.9644" type="qcurve"/>
      <point x="803.381" y="75.9644"/>
      <point x="978.33" y="174.948"/>
      <point x="1098.03" y="336.085"/>
      <point x="1157.88" y="540.959"/>
      <point x="1157.88" y="649.15" type="qcurve"/>
      <point x="1157.88" y="757.342"/>
      <point x="1095.73" y="964.518"/>
      <point x="976.028" y="1123.35"/>
      <point x="803.381" y="1220.03"/>
      <point x="690.586" y="1220.03" type="qcurve"/>
      <point x="570.884" y="1220.03"/>
      <point x="395.936" y="1116.45"/>
      <point x="280.838" y="953.008"/>
      <point x="223.289" y="748.134"/>
    </contour>
    <contour>
      <point x="623.829" y="1735.67" type="line"/>
      <point x="623.829" y="1487.06" type="line"/>
      <point x="458.088" y="1487.06" type="line"/>
      <point x="458.088" y="1735.67" type="line"/>
    </contour>
    <contour>
      <point x="923.083" y="1735.67" type="line"/>
      <point x="923.083" y="1487.06" type="line"/>
      <point x="757.342" y="1487.06" type="line"/>
      <point x="757.342" y="1735.67" type="line"/>
    </contour>
  </outline>
</glyph>
<glyph name="Oslash" format="2">
  <advance width="1381"/>
  <unicode hex="00D8"/>
  <outline>
    <contour>
      <point x="147.325" y="9.20781" type="line"/>
      <point x="262.423" y="158.835" type="line"/>
      <point x="232.497" y="197.968"/>
      <point x="172.646" y="292.348"/>
      <point x="126.607" y="409.747"/>
      <point x="98.9839" y="554.77"/>
      <point x="98.9839" y="644.547" type="qcurve"/>
      <point x="98.9839" y="787.268"/>
      <point x="181.854" y="1038.18"/>
      <point x="336.085" y="1226.94"/>
      <point x="554.77" y="1335.13"/>
      <point x="692.888" y="1335.13" type="qcurve"/>
      <point x="771.154" y="1335.13"/>
      <point x="888.553" y="1305.21"/>
      <point x="976.028" y="1261.47"/>
      <point x="1040.48" y="1210.83"/>
      <point x="1065.8" y="1192.41" type="qcurve"/>
      <point x="1155.58" y="1305.21" type="line"/>
      <point x="1236.15" y="1245.36" type="line"/>
      <point x="1134.86" y="1116.45" type="line"/>
      <point x="1190.11" y="1049.69"/>
      <point x="1249.96" y="897.761"/>
      <point x="1277.58" y="759.644"/>
      <point x="1282.19" y="658.358"/>
      <point x="1282.19" y="642.245" type="qcurve"/>
      <point x="1282.19" y="506.429"/>
      <point x="1201.62" y="257.819"/>
      <point x="1049.69" y="71.3605"/>
      <point x="833.307" y="-39.1332"/>
      <point x="699.793" y="-39.1332" type="qcurve"/>
      <point x="630.735" y="-39.1332"/>
      <point x="444.277" y="2.30195"/>
      <point x="340.689" y="85.1722" type="qcurve"/>
      <point x="225.591" y="-52.9449" type="line"/>
    </contour>
    <contour>
      <point x="407.446" y="179.552" type="line"/>
      <point x="423.559" y="165.741"/>
      <point x="471.9" y="131.211"/>
      <point x="540.959" y="98.9839"/>
      <point x="630.735" y="75.9644"/>
      <point x="690.586" y="75.9644" type="qcurve"/>
      <point x="796.475" y="75.9644"/>
      <point x="969.122" y="165.741"/>
      <point x="1091.13" y="319.971"/>
      <point x="1157.88" y="527.147"/>
      <point x="1157.88" y="644.547" type="qcurve"/>
      <point x="1157.88" y="844.816"/>
      <point x="1056.6" y="1015.16" type="qcurve"/>
    </contour>
    <contour>
      <point x="992.141" y="1098.03" type="line"/>
      <point x="957.612" y="1137.16"/>
      <point x="877.044" y="1185.51"/>
      <point x="796.475" y="1210.83"/>
      <point x="718.209" y="1220.03"/>
      <point x="688.284" y="1220.03" type="qcurve"/>
      <point x="577.79" y="1220.03"/>
      <point x="405.144" y="1123.35"/>
      <point x="285.442" y="964.518"/>
      <point x="223.289" y="759.644"/>
      <point x="223.289" y="651.452" type="qcurve"/>
      <point x="223.289" y="619.225"/>
      <point x="232.497" y="520.241"/>
      <point x="260.121" y="409.747"/>
      <point x="306.16" y="299.254"/>
      <point x="340.689" y="257.819" type="qcurve"/>
    </contour>
  </outline>
</glyph>
<glyph name="Ugrave" format="2">
  <advance width="1381"/>
  <unicode hex="00D9"/>
  <outline>
    <contour>
      <point x="570.884" y="1187.81" type="line"/>
      <point x="336.085" y="1187.81" type="line"/>
      <point x="336.085" y="538.657" type="line"/>
      <point x="336.085" y="467.296"/>
      <point x="347.595" y="306.16"/>
      <point x="379.822" y="239.403" type="qcurve"/>
      <point x="412.049" y="170.344"/>
      <point x="554.77" y="75.9644"/>
      <point x="688.284" y="75.9644" type="qcurve"/>
      <point x="824.099" y="75.9644"/>
      <point x="969.122" y="156.533"/>
      <point x="1001.35" y="220.987" type="qcurve"/>
      <point x="1035.88" y="283.14"/>
      <point x="1047.39" y="437.371"/>
      <point x="1047.39" y="515.637" type="qcurve"/>
      <point x="1047.39" y="1187.81" type="line"/>
      <point x="812.589" y="1187.81" type="line"/>
      <point x="812.589" y="1296" type="line"/>
      <point x="1328.23" y="1296" type="line"/>
      <point x="1328.23" y="1187.81" type="line"/>
      <point x="1162.49" y="1187.81" type="line"/>
      <point x="1162.49" y="515.637" type="line"/>
      <point x="1162.49" y="428.163"/>
      <point x="1150.98" y="306.16"/>
      <point x="1127.96" y="216.383"/>
      <point x="1098.03" y="154.231"/>
      <point x="1079.62" y="128.909" type="qcurve"/>
      <point x="1061.2" y="101.286"/>
      <point x="992.141" y="43.7371"/>
      <point x="893.157" y="-6.90586"/>
      <point x="766.55" y="-39.1332"/>
      <point x="690.586" y="-39.1332" type="qcurve"/>
      <point x="649.15" y="-39.1332"/>
      <point x="545.563" y="-25.3215"/>
      <point x="439.673" y="16.1137"/>
      <point x="338.387" y="85.1722"/>
      <point x="299.254" y="140.419" type="qcurve"/>
      <point x="269.328" y="181.854"/>
      <point x="237.101" y="287.744"/>
      <point x="223.289" y="395.936"/>
      <point x="220.987" y="499.524"/>
      <point x="220.987" y="538.657" type="qcurve"/>
      <point x="220.987" y="1187.81" type="line"/>
      <point x="55.2468" y="1187.81" type="line"/>
      <point x="55.2468" y="1296" type="line"/>
      <point x="570.884" y="1296" type="line"/>
    </contour>
    <contour>
      <point x="860.93" y="1464.04" type="line"/>
      <point x="741.229" y="1464.04" type="line"/>
      <point x="437.371" y="1728.77" type="line"/>
      <point x="683.68" y="1728.77" type="line"/>
    </contour>
  </outline>
</glyph>
<glyph name="Yacute" format="2">
  <advance width="1381"/>
  <unicode hex="00DD"/>
  <outline>
    <contour>
      <point x="524.845" y="1187.81" type="line"/>
      <point x="349.897" y="1187.81" type="line"/>
      <point x="697.491" y="616.923" type="line"/>
      <point x="1040.48" y="1187.81" type="line"/>
      <point x="860.93" y="1187.81" type="line"/>
      <point x="860.93" y="1296" type="line"/>
      <point x="1307.51" y="1296" type="line"/>
      <point x="1307.51" y="1187.81" type="line"/>
      <point x="1162.49" y="1187.81" type="line"/>
      <point x="750.436" y="501.826" type="line"/>
      <point x="750.436" y="108.192" type="line"/>
      <point x="1022.07" y="108.192" type="line"/>
      <point x="1022.07" y="0" type="line"/>
      <point x="361.406" y="0" type="line"/>
      <point x="361.406" y="108.192" type="line"/>
      <point x="635.339" y="108.192" type="line"/>
      <point x="635.339" y="501.826" type="line"/>
      <point x="218.685" y="1187.81" type="line"/>
      <point x="73.6625" y="1187.81" type="line"/>
      <point x="73.6625" y="1296" type="line"/>
      <point x="524.845" y="1296" type="line"/>
    </contour>
    <contour>
      <point x="494.92" y="1464.04" type="line"/>
      <point x="699.793" y="1728.77" type="line"/>
      <point x="946.102" y="1728.77" type="line"/>
      <point x="616.923" y="1464.04" type="line"/>
    </contour>
  </outline>
</glyph>
<glyph name="germandbls" format="2">
  <advance width="1381"/>
  <unicode hex="00DF"/>
  <outline>
    <contour>
      <point x="324.575" y="1038.18" type="line"/>
      <point x="324.575" y="1130.26"/>
      <point x="386.728" y="1279.89"/>
      <point x="490.316" y="1383.47"/>
      <point x="623.829" y="1438.72"/>
      <point x="697.491" y="1438.72" type="qcurve"/>
      <point x="773.456" y="1438.72"/>
      <point x="895.459" y="1385.78"/>
      <point x="978.33" y="1296"/>
      <point x="1024.37" y="1176.3"/>
      <point x="1024.37" y="1109.54" type="qcurve"/>
      <point x="1024.37" y="1005.95"/>
      <point x="913.875" y="849.42"/>
      <point x="833.307" y="817.193" type="qcurve"/>
      <point x="865.534" y="805.683"/>
      <point x="982.934" y="757.342"/>
      <point x="1095.73" y="658.358"/>
      <point x="1180.9" y="494.92"/>
      <point x="1180.9" y="370.614" type="qcurve"/>
      <point x="1180.9" y="294.65"/>
      <point x="1132.56" y="154.231"/>
      <point x="1035.88" y="48.341"/>
      <point x="895.459" y="-16.1137"/>
      <point x="803.381" y="-16.1137" type="qcurve"/>
      <point x="690.586" y="-16.1137"/>
      <point x="566.28" y="41.4351"/>
      <point x="538.657" y="59.8508" type="qcurve"/>
      <point x="538.657" y="179.552" type="line"/>
      <point x="580.092" y="154.231"/>
      <point x="709.001" y="98.9839"/>
      <point x="801.079" y="98.9839" type="qcurve"/>
      <point x="842.514" y="98.9839"/>
      <point x="932.291" y="128.909"/>
      <point x="1008.25" y="195.666"/>
      <point x="1056.6" y="303.858"/>
      <point x="1056.6" y="382.124" type="qcurve"/>
      <point x="1056.6" y="734.323"/>
      <point x="591.602" y="750.436" type="qcurve"/>
      <point x="591.602" y="856.326" type="line"/>
      <point x="614.621" y="858.628"/>
      <point x="718.209" y="872.44"/>
      <point x="824.099" y="923.083"/>
      <point x="904.667" y="1019.76"/>
      <point x="904.667" y="1107.24" type="qcurve"/>
      <point x="904.667" y="1199.32"/>
      <point x="798.777" y="1323.62"/>
      <point x="692.888" y="1323.62" type="qcurve"/>
      <point x="649.15" y="1323.62"/>
      <point x="559.374" y="1293.7"/>
      <point x="485.712" y="1224.64"/>
      <point x="439.673" y="1107.24"/>
      <point x="439.673" y="1019.76" type="qcurve"/>
      <point x="439.673" y="0" type="line"/>
      <point x="149.627" y="0" type="line"/>
      <point x="149.627" y="108.192" type="line"/>
      <point x="324.575" y="108.192" type="line"/>
    </contour>
  </outline>
</glyph>
<glyph name="atilde" format="2">
  <advance width="600"/>
  <unicode hex="00E3"/>
  <outline>
    <contour>
      <point x="550" y="47" type="line"/>
      <point x="550" y="0" type="line"/>
      <point x="411" y="0" type="line"/>
      <point x="411" y="72" type="line"/>
      <point x="396" y="58"/>
      <point x="355" y="27"/>
      <point x="307" y="2"/>
      <point x="251" y="-14"/>
      <point x="220" y="-14" type="qcurve"/>
      <point x="182" y="-14"/>
      <point x="123" y="11"/>
      <point x="81" y="51"/>
      <point x="59" y="101"/>
      <point x="59" y="127" type="qcurve"/>
      <point x="59" y="147"/>
      <point x="79" y="199"/>
      <point x="127" y="246"/>
      <point x="209" y="278"/>
      <point x="271" y="278" type="qcurve"/>
      <point x="274" y="278"/>
      <point x="302" y="277"/>
      <point x="341" y="274"/>
      <point x="388" y="269"/>
      <point x="411" y="265" type="qcurve"/>
      <point x="411" y="296" type="line"/>
      <point x="411" y="308"/>
      <point x="407" y="344"/>
      <point x="385" y="378"/>
      <point x="335" y="402"/>
      <point x="290" y="402" type="qcurve"/>
      <point x="263" y="402"/>
      <point x="179" y="386"/>
      <point x="119" y="360" type="qcurve"/>
      <point x="100" y="405" type="line"/>
      <point x="132" y="419"/>
      <point x="231" y="450"/>
      <point x="291" y="450" type="qcurve"/>
      <point x="355" y="450"/>
      <point x="424" y="413"/>
      <point x="456" y="362"/>
      <point x="461" y="311"/>
      <point x="461" y="296" type="qcurve"/>
      <point x="461" y="47" type="line"/>
    </contour>
    <contour>
      <point x="411" y="219" type="line"/>
      <point x="394" y="222"/>
      <point x="323" y="230"/>
      <point x="281" y="230" type="qcurve"/>
      <point x="219" y="230"/>
      <point x="151" y="201"/>
      <point x="119" y="164"/>
      <point x="113" y="130"/>
      <point x="113" y="126" type="qcurve"/>
      <point x="113" y="107"/>
      <point x="130" y="74"/>
      <point x="160" y="49"/>
      <point x="198" y="34"/>
      <point x="219" y="34" type="qcurve"/>
      <point x="231" y="34"/>
      <point x="270" y="40"/>
      <point x="320" y="61"/>
      <point x="379" y="103"/>
      <point x="411" y="139" type="qcurve"/>
    </contour>
    <contour>
      <point x="460" y="606" type="line"/>
      <point x="458" y="604"/>
      <point x="458" y="599" type="qcurve"/>
      <point x="446" y="557"/>
      <point x="392" y="514"/>
      <point x="360" y="514" type="qcurve"/>
      <point x="343" y="514"/>
      <point x="312" y="528"/>
      <point x="289" y="546" type="qcurve"/>
      <point x="265" y="564"/>
      <point x="245" y="575"/>
      <point x="234" y="575" type="qcurve"/>
      <point x="214" y="575"/>
      <point x="190" y="543"/>
      <point x="182" y="523" type="qcurve"/>
      <point x="182" y="522"/>
      <point x="181" y="520" type="qcurve"/>
      <point x="180" y="517" type="line"/>
      <point x="140" y="531" type="line"/>
      <point x="154" y="569"/>
      <point x="197" y="620"/>
      <point x="234" y="620" type="qcurve"/>
      <point x="258" y="620"/>
      <point x="292" y="600"/>
      <point x="308" y="586" type="qcurve"/>
      <point x="327" y="572"/>
      <point x="352" y="559"/>
      <point x="363" y="559" type="qcurve"/>
      <point x="376" y="559"/>
      <point x="395" y="572"/>
      <point x="408" y="591"/>
      <point x="417" y="611"/>
      <point x="420" y="619" type="qcurve"/>
    </contour>
  </outline>
</glyph>
<glyph name="ecircumflex" format="2">
  <advance width="1381"/>
  <unicode hex="00EA"/>
  <outline>
    <contour>
      <point x="1286.79" y="131.211" type="line"/>
      <point x="1240.75" y="105.89"/>
      <point x="1116.45" y="48.341"/>
      <point x="971.424" y="0"/>
      <point x="810.287" y="-32.2273"/>
      <point x="729.719" y="-32.2273" type="qcurve"/>
      <point x="589.3" y="-32.2273"/>
      <point x="379.822" y="55.2468"/>
      <point x="239.403" y="200.27"/>
      <point x="170.344" y="391.332"/>
      <point x="170.344" y="492.618" type="qcurve"/>
      <point x="170.344" y="598.508"/>
      <point x="246.309" y="791.871"/>
      <point x="386.728" y="939.196"/>
      <point x="589.3" y="1024.37"/>
      <point x="715.907" y="1024.37" type="qcurve"/>
      <point x="847.118" y="1024.37"/>
      <point x="1042.78" y="941.498"/>
      <point x="1174" y="807.985"/>
      <point x="1238.45" y="644.547"/>
      <point x="1238.45" y="566.28" type="qcurve"/>
      <point x="1238.45" y="538.657"/>
      <point x="1233.85" y="474.202"/>
      <point x="1233.85" y="462.692" type="qcurve"/>
      <point x="294.65" y="462.692" type="line"/>
      <point x="296.952" y="416.653"/>
      <point x="333.783" y="285.442"/>
      <point x="430.465" y="165.741"/>
      <point x="598.508" y="78.2664"/>
      <point x="732.021" y="78.2664" type="qcurve"/>
      <point x="803.381" y="78.2664"/>
      <point x="953.008" y="112.796"/>
      <point x="1086.52" y="161.137"/>
      <point x="1197.02" y="214.082"/>
      <point x="1233.85" y="232.497" type="qcurve"/>
    </contour>
    <contour>
      <point x="1114.14" y="570.884" type="line"/>
      <point x="1114.14" y="626.131"/>
      <point x="1065.8" y="748.134"/>
      <point x="969.122" y="849.42"/>
      <point x="819.495" y="913.875"/>
      <point x="715.907" y="913.875" type="qcurve"/>
      <point x="600.809" y="913.875"/>
      <point x="446.579" y="835.609"/>
      <point x="349.897" y="727.417"/>
      <point x="301.556" y="610.017"/>
      <point x="294.65" y="570.884" type="qcurve"/>
    </contour>
    <contour>
      <point x="985.235" y="1213.13" type="line"/>
      <point x="911.573" y="1155.58" type="line"/>
      <point x="679.076" y="1307.51" type="line"/>
      <point x="469.598" y="1155.58" type="line"/>
      <point x="393.634" y="1210.83" type="line"/>
      <point x="596.206" y="1429.51" type="line"/>
      <point x="773.456" y="1429.51" type="line"/>
    </contour>
  </outline>
</glyph>
<glyph name="ntilde" format="2">
  <advance width="600"/>
  <unicode hex="00F1"/>
  <outline>
    <contour>
      <point x="166" y="374" type="line"/>
      <point x="182" y="386"/>
      <point x="220" y="411"/>
      <point x="263" y="432"/>
      <point x="311" y="445"/>
      <point x="338" y="445" type="qcurve"/>
      <point x="372" y="445"/>
      <point x="427" y="421"/>
      <point x="466" y="377"/>
      <point x="487" y="316"/>
      <point x="487" y="280" type="qcurve"/>
      <point x="487" y="47" type="line"/>
      <point x="567" y="47" type="line"/>
      <point x="567" y="0" type="line"/>
      <point x="351" y="0" type="line"/>
      <point x="351" y="47" type="line"/>
      <point x="437" y="47" type="line"/>
      <point x="437" y="276" type="line"/>
      <point x="437" y="331"/>
      <point x="384" y="395"/>
      <point x="339" y="395" type="qcurve"/>
      <point x="327" y="395"/>
      <point x="295" y="390"/>
      <point x="253" y="373"/>
      <point x="200" y="342"/>
      <point x="166" y="315" type="qcurve"/>
      <point x="166" y="47" type="line"/>
      <point x="250" y="47" type="line"/>
      <point x="250" y="0" type="line"/>
      <point x="34" y="0" type="line"/>
      <point x="34" y="47" type="line"/>
      <point x="116" y="47" type="line"/>
      <point x="116" y="383" type="line"/>
      <point x="34" y="383" type="line"/>
      <point x="34" y="430" type="line"/>
      <point x="166" y="430" type="line"/>
    </contour>
    <contour>
      <point x="460" y="606" type="line"/>
      <point x="458" y="604"/>
      <point x="458" y="599" type="qcurve"/>
      <point x="446" y="557"/>
      <point x="392" y="514"/>
      <point x="360" y="514" type="qcurve"/>
      <point x="343" y="514"/>
      <point x="312" y="528"/>
      <point x="289" y="546" type="qcurve"/>
      <point x="265" y="564"/>
      <point x="245" y="575"/>
      <point x="234" y="575" type="qcurve"/>
      <point x="214" y="575"/>
      <point x="190" y="543"/>
      <point x="182" y="523" type="qcurve"/>
      <point x="182" y="522"/>
      <point x="181" y="520" type="qcurve"/>
      <point x="180" y="517" type="line"/>
      <point x="140" y="531" type="line"/>
      <point x="154" y="569"/>
      <point x="197" y="620"/>
      <point x="234" y="620" type="qcurve"/>
      <point x="258" y="620"/>
      <point x="292" y="600"/>
      <point x="308" y="586" type="qcurve"/>
      <point x="327" y="572"/>
      <point x="352" y="559"/>
      <point x="363" y="559" type="qcurve"/>
      <point x="376" y="559"/>
      <point x="395" y="572"/>
      <point x="408" y="591"/>
      <point x="417" y="611"/>
      <point x="420" y="619" type="qcurve"/>
    </contour>
  </outline>
</glyph>
<glyph name="divide" format="2">
  <advance width="1381"/>
  <unicode hex="00F7"/>
  <outline>
    <contour>
      <point x="690.586" y="1215.43" type="qcurve"/>
      <point x="732.021" y="1215.43"/>
      <point x="794.173" y="1157.88"/>
      <point x="794.173" y="1111.84" type="qcurve"/>
      <point x="794.173" y="1070.41"/>
      <point x="736.625" y="1008.25"/>
      <point x="690.586" y="1008.25" type="qcurve"/>
      <point x="646.849" y="1008.25"/>
      <point x="586.998" y="1070.41"/>
      <point x="586.998" y="1111.84" type="qcurve"/>
      <point x="586.998" y="1157.88"/>
      <point x="651.452" y="1215.43"/>
    </contour>
    <contour>
      <point x="1229.24" y="639.943" type="line"/>
      <point x="151.929" y="639.943" type="line"/>
      <point x="151.929" y="755.04" type="line"/>
      <point x="1229.24" y="755.04" type="line"/>
    </contour>
    <contour>
      <point x="690.586" y="386.728" type="qcurve"/>
      <point x="729.719" y="386.728"/>
      <point x="794.173" y="329.179"/>
      <point x="794.173" y="283.14" type="qcurve"/>
      <point x="794.173" y="237.101"/>
      <point x="729.719" y="179.552"/>
      <point x="690.586" y="179.552" type="qcurve"/>
      <point x="649.15" y="179.552"/>
      <point x="586.998" y="239.403"/>
      <point x="586.998" y="283.14" type="qcurve"/>
      <point x="586.998" y="329.179"/>
      <point x="649.15" y="386.728"/>
    </contour>
  </outline>
</glyph>
<glyph name="ucircumflex" format="2">
  <advance width="600"/>
  <unicode hex="00FB"/>
  <outline>
    <contour>
      <point x="164" y="165" type="line"/>
      <point x="164" y="155"/>
      <point x="167" y="112"/>
      <point x="186" y="69"/>
      <point x="226" y="36"/>
      <point x="264" y="36" type="qcurve"/>
      <point x="306" y="36"/>
      <point x="383" y="78"/>
      <point x="425" y="123" type="qcurve"/>
      <point x="425" y="383" type="line"/>
      <point x="339" y="383" type="line"/>
      <point x="339" y="430" type="line"/>
      <point x="475" y="430" type="line"/>
      <point x="475" y="47" type="line"/>
      <point x="556" y="47" type="line"/>
      <point x="556" y="0" type="line"/>
      <point x="425" y="0" type="line"/>
      <point x="425" y="55" type="line"/>
      <point x="414" y="46"/>
      <point x="384" y="22"/>
      <point x="345" y="1"/>
      <point x="297" y="-14"/>
      <point x="268" y="-14" type="qcurve"/>
      <point x="221" y="-14"/>
      <point x="161" y="20"/>
      <point x="127" y="72"/>
      <point x="114" y="135"/>
      <point x="114" y="165" type="qcurve"/>
      <point x="114" y="383" type="line"/>
      <point x="32" y="383" type="line"/>
      <point x="32" y="430" type="line"/>
      <point x="164" y="430" type="line"/>
    </contour>
    <contour>
      <point x="428" y="527" type="line"/>
      <point x="396" y="502" type="line"/>
      <point x="295" y="568" type="line"/>
      <point x="204" y="502" type="line"/>
      <point x="171" y="526" type="line"/>
      <point x="259" y="621" type="line"/>
      <point x="336" y="621" type="line"/>
    </contour>
  </outline>
</glyph>
<glyph name="scaron" format="2">
  <advance width="1381"/>
  <unicode hex="0161"/>
  <outline>
    <contour>
      <point x="1109.54" y="1019.76" type="line"/>
      <point x="1102.64" y="982.934"/>
      <point x="1088.82" y="888.553"/>
      <point x="1088.82" y="821.797" type="qcurve"/>
      <point x="1088.82" y="773.456"/>
      <point x="1095.73" y="706.699"/>
      <point x="1100.33" y="676.774" type="qcurve"/>
      <point x="999.047" y="665.264" type="line"/>
      <point x="992.141" y="699.793"/>
      <point x="966.82" y="782.664"/>
      <point x="895.459" y="854.024"/>
      <point x="757.342" y="904.667"/>
      <point x="637.641" y="904.667" type="qcurve"/>
      <point x="499.524" y="904.667"/>
      <point x="352.199" y="805.683"/>
      <point x="352.199" y="734.323" type="qcurve"/>
      <point x="352.199" y="672.17"/>
      <point x="423.559" y="600.809"/>
      <point x="552.468" y="561.676"/>
      <point x="725.115" y="547.865"/>
      <point x="826.401" y="543.261" type="qcurve"/>
      <point x="847.118" y="543.261"/>
      <point x="955.31" y="529.449"/>
      <point x="1070.41" y="478.806"/>
      <point x="1160.18" y="375.218"/>
      <point x="1160.18" y="285.442" type="qcurve"/>
      <point x="1160.18" y="202.572"/>
      <point x="1079.62" y="80.5683"/>
      <point x="950.706" y="2.30195"/>
      <point x="796.475" y="-34.5293"/>
      <point x="720.511" y="-34.5293" type="qcurve"/>
      <point x="658.358" y="-34.5293"/>
      <point x="552.468" y="-13.8117"/>
      <point x="464.994" y="18.4156"/>
      <point x="402.842" y="50.6429"/>
      <point x="382.124" y="62.1527" type="qcurve"/>
      <point x="382.124" y="62.1527"/>
      <point x="377.52" y="64.4547" type="qcurve"/>
      <point x="375.218" y="66.7566"/>
      <point x="370.614" y="66.7566" type="qcurve"/>
      <point x="354.501" y="66.7566"/>
      <point x="336.085" y="9.20781"/>
      <point x="324.575" y="-29.9254" type="qcurve"/>
      <point x="223.289" y="-29.9254" type="line"/>
      <point x="227.893" y="0"/>
      <point x="237.101" y="57.5488"/>
      <point x="237.101" y="115.098" type="qcurve"/>
      <point x="237.101" y="188.76"/>
      <point x="227.893" y="303.858"/>
      <point x="223.289" y="342.991" type="qcurve"/>
      <point x="324.575" y="354.501" type="line"/>
      <point x="329.179" y="324.575"/>
      <point x="356.803" y="232.497"/>
      <point x="432.767" y="145.023"/>
      <point x="575.488" y="80.5683"/>
      <point x="695.19" y="80.5683" type="qcurve"/>
      <point x="729.719" y="80.5683"/>
      <point x="844.816" y="94.38"/>
      <point x="955.31" y="135.815"/>
      <point x="1035.88" y="214.082"/>
      <point x="1035.88" y="280.838" type="qcurve"/>
      <point x="1035.88" y="331.481"/>
      <point x="987.537" y="391.332"/>
      <point x="900.063" y="421.257"/>
      <point x="778.06" y="430.465"/>
      <point x="706.699" y="432.767" type="qcurve"/>
      <point x="660.66" y="435.069"/>
      <point x="499.524" y="451.183"/>
      <point x="342.991" y="508.731"/>
      <point x="227.893" y="626.131"/>
      <point x="227.893" y="729.719" type="qcurve"/>
      <point x="227.893" y="791.871"/>
      <point x="287.744" y="897.761"/>
      <point x="393.634" y="976.028"/>
      <point x="545.563" y="1019.76"/>
      <point x="635.339" y="1019.76" type="qcurve"/>
      <point x="738.927" y="1019.76"/>
      <point x="867.836" y="971.424"/>
      <point x="900.063" y="953.008" type="qcurve"/>
      <point x="904.667" y="948.404"/>
      <point x="936.894" y="932.291"/>
      <point x="950.706" y="932.291" type="qcurve"/>
      <point x="969.122" y="932.291"/>
      <point x="987.537" y="976.028"/>
      <point x="992.141" y="987.537" type="qcurve"/>
      <point x="996.745" y="1010.56"/>
      <point x="1001.35" y="1024.37"/>
      <point x="1005.95" y="1035.88" type="qcurve"/>
    </contour>
    <contour>
      <point x="393.634" y="1388.08" type="line"/>
      <point x="467.296" y="1443.32" type="line"/>
      <point x="699.793" y="1293.7" type="line"/>
      <point x="911.573" y="1445.63" type="line"/>
      <point x="985.235" y="1388.08" type="line"/>
      <point x="782.664" y="1171.69" type="line"/>
      <point x="607.715" y="1171.69" type="line"/>
    </contour>
  </outline>
</glyph>
<glyph name="zcaron" format="2">
  <advance width="1381"/>
  <unicode hex="017E"/>
  <outline>
    <contour>
      <point x="1141.77" y="890.855" type="line"/>
      <point x="395.936" y="108.192" type="line"/>
      <point x="1033.58" y="108.192" type="line"/>
      <point x="1033.58" y="319.971" type="line"/>
      <point x="1141.77" y="319.971" type="line"/>
      <point x="1141.77" y="0" type="line"/>
      <point x="239.403" y="0" type="line"/>
      <point x="239.403" y="108.192" type="line"/>
      <point x="978.33" y="881.648" type="line"/>
      <point x="370.614" y="881.648" type="line"/>
      <point x="370.614" y="676.774" type="line"/>
      <point x="262.423" y="676.774" type="line"/>
      <point x="262.423" y="989.839" type="line"/>
      <point x="1141.77" y="989.839" type="line"/>
    </contour>
    <contour>
      <point x="393.634" y="1388.08" type="line"/>
      <point x="467.296" y="1443.32" type="line"/>
      <point x="699.793" y="1293.7" type="line"/>
      <point x="911.573" y="1445.63" type="line"/>
      <point x="985.235" y="1388.08" type="line"/>
      <point x="782.664" y="1171.69" type="line"/>
      <point x="607.715" y="1171.69" type="line"/>
    </contour>
  </outline>
</glyph>
<glyph name="florin" format="2">
  <advance width="1381"/>
  <unicode hex="0192"/>
  <outline>
    <contour>
      <point x="1160.18" y="1401.89" type="line"/>
      <point x="1130.26" y="1408.79"/>
      <point x="1049.69" y="1420.3"/>
      <point x="994.443" y="1420.3" type="qcurve"/>
      <point x="863.232" y="1420.3"/>
      <point x="722.813" y="1353.55"/>
      <point x="656.056" y="1256.87"/>
      <point x="644.547" y="1148.67"/>
      <point x="644.547" y="1104.94" type="qcurve"/>
      <point x="644.547" y="978.33" type="line"/>
      <point x="1049.69" y="978.33" type="line"/>
      <point x="1049.69" y="881.648" type="line"/>
      <point x="644.547" y="881.648" type="line"/>
      <point x="644.547" y="117.4" type="line"/>
      <point x="644.547" y="36.8312"/>
      <point x="607.715" y="-80.5683"/>
      <point x="543.261" y="-128.909" type="qcurve"/>
      <point x="467.296" y="-186.458"/>
      <point x="269.328" y="-227.893"/>
      <point x="170.344" y="-227.893" type="qcurve"/>
      <point x="140.419" y="-227.893"/>
      <point x="80.5683" y="-223.289"/>
      <point x="55.2468" y="-218.685" type="qcurve"/>
      <point x="64.4547" y="-103.588" type="line"/>
      <point x="98.9839" y="-108.192"/>
      <point x="181.854" y="-117.4"/>
      <point x="220.987" y="-117.4" type="qcurve"/>
      <point x="296.952" y="-117.4"/>
      <point x="458.088" y="-75.9644"/>
      <point x="494.92" y="-32.2273" type="qcurve"/>
      <point x="520.241" y="0"/>
      <point x="529.449" y="87.4742"/>
      <point x="529.449" y="133.513" type="qcurve"/>
      <point x="529.449" y="881.648" type="line"/>
      <point x="283.14" y="881.648" type="line"/>
      <point x="283.14" y="978.33" type="line"/>
      <point x="529.449" y="978.33" type="line"/>
      <point x="529.449" y="1116.45" type="line"/>
      <point x="529.449" y="1167.09"/>
      <point x="552.468" y="1309.81"/>
      <point x="651.452" y="1438.72"/>
      <point x="849.42" y="1528.5"/>
      <point x="1024.37" y="1528.5" type="qcurve"/>
      <point x="1075.01" y="1528.5"/>
      <point x="1148.67" y="1523.89"/>
      <point x="1171.69" y="1519.29" type="qcurve"/>
    </contour>
  </outline>
</glyph>
<glyph name="circumflex" format="2">
  <advance width="1381"/>
  <unicode hex="02C6"/>
  <outline>
    <contour>
      <point x="985.235" y="1213.13" type="line"/>
      <point x="911.573" y="1155.58" type="line"/>
      <point x="679.076" y="1307.51" type="line"/>
      <point x="469.598" y="1155.58" type="line"/>
      <point x="393.634" y="1210.83" type="line"/>
      <point x="596.206" y="1429.51" type="line"/>
      <point x="773.456" y="1429.51" type="line"/>
    </contour>
  </outline>
</glyph>
<glyph name="uni1200" format="2">
  <advance width="553"/>
  <unicode hex="1200"/>
  <outline>
    <contour>
      <point x="523" y="294" type="qcurve"/>
      <point x="523" y="606" type="line"/>
      <point x="523" y="649"/>
      <point x="489" y="694"/>
      <point x="460" y="694" type="qcurve"/>
      <point x="363" y="639" type="line"/>
      <point x="384" y="633"/>
      <point x="398" y="606"/>
      <point x="398" y="578" type="qcurve"/>
      <point x="398" y="147" type="line"/>
      <point x="398" y="108"/>
      <point x="376" y="57"/>
      <point x="347" y="28"/>
      <point x="319" y="16"/>
      <point x="313" y="16" type="qcurve"/>
      <point x="284" y="17"/>
      <point x="240" y="34"/>
      <point x="212" y="79"/>
      <point x="198" y="159"/>
      <point x="198" y="223" type="qcurve"/>
      <point x="198" y="578" type="line"/>
      <point x="198" y="618"/>
      <point x="182" y="656"/>
      <point x="148" y="656" type="qcurve"/>
      <point x="40" y="605" type="line"/>
      <point x="61" y="595"/>
      <point x="74" y="569"/>
      <point x="74" y="549" type="qcurve"/>
      <point x="73" y="206" type="line"/>
      <point x="73" y="150"/>
      <point x="83" y="69"/>
      <point x="114" y="15"/>
      <point x="173" y="-12"/>
      <point x="222" y="-13" type="qcurve"/>
      <point x="229" y="-13" type="line"/>
      <point x="231" y="-13"/>
      <point x="236" y="-13" type="qcurve"/>
      <point x="241" y="-13"/>
      <point x="248" y="-12" type="qcurve"/>
      <point x="324" y="0"/>
      <point x="426" y="32"/>
      <point x="489" y="96"/>
      <point x="519" y="205"/>
    </contour>
  </outline>
</glyph>
<glyph name="uni1201" format="2">
  <advance width="802"/>
  <unicode hex="1201"/>
  <outline>
    <contour>
      <point x="792" y="401" type="qcurve"/>
      <point x="778" y="383"/>
      <point x="758" y="381" type="qcurve"/>
      <point x="748" y="381"/>
      <point x="727" y="393"/>
      <point x="710" y="411"/>
      <point x="698" y="432"/>
      <point x="697" y="441" type="qcurve"/>
      <point x="523" y="389" type="line"/>
      <point x="523" y="608" type="line"/>
      <point x="523" y="651"/>
      <point x="489" y="696"/>
      <point x="460" y="696" type="qcurve"/>
      <point x="364" y="641" type="line"/>
      <point x="385" y="635"/>
      <point x="399" y="608"/>
      <point x="399" y="580" type="qcurve"/>
      <point x="398" y="147" type="line"/>
      <point x="398" y="108"/>
      <point x="376" y="57"/>
      <point x="347" y="28"/>
      <point x="319" y="16"/>
      <point x="313" y="16" type="qcurve"/>
      <point x="284" y="17"/>
      <point x="240" y="34"/>
      <point x="212" y="79"/>
      <point x="198" y="159"/>
      <point x="198" y="223" type="qcurve"/>
      <point x="198" y="580" type="line"/>
      <point x="198" y="620"/>
      <point x="182" y="658"/>
      <point x="148" y="658" type="qcurve"/>
      <point x="40" y="607" type="line"/>
      <point x="61" y="597"/>
      <point x="74" y="571"/>
      <point x="74" y="551" type="qcurve"/>
      <point x="73" y="206" type="line"/>
      <point x="73" y="150"/>
      <point x="83" y="69"/>
      <point x="114" y="15"/>
      <point x="173" y="-12"/>
      <point x="222" y="-13" type="qcurve"/>
      <point x="229" y="-13" type="line"/>
      <point x="231" y="-13"/>
      <point x="236" y="-13" type="qcurve"/>
      <point x="241" y="-13"/>
      <point x="248" y="-12" type="qcurve"/>
      <point x="326" y="1"/>
      <point x="441" y="31"/>
      <point x="467" y="63" type="qcurve"/>
      <point x="491" y="93"/>
      <point x="523" y="202"/>
      <point x="523" y="294" type="qcurve"/>
      <point x="523" y="365" type="line"/>
      <point x="586" y="382" type="line"/>
      <point x="589" y="328"/>
      <point x="641" y="283"/>
      <point x="681" y="283" type="qcurve"/>
      <point x="693" y="283" type="line"/>
      <point x="710" y="284"/>
      <point x="745" y="302"/>
      <point x="774" y="332"/>
      <point x="792" y="375"/>
    </contour>
  </outline>
</glyph>
<glyph name="uni1202" format="2">
  <advance width="618"/>
  <unicode hex="1202"/>
  <outline>
    <contour>
      <point x="607" y="66" type="qcurve"/>
      <point x="607" y="43"/>
      <point x="589" y="4"/>
      <point x="560" y="-24"/>
      <point x="525" y="-41"/>
      <point x="509" y="-42" type="qcurve"/>
      <point x="483" y="-42"/>
      <point x="445" y="-37"/>
      <point x="418" y="-23"/>
      <point x="400" y="3"/>
      <point x="394" y="24" type="qcurve"/>
      <point x="269" y="-12" type="line"/>
      <point x="251" y="-12"/>
      <point x="218" y="-2"/>
      <point x="193" y="19"/>
      <point x="177" y="48"/>
      <point x="177" y="68" type="qcurve"/>
      <point x="177" y="90"/>
      <point x="184" y="108" type="qcurve"/>
      <point x="286" y="350" type="line"/>
      <point x="254" y="343" type="line"/>
      <point x="233" y="338"/>
      <point x="192" y="331"/>
      <point x="156" y="326"/>
      <point x="128" y="324"/>
      <point x="121" y="324" type="qcurve"/>
      <point x="87" y="324"/>
      <point x="53" y="348"/>
      <point x="53" y="378" type="qcurve"/>
      <point x="54" y="390" type="line"/>
      <point x="72" y="592" type="line"/>
      <point x="72" y="595"/>
      <point x="74" y="614"/>
      <point x="74" y="619" type="qcurve"/>
      <point x="74" y="637"/>
      <point x="60" y="658"/>
      <point x="40" y="665" type="qcurve"/>
      <point x="154" y="699" type="line"/>
      <point x="179" y="696"/>
      <point x="202" y="659"/>
      <point x="202" y="632" type="qcurve"/>
      <point x="202" y="617"/>
      <point x="199" y="604" type="qcurve"/>
      <point x="180" y="433" type="line"/>
      <point x="180" y="427"/>
      <point x="179" y="424" type="qcurve"/>
      <point x="179" y="416" type="line"/>
      <point x="179" y="388"/>
      <point x="227" y="369"/>
      <point x="257" y="369" type="qcurve"/>
      <point x="273" y="369" type="line"/>
      <point x="278" y="370"/>
      <point x="285" y="370" type="qcurve"/>
      <point x="292" y="370" type="line"/>
      <point x="367" y="566" type="line"/>
      <point x="374" y="593"/>
      <point x="374" y="615" type="qcurve"/>
      <point x="374" y="655"/>
      <point x="339" y="672" type="qcurve"/>
      <point x="465" y="700" type="line"/>
      <point x="504" y="673"/>
      <point x="504" y="606" type="qcurve"/>
      <point x="504" y="567"/>
      <point x="489" y="525" type="qcurve"/>
      <point x="325" y="132" type="line"/>
      <point x="312" y="100"/>
      <point x="312" y="75" type="qcurve"/>
      <point x="312" y="35"/>
      <point x="345" y="35" type="qcurve"/>
      <point x="349" y="35"/>
      <point x="355" y="36"/>
      <point x="359" y="37" type="qcurve"/>
      <point x="394" y="48" type="line"/>
      <point x="394" y="82"/>
      <point x="446" y="120"/>
      <point x="482" y="120" type="qcurve"/>
      <point x="498" y="120"/>
      <point x="513" y="117" type="qcurve"/>
      <point x="514" y="103"/>
      <point x="526" y="78"/>
      <point x="542" y="58"/>
      <point x="563" y="46"/>
      <point x="573" y="46" type="qcurve"/>
      <point x="593" y="48"/>
    </contour>
  </outline>
</glyph>
<glyph name="uni1203" format="2">
  <advance width="534"/>
  <unicode hex="1203"/>
  <outline>
    <contour>
      <point x="373" y="49" type="qcurve"/>
      <point x="359" y="43"/>
      <point x="347" y="43" type="qcurve"/>
      <point x="340" y="43" type="line"/>
      <point x="325" y="50"/>
      <point x="310" y="59"/>
      <point x="310" y="76" type="qcurve"/>
      <point x="310" y="92"/>
      <point x="324" y="136" type="qcurve"/>
      <point x="489" y="524" type="line"/>
      <point x="504" y="566"/>
      <point x="504" y="605" type="qcurve"/>
      <point x="504" y="671"/>
      <point x="465" y="700" type="qcurve"/>
      <point x="339" y="671" type="line"/>
      <point x="374" y="654"/>
      <point x="374" y="614" type="qcurve"/>
      <point x="374" y="593"/>
      <point x="367" y="566" type="qcurve"/>
      <point x="292" y="369" type="line"/>
      <point x="284" y="369" type="line"/>
      <point x="278" y="369"/>
      <point x="274" y="368" type="qcurve"/>
      <point x="259" y="368" type="line"/>
      <point x="229" y="368"/>
      <point x="179" y="388"/>
      <point x="179" y="416" type="qcurve"/>
      <point x="179" y="424" type="line"/>
      <point x="180" y="427"/>
      <point x="180" y="433" type="qcurve"/>
      <point x="199" y="604" type="line"/>
      <point x="202" y="617"/>
      <point x="202" y="631" type="qcurve"/>
      <point x="202" y="659"/>
      <point x="179" y="696"/>
      <point x="154" y="699" type="qcurve"/>
      <point x="40" y="664" type="line"/>
      <point x="59" y="657"/>
      <point x="74" y="636"/>
      <point x="74" y="618" type="qcurve"/>
      <point x="74" y="613"/>
      <point x="72" y="594"/>
      <point x="72" y="591" type="qcurve"/>
      <point x="54" y="389" type="line"/>
      <point x="53" y="377" type="line"/>
      <point x="53" y="347"/>
      <point x="88" y="324"/>
      <point x="121" y="324" type="qcurve"/>
      <point x="139" y="324"/>
      <point x="217" y="334"/>
      <point x="259" y="344" type="qcurve"/>
      <point x="286" y="349" type="line"/>
      <point x="185" y="109" type="line"/>
      <point x="176" y="83"/>
      <point x="176" y="64" type="qcurve"/>
      <point x="176" y="32"/>
      <point x="226" y="-15"/>
      <point x="268" y="-15" type="qcurve"/>
      <point x="301" y="-15"/>
      <point x="361" y="17"/>
    </contour>
  </outline>
</glyph>
<glyph name="uni1204" format="2">
  <advance width="648"/>
  <unicode hex="1204"/>
  <outline>
    <contour>
      <point x="636" y="151" type="qcurve"/>
      <point x="636" y="187"/>
      <point x="577" y="226"/>
      <point x="535" y="226" type="qcurve"/>
      <point x="504" y="226"/>
      <point x="450" y="203"/>
      <point x="438" y="182" type="qcurve"/>
      <point x="459" y="166"/>
      <point x="475" y="133"/>
      <point x="475" y="116" type="qcurve"/>
      <point x="475" y="110"/>
      <point x="474" y="107" type="qcurve"/>
      <point x="474" y="101" type="line"/>
      <point x="471" y="74"/>
      <point x="455" y="42"/>
      <point x="430" y="26"/>
      <point x="397" y="21"/>
      <point x="378" y="21" type="qcurve"/>
      <point x="367" y="21" type="line"/>
      <point x="337" y="21"/>
      <point x="309" y="36"/>
      <point x="309" y="56" type="qcurve"/>
      <point x="309" y="81"/>
      <point x="333" y="137" type="qcurve"/>
      <point x="489" y="521" type="line"/>
      <point x="504" y="563"/>
      <point x="504" y="602" type="qcurve"/>
      <point x="504" y="668"/>
      <point x="465" y="697" type="qcurve"/>
      <point x="339" y="668" type="line"/>
      <point x="374" y="651"/>
      <point x="374" y="611" type="qcurve"/>
      <point x="374" y="590"/>
      <point x="367" y="563" type="qcurve"/>
      <point x="292" y="366" type="line"/>
      <point x="284" y="366" type="line"/>
      <point x="278" y="366"/>
      <point x="274" y="365" type="qcurve"/>
      <point x="259" y="365" type="line"/>
      <point x="229" y="365"/>
      <point x="179" y="385"/>
      <point x="179" y="413" type="qcurve"/>
      <point x="179" y="421" type="line"/>
      <point x="180" y="424"/>
      <point x="180" y="430" type="qcurve"/>
      <point x="199" y="600" type="line"/>
      <point x="202" y="613"/>
      <point x="202" y="627" type="qcurve"/>
      <point x="202" y="655"/>
      <point x="179" y="692"/>
      <point x="154" y="695" type="qcurve"/>
      <point x="40" y="660" type="line"/>
      <point x="59" y="653"/>
      <point x="74" y="632"/>
      <point x="74" y="614" type="qcurve"/>
      <point x="74" y="609"/>
      <point x="72" y="590"/>
      <point x="72" y="587" type="qcurve"/>
      <point x="48" y="386" type="line"/>
      <point x="48" y="321"/>
      <point x="121" y="321" type="qcurve"/>
      <point x="139" y="321"/>
      <point x="217" y="331"/>
      <point x="259" y="341" type="qcurve"/>
      <point x="286" y="346" type="line"/>
      <point x="185" y="106" type="line"/>
      <point x="176" y="80"/>
      <point x="176" y="58" type="qcurve"/>
      <point x="176" y="26"/>
      <point x="211" y="-14"/>
      <point x="240" y="-14" type="qcurve"/>
      <point x="319" y="-7"/>
      <point x="413" y="0"/>
      <point x="465" y="3"/>
      <point x="487" y="4"/>
      <point x="495" y="5" type="qcurve"/>
      <point x="536" y="8"/>
      <point x="591" y="34"/>
      <point x="623" y="73"/>
      <point x="636" y="124"/>
    </contour>
  </outline>
</glyph>
<glyph name="uni1205" format="2">
  <advance width="553"/>
  <unicode hex="1205"/>
  <outline>
    <contour>
      <point x="523" y="294" type="qcurve"/>
      <point x="523" y="608" type="line"/>
      <point x="523" y="651"/>
      <point x="489" y="696"/>
      <point x="460" y="696" type="qcurve"/>
      <point x="364" y="641" type="line"/>
      <point x="385" y="635"/>
      <point x="399" y="608"/>
      <point x="399" y="580" type="qcurve"/>
      <point x="398" y="147" type="line"/>
      <point x="398" y="108"/>
      <point x="376" y="57"/>
      <point x="347" y="28"/>
      <point x="319" y="16"/>
      <point x="313" y="16" type="qcurve"/>
      <point x="253" y="19"/>
      <point x="199" y="132"/>
      <point x="198" y="260" type="qcurve"/>
      <point x="198" y="292"/>
      <point x="209" y="331"/>
      <point x="225" y="359"/>
      <point x="242" y="384"/>
      <point x="248" y="402" type="qcurve"/>
      <point x="248" y="410"/>
      <point x="231" y="414"/>
      <point x="224" y="414" type="qcurve"/>
      <point x="218" y="414"/>
      <point x="203" y="410"/>
      <point x="198" y="402" type="qcurve"/>
      <point x="198" y="617" type="line"/>
      <point x="198" y="657"/>
      <point x="182" y="695"/>
      <point x="148" y="695" type="qcurve"/>
      <point x="40" y="644" type="line"/>
      <point x="61" y="634"/>
      <point x="74" y="608"/>
      <point x="74" y="588" type="qcurve"/>
      <point x="74" y="401" type="line"/>
      <point x="74" y="393"/>
      <point x="90" y="389"/>
      <point x="96" y="389" type="qcurve"/>
      <point x="102" y="389"/>
      <point x="112" y="394"/>
      <point x="123" y="402" type="qcurve"/>
      <point x="117" y="382"/>
      <point x="100" y="357"/>
      <point x="84" y="327"/>
      <point x="73" y="282"/>
      <point x="73" y="243" type="qcurve"/>
      <point x="73" y="187"/>
      <point x="83" y="94"/>
      <point x="114" y="26"/>
      <point x="173" y="-12"/>
      <point x="222" y="-13" type="qcurve"/>
      <point x="229" y="-13" type="line"/>
      <point x="231" y="-13"/>
      <point x="236" y="-13" type="qcurve"/>
      <point x="241" y="-13"/>
      <point x="248" y="-12" type="qcurve"/>
      <point x="324" y="0"/>
      <point x="426" y="32"/>
      <point x="489" y="96"/>
      <point x="519" y="205"/>
    </contour>
  </outline>
</glyph>
<glyph name="uni1206" format="2">
  <advance width="748"/>
  <unicode hex="1206"/>
  <outline>
    <contour>
      <point x="605" y="567" type="qcurve"/>
      <point x="605" y="515" type="line"/>
      <point x="605" y="488"/>
      <point x="589" y="454"/>
      <point x="565" y="435"/>
      <point x="535" y="426"/>
      <point x="522" y="424" type="qcurve"/>
      <point x="522" y="640" type="line"/>
      <point x="548" y="650"/>
      <point x="566" y="650" type="qcurve"/>
      <point x="589" y="650"/>
      <point x="605" y="612"/>
    </contour>
    <contour>
      <point x="737" y="579" type="qcurve"/>
      <point x="737" y="640"/>
      <point x="685" y="697"/>
      <point x="636" y="697" type="qcurve"/>
      <point x="595" y="697"/>
      <point x="542" y="678" type="qcurve"/>
      <point x="363" y="612" type="line"/>
      <point x="384" y="606"/>
      <point x="398" y="579"/>
      <point x="398" y="551" type="qcurve"/>
      <point x="399" y="148" type="line"/>
      <point x="399" y="109"/>
      <point x="377" y="58"/>
      <point x="348" y="29"/>
      <point x="320" y="17"/>
      <point x="314" y="17" type="qcurve"/>
      <point x="285" y="18"/>
      <point x="241" y="35"/>
      <point x="212" y="80"/>
      <point x="198" y="160"/>
      <point x="198" y="224" type="qcurve"/>
      <point x="198" y="551" type="line"/>
      <point x="198" y="591"/>
      <point x="182" y="629"/>
      <point x="148" y="629" type="qcurve"/>
      <point x="40" y="578" type="line"/>
      <point x="61" y="568"/>
      <point x="74" y="542"/>
      <point x="74" y="522" type="qcurve"/>
      <point x="74" y="207" type="line"/>
      <point x="74" y="151"/>
      <point x="84" y="70"/>
      <point x="116" y="16"/>
      <point x="175" y="-11"/>
      <point x="224" y="-12" type="qcurve"/>
      <point x="229" y="-12" type="line"/>
      <point x="234" y="-12"/>
      <point x="237" y="-11" type="qcurve"/>
      <point x="250" y="-11" type="line"/>
      <point x="326" y="1"/>
      <point x="427" y="33"/>
      <point x="490" y="97"/>
      <point x="520" y="206"/>
      <point x="524" y="295" type="qcurve"/>
      <point x="522" y="400" type="line"/>
      <point x="590" y="410"/>
      <point x="674" y="443"/>
      <point x="721" y="488"/>
      <point x="737" y="545"/>
    </contour>
  </outline>
</glyph>
<glyph name="uni1208" format="2">
  <advance width="607"/>
  <unicode hex="1208"/>
  <outline>
    <contour>
      <point x="597" y="79" type="qcurve"/>
      <point x="582" y="64"/>
      <point x="562" y="64" type="qcurve"/>
      <point x="540" y="64"/>
      <point x="515" y="100"/>
      <point x="515" y="146" type="qcurve"/>
      <point x="515" y="322" type="line"/>
      <point x="515" y="382"/>
      <point x="488" y="453"/>
      <point x="437" y="489"/>
      <point x="363" y="500"/>
      <point x="315" y="500" type="qcurve"/>
      <point x="295" y="500"/>
      <point x="252" y="485"/>
      <point x="214" y="459"/>
      <point x="190" y="427"/>
      <point x="190" y="411" type="qcurve"/>
      <point x="190" y="588" type="line"/>
      <point x="190" y="615"/>
      <point x="187" y="652"/>
      <point x="177" y="677"/>
      <point x="160" y="693"/>
      <point x="146" y="698" type="qcurve"/>
      <point x="40" y="656" type="line"/>
      <point x="42" y="654" type="line"/>
      <point x="52" y="642"/>
      <point x="64" y="616"/>
      <point x="65" y="588" type="qcurve"/>
      <point x="65" y="75" type="line"/>
      <point x="65" y="30"/>
      <point x="121" y="-13"/>
      <point x="166" y="-13" type="qcurve"/>
      <point x="183" y="-13"/>
      <point x="221" y="1"/>
      <point x="252" y="25"/>
      <point x="272" y="59"/>
      <point x="272" y="79" type="qcurve"/>
      <point x="257" y="64"/>
      <point x="237" y="64" type="qcurve"/>
      <point x="216" y="64"/>
      <point x="190" y="96"/>
      <point x="190" y="143" type="qcurve"/>
      <point x="190" y="367" type="line"/>
      <point x="190" y="379"/>
      <point x="206" y="412"/>
      <point x="235" y="442"/>
      <point x="273" y="463"/>
      <point x="295" y="463" type="qcurve"/>
      <point x="350" y="463"/>
      <point x="390" y="418"/>
      <point x="390" y="367" type="qcurve"/>
      <point x="390" y="80" type="line"/>
      <point x="390" y="33"/>
      <point x="439" y="-13"/>
      <point x="466" y="-13" type="qcurve"/>
      <point x="490" y="-13"/>
      <point x="537" y="-1"/>
      <point x="574" y="23"/>
      <point x="597" y="57"/>
    </contour>
  </outline>
</glyph>
<glyph name="uni1209" format="2">
  <advance width="1461"/>
  <unicode hex="1209"/>
  <outline>
    <contour>
      <point x="1443.14" y="611.126" type="qcurve"/>
      <point x="1413.69" y="577.993"/>
      <point x="1380.56" y="576.152" type="qcurve"/>
      <point x="1362.15" y="576.152"/>
      <point x="1323.49" y="594.56"/>
      <point x="1292.2" y="625.852"/>
      <point x="1270.11" y="662.667"/>
      <point x="1268.27" y="681.075" type="qcurve"/>
      <point x="947.982" y="590.878" type="line"/>
      <point x="947.982" y="701.323"/>
      <point x="900.123" y="832.016"/>
      <point x="806.245" y="900.123"/>
      <point x="668.189" y="920.371"/>
      <point x="579.834" y="920.371" type="qcurve"/>
      <point x="543.019" y="920.371"/>
      <point x="463.867" y="892.76"/>
      <point x="393.919" y="844.901"/>
      <point x="349.741" y="785.997"/>
      <point x="349.741" y="756.545" type="qcurve"/>
      <point x="349.741" y="1082.36" type="line"/>
      <point x="349.741" y="1132.06"/>
      <point x="344.219" y="1200.16"/>
      <point x="325.811" y="1246.18"/>
      <point x="294.519" y="1275.63"/>
      <point x="268.748" y="1284.84" type="qcurve"/>
      <point x="73.6297" y="1207.53" type="line"/>
      <point x="77.3112" y="1203.85" type="line"/>
      <point x="95.7186" y="1181.76"/>
      <point x="117.808" y="1133.9"/>
      <point x="119.648" y="1082.36" type="qcurve"/>
      <point x="119.648" y="138.056" type="line"/>
      <point x="119.648" y="55.2223"/>
      <point x="222.73" y="-23.9297"/>
      <point x="305.563" y="-23.9297" type="qcurve"/>
      <point x="336.856" y="-23.9297"/>
      <point x="406.804" y="1.84074"/>
      <point x="463.867" y="46.0186"/>
      <point x="500.682" y="108.604"/>
      <point x="500.682" y="145.419" type="qcurve"/>
      <point x="473.071" y="117.808"/>
      <point x="436.256" y="117.808" type="qcurve"/>
      <point x="397.6" y="117.808"/>
      <point x="349.741" y="176.711"/>
      <point x="349.741" y="263.226" type="qcurve"/>
      <point x="349.741" y="675.552" type="line"/>
      <point x="349.741" y="697.641"/>
      <point x="377.352" y="758.386"/>
      <point x="427.052" y="813.608"/>
      <point x="497" y="852.264"/>
      <point x="541.178" y="852.264" type="qcurve"/>
      <point x="636.897" y="852.264"/>
      <point x="717.89" y="769.43"/>
      <point x="717.89" y="675.552" type="qcurve"/>
      <point x="717.89" y="147.259" type="line"/>
      <point x="717.89" y="60.7445"/>
      <point x="808.086" y="-23.9297"/>
      <point x="857.786" y="-23.9297" type="qcurve"/>
      <point x="901.964" y="-23.9297"/>
      <point x="988.479" y="-1.84074"/>
      <point x="1056.59" y="42.3371"/>
      <point x="1098.92" y="104.922"/>
      <point x="1098.92" y="145.419" type="qcurve"/>
      <point x="1071.31" y="117.808"/>
      <point x="1034.5" y="117.808" type="qcurve"/>
      <point x="994.001" y="117.808"/>
      <point x="947.982" y="184.074"/>
      <point x="947.982" y="268.748" type="qcurve"/>
      <point x="947.982" y="548.541" type="line"/>
      <point x="1063.95" y="577.993" type="line"/>
      <point x="1069.47" y="484.115"/>
      <point x="1165.19" y="406.804"/>
      <point x="1238.82" y="406.804" type="qcurve"/>
      <point x="1260.91" y="406.804" type="line"/>
      <point x="1290.36" y="408.645"/>
      <point x="1354.79" y="438.097"/>
      <point x="1408.17" y="489.637"/>
      <point x="1443.14" y="563.267"/>
    </contour>
  </outline>
</glyph>
<glyph name="uni120A" format="2">
  <advance width="1495"/>
  <unicode hex="120A"/>
  <outline>
    <contour>
      <point x="1478.12" y="110.445" type="qcurve"/>
      <point x="1448.66" y="77.3112"/>
      <point x="1415.53" y="75.4704" type="qcurve"/>
      <point x="1397.12" y="75.4704"/>
      <point x="1358.47" y="95.7186"/>
      <point x="1329.02" y="130.693"/>
      <point x="1306.93" y="174.871"/>
      <point x="1305.09" y="198.8" type="qcurve"/>
      <point x="1277.48" y="204.322"/>
      <point x="1248.02" y="204.322" type="qcurve"/>
      <point x="1181.76" y="204.322"/>
      <point x="1086.04" y="138.056"/>
      <point x="1086.04" y="79.1519" type="qcurve"/>
      <point x="1021.61" y="60.7445" type="line"/>
      <point x="1014.25" y="58.9038"/>
      <point x="1003.2" y="57.063"/>
      <point x="997.682" y="57.063" type="qcurve"/>
      <point x="981.116" y="57.063"/>
      <point x="960.868" y="73.6297"/>
      <point x="949.823" y="117.808"/>
      <point x="947.982" y="198.8"/>
      <point x="947.982" y="263.226" type="qcurve"/>
      <point x="947.982" y="592.719" type="line"/>
      <point x="947.982" y="703.164"/>
      <point x="898.282" y="833.856"/>
      <point x="804.404" y="900.123"/>
      <point x="668.189" y="920.371"/>
      <point x="579.834" y="920.371" type="qcurve"/>
      <point x="543.019" y="920.371"/>
      <point x="463.867" y="892.76"/>
      <point x="393.919" y="844.901"/>
      <point x="349.741" y="785.997"/>
      <point x="349.741" y="756.545" type="qcurve"/>
      <point x="349.741" y="1082.36" type="line"/>
      <point x="349.741" y="1132.06"/>
      <point x="344.219" y="1200.16"/>
      <point x="325.811" y="1246.18"/>
      <point x="294.519" y="1275.63"/>
      <point x="268.748" y="1284.84" type="qcurve"/>
      <point x="73.6297" y="1207.53" type="line"/>
      <point x="77.3112" y="1203.85" type="line"/>
      <point x="95.7186" y="1181.76"/>
      <point x="117.808" y="1133.9"/>
      <point x="119.648" y="1082.36" type="qcurve"/>
      <point x="119.648" y="138.056" type="line"/>
      <point x="119.648" y="55.2223"/>
      <point x="222.73" y="-23.9297"/>
      <point x="305.563" y="-23.9297" type="qcurve"/>
      <point x="336.856" y="-23.9297"/>
      <point x="406.804" y="1.84074"/>
      <point x="463.867" y="46.0186"/>
      <point x="500.682" y="108.604"/>
      <point x="500.682" y="145.419" type="qcurve"/>
      <point x="473.071" y="117.808"/>
      <point x="436.256" y="117.808" type="qcurve"/>
      <point x="397.6" y="117.808"/>
      <point x="349.741" y="176.711"/>
      <point x="349.741" y="263.226" type="qcurve"/>
      <point x="349.741" y="675.552" type="line"/>
      <point x="349.741" y="697.641"/>
      <point x="377.352" y="760.227"/>
      <point x="428.893" y="815.449"/>
      <point x="502.523" y="854.104"/>
      <point x="548.541" y="854.104" type="qcurve"/>
      <point x="638.738" y="854.104"/>
      <point x="717.89" y="769.43"/>
      <point x="717.89" y="675.552" type="qcurve"/>
      <point x="717.89" y="139.896" type="line"/>
      <point x="717.89" y="-23.9297"/>
      <point x="855.945" y="-23.9297" type="qcurve"/>
      <point x="1086.04" y="38.6556" type="line"/>
      <point x="1097.08" y="1.84074"/>
      <point x="1130.22" y="-42.3371"/>
      <point x="1179.92" y="-68.1075"/>
      <point x="1249.86" y="-75.4704"/>
      <point x="1297.72" y="-75.4704" type="qcurve"/>
      <point x="1327.18" y="-73.6297"/>
      <point x="1391.6" y="-46.0186"/>
      <point x="1444.98" y="3.68148"/>
      <point x="1478.12" y="69.9482"/>
    </contour>
  </outline>
</glyph>
<glyph name="uni120B" format="2">
  <advance width="607"/>
  <unicode hex="120B"/>
  <outline>
    <contour>
      <point x="597" y="81" type="qcurve"/>
      <point x="582" y="66"/>
      <point x="562" y="66" type="qcurve"/>
      <point x="540" y="66"/>
      <point x="515" y="102"/>
      <point x="515" y="148" type="qcurve"/>
      <point x="515" y="324" type="line"/>
      <point x="515" y="384"/>
      <point x="488" y="455"/>
      <point x="437" y="491"/>
      <point x="363" y="502"/>
      <point x="315" y="502" type="qcurve"/>
      <point x="295" y="502"/>
      <point x="252" y="487"/>
      <point x="214" y="461"/>
      <point x="190" y="429"/>
      <point x="190" y="413" type="qcurve"/>
      <point x="190" y="590" type="line"/>
      <point x="190" y="617"/>
      <point x="187" y="654"/>
      <point x="177" y="679"/>
      <point x="160" y="695"/>
      <point x="146" y="700" type="qcurve"/>
      <point x="40" y="658" type="line"/>
      <point x="42" y="656" type="line"/>
      <point x="52" y="644"/>
      <point x="64" y="618"/>
      <point x="65" y="590" type="qcurve"/>
      <point x="65" y="233" type="line"/>
      <point x="65" y="187"/>
      <point x="121" y="145"/>
      <point x="166" y="145" type="qcurve"/>
      <point x="183" y="145"/>
      <point x="220" y="158"/>
      <point x="252" y="182"/>
      <point x="272" y="216"/>
      <point x="272" y="236" type="qcurve"/>
      <point x="255" y="221"/>
      <point x="237" y="221" type="qcurve"/>
      <point x="216" y="221"/>
      <point x="190" y="255"/>
      <point x="190" y="300" type="qcurve"/>
      <point x="190" y="369" type="line"/>
      <point x="190" y="381"/>
      <point x="205" y="415"/>
      <point x="233" y="445"/>
      <point x="274" y="466"/>
      <point x="300" y="466" type="qcurve"/>
      <point x="348" y="466"/>
      <point x="390" y="420"/>
      <point x="390" y="369" type="qcurve"/>
      <point x="390" y="82" type="line"/>
      <point x="390" y="35"/>
      <point x="439" y="-11"/>
      <point x="466" y="-11" type="qcurve"/>
      <point x="490" y="-11"/>
      <point x="537" y="1"/>
      <point x="574" y="25"/>
      <point x="597" y="59"/>
    </contour>
  </outline>
</glyph>
<glyph name="uni120C" format="2">
  <advance width="689"/>
  <unicode hex="120C"/>
  <outline>
    <contour>
      <point x="591" y="71" type="line"/>
      <point x="591" y="37"/>
      <point x="561" y="6"/>
      <point x="541" y="6" type="qcurve"/>
      <point x="526" y="6"/>
      <point x="516" y="11"/>
      <point x="516" y="19" type="qcurve"/>
      <point x="516" y="163" type="line"/>
      <point x="516" y="178"/>
      <point x="539" y="208"/>
      <point x="552" y="208" type="qcurve"/>
      <point x="570" y="208"/>
      <point x="591" y="184"/>
      <point x="591" y="153" type="qcurve"/>
    </contour>
    <contour>
      <point x="678" y="78" type="qcurve"/>
      <point x="678" y="166" type="line"/>
      <point x="678" y="234"/>
      <point x="578" y="234" type="qcurve"/>
      <point x="551" y="234"/>
      <point x="517" y="207"/>
      <point x="516" y="190" type="qcurve"/>
      <point x="516" y="324" type="line"/>
      <point x="516" y="383"/>
      <point x="490" y="454"/>
      <point x="440" y="491"/>
      <point x="364" y="503"/>
      <point x="315" y="503" type="qcurve"/>
      <point x="295" y="503"/>
      <point x="252" y="488"/>
      <point x="214" y="462"/>
      <point x="190" y="430"/>
      <point x="190" y="414" type="qcurve"/>
      <point x="190" y="592" type="line"/>
      <point x="190" y="619"/>
      <point x="187" y="656"/>
      <point x="177" y="681"/>
      <point x="160" y="697"/>
      <point x="146" y="702" type="qcurve"/>
      <point x="40" y="660" type="line"/>
      <point x="42" y="658" type="line"/>
      <point x="52" y="646"/>
      <point x="64" y="620"/>
      <point x="65" y="592" type="qcurve"/>
      <point x="65" y="77" type="line"/>
      <point x="65" y="32"/>
      <point x="121" y="-11"/>
      <point x="166" y="-11" type="qcurve"/>
      <point x="183" y="-11"/>
      <point x="221" y="3"/>
      <point x="252" y="27"/>
      <point x="272" y="61"/>
      <point x="272" y="81" type="qcurve"/>
      <point x="255" y="66"/>
      <point x="237" y="66" type="qcurve"/>
      <point x="216" y="66"/>
      <point x="190" y="99"/>
      <point x="190" y="146" type="qcurve"/>
      <point x="190" y="370" type="line"/>
      <point x="190" y="383"/>
      <point x="205" y="417"/>
      <point x="233" y="447"/>
      <point x="273" y="468"/>
      <point x="298" y="468" type="qcurve"/>
      <point x="349" y="468"/>
      <point x="390" y="421"/>
      <point x="390" y="370" type="qcurve"/>
      <point x="390" y="78" type="line"/>
      <point x="390" y="33"/>
      <point x="439" y="-11"/>
      <point x="466" y="-11" type="qcurve"/>
      <point x="495" y="-8"/>
      <point x="515" y="-2"/>
      <point x="515" y="0" type="qcurve"/>
      <point x="516" y="-6"/>
      <point x="551" y="-11"/>
      <point x="578" y="-11" type="qcurve"/>
      <point x="589" y="-11"/>
      <point x="623" y="-1"/>
      <point x="655" y="21"/>
      <point x="678" y="55"/>
    </contour>
  </outline>
</glyph>
<glyph name="uni120D" format="2">
  <advance width="1259"/>
  <unicode hex="120D"/>
  <outline>
    <contour>
      <point x="1236.98" y="149.1" type="qcurve"/>
      <point x="1205.69" y="121.489"/>
      <point x="1172.55" y="121.489" type="qcurve"/>
      <point x="1132.06" y="121.489"/>
      <point x="1086.04" y="187.756"/>
      <point x="1086.04" y="272.43" type="qcurve"/>
      <point x="1086.04" y="598.241" type="line"/>
      <point x="1086.04" y="708.686"/>
      <point x="1012.41" y="839.379"/>
      <point x="892.76" y="905.645"/>
      <point x="738.138" y="925.893"/>
      <point x="657.145" y="925.893" type="qcurve"/>
      <point x="568.789" y="925.893"/>
      <point x="404.963" y="832.016"/>
      <point x="349.741" y="762.067" type="qcurve"/>
      <point x="349.741" y="1089.72" type="line"/>
      <point x="349.741" y="1139.42"/>
      <point x="344.219" y="1207.53"/>
      <point x="325.811" y="1253.55"/>
      <point x="294.519" y="1283"/>
      <point x="268.748" y="1292.2" type="qcurve"/>
      <point x="73.6297" y="1214.89" type="line"/>
      <point x="77.3112" y="1211.21" type="line"/>
      <point x="95.7186" y="1189.12"/>
      <point x="117.808" y="1141.26"/>
      <point x="119.648" y="1089.72" type="qcurve"/>
      <point x="119.648" y="141.737" type="line"/>
      <point x="119.648" y="53.3815"/>
      <point x="237.456" y="-20.2482"/>
      <point x="349.741" y="-20.2482" type="qcurve"/>
      <point x="450.982" y="-20.2482"/>
      <point x="576.152" y="-7.36297"/>
      <point x="644.26" y="34.9741"/>
      <point x="666.349" y="115.967"/>
      <point x="666.349" y="185.915" type="qcurve"/>
      <point x="666.349" y="298.2"/>
      <point x="642.419" y="408.645"/>
      <point x="609.286" y="434.415" type="qcurve"/>
      <point x="592.719" y="447.3"/>
      <point x="554.063" y="462.026"/>
      <point x="495.16" y="469.389"/>
      <point x="410.486" y="471.23"/>
      <point x="349.741" y="471.23" type="qcurve"/>
      <point x="349.741" y="681.075" type="line"/>
      <point x="351.582" y="697.641"/>
      <point x="393.919" y="754.704"/>
      <point x="463.867" y="806.245"/>
      <point x="559.586" y="844.901"/>
      <point x="614.808" y="844.901" type="qcurve"/>
      <point x="730.775" y="844.901"/>
      <point x="855.945" y="760.227"/>
      <point x="855.945" y="681.075" type="qcurve"/>
      <point x="855.945" y="150.941" type="line"/>
      <point x="855.945" y="64.426"/>
      <point x="946.142" y="-20.2482"/>
      <point x="995.842" y="-20.2482" type="qcurve"/>
      <point x="1040.02" y="-20.2482"/>
      <point x="1126.53" y="1.84074"/>
      <point x="1194.64" y="46.0186"/>
      <point x="1236.98" y="108.604"/>
    </contour>
    <contour>
      <point x="482.275" y="143.578" type="qcurve"/>
      <point x="482.275" y="127.011"/>
      <point x="478.593" y="84.6742"/>
      <point x="462.026" y="47.8593"/>
      <point x="427.052" y="22.0889"/>
      <point x="395.76" y="22.0889" type="qcurve"/>
      <point x="371.83" y="22.0889"/>
      <point x="349.741" y="104.922"/>
      <point x="349.741" y="215.367" type="qcurve"/>
      <point x="349.741" y="432.574" type="line"/>
      <point x="401.282" y="432.574"/>
      <point x="454.663" y="410.486"/>
      <point x="465.708" y="381.034" type="qcurve"/>
      <point x="476.752" y="353.423"/>
      <point x="482.275" y="254.022"/>
    </contour>
  </outline>
</glyph>
<glyph name="uni120E" format="2">
  <advance width="876"/>
  <unicode hex="120E"/>
  <outline>
    <contour>
      <point x="865" y="325" type="qcurve"/>
      <point x="865" y="358"/>
      <point x="845" y="399"/>
      <point x="815" y="422"/>
      <point x="783" y="430"/>
      <point x="771" y="430" type="qcurve"/>
      <point x="769" y="430" type="line"/>
      <point x="767" y="430"/>
      <point x="766" y="429" type="qcurve"/>
      <point x="763" y="429" type="line"/>
      <point x="738" y="421"/>
      <point x="693" y="408"/>
      <point x="634" y="391"/>
      <point x="551" y="366"/>
      <point x="490" y="347" type="qcurve"/>
      <point x="487" y="400"/>
      <point x="457" y="462"/>
      <point x="410" y="494"/>
      <point x="349" y="503"/>
      <point x="315" y="503" type="qcurve"/>
      <point x="295" y="503"/>
      <point x="252" y="488"/>
      <point x="214" y="462"/>
      <point x="190" y="430"/>
      <point x="190" y="414" type="qcurve"/>
      <point x="190" y="592" type="line"/>
      <point x="190" y="619"/>
      <point x="187" y="656"/>
      <point x="177" y="681"/>
      <point x="160" y="697"/>
      <point x="146" y="702" type="qcurve"/>
      <point x="40" y="660" type="line"/>
      <point x="42" y="658" type="line"/>
      <point x="52" y="646"/>
      <point x="64" y="620"/>
      <point x="65" y="592" type="qcurve"/>
      <point x="65" y="77" type="line"/>
      <point x="65" y="32"/>
      <point x="121" y="-11"/>
      <point x="166" y="-11" type="qcurve"/>
      <point x="183" y="-11"/>
      <point x="221" y="3"/>
      <point x="252" y="27"/>
      <point x="272" y="61"/>
      <point x="272" y="81" type="qcurve"/>
      <point x="255" y="66"/>
      <point x="237" y="66" type="qcurve"/>
      <point x="216" y="66"/>
      <point x="190" y="99"/>
      <point x="190" y="146" type="qcurve"/>
      <point x="190" y="370" type="line"/>
      <point x="190" y="383"/>
      <point x="204" y="418"/>
      <point x="229" y="449"/>
      <point x="263" y="470"/>
      <point x="283" y="470" type="qcurve"/>
      <point x="326" y="470"/>
      <point x="365" y="424"/>
      <point x="365" y="370" type="qcurve"/>
      <point x="365" y="82" type="line"/>
      <point x="365" y="35"/>
      <point x="414" y="-11"/>
      <point x="441" y="-11" type="qcurve"/>
      <point x="465" y="-11"/>
      <point x="512" y="1"/>
      <point x="549" y="25"/>
      <point x="572" y="59"/>
      <point x="572" y="81" type="qcurve"/>
      <point x="555" y="66"/>
      <point x="537" y="66" type="qcurve"/>
      <point x="515" y="66"/>
      <point x="490" y="102"/>
      <point x="490" y="148" type="qcurve"/>
      <point x="490" y="325" type="line"/>
      <point x="565" y="347" type="line"/>
      <point x="565" y="265"/>
      <point x="594" y="192"/>
      <point x="615" y="192" type="qcurve"/>
      <point x="630" y="192"/>
      <point x="673" y="209"/>
      <point x="690" y="214" type="qcurve"/>
      <point x="749" y="221"/>
      <point x="815" y="236"/>
      <point x="849" y="259"/>
      <point x="861" y="296"/>
    </contour>
    <contour>
      <point x="767" y="285" type="qcurve"/>
      <point x="767" y="265"/>
      <point x="745" y="236"/>
      <point x="715" y="236" type="qcurve"/>
      <point x="697" y="236"/>
      <point x="684" y="264"/>
      <point x="679" y="293" type="qcurve"/>
      <point x="677" y="310"/>
      <point x="671" y="332"/>
      <point x="671" y="344" type="qcurve"/>
      <point x="671" y="362"/>
      <point x="690" y="390"/>
      <point x="710" y="390" type="qcurve"/>
      <point x="724" y="390"/>
      <point x="746" y="370"/>
      <point x="760" y="339"/>
      <point x="767" y="302"/>
    </contour>
  </outline>
</glyph>
<glyph name="uni120F" format="2">
  <advance width="745"/>
  <unicode hex="120F"/>
  <outline>
    <contour>
      <point x="733" y="28" type="qcurve"/>
      <point x="719" y="17"/>
      <point x="701" y="17" type="qcurve"/>
      <point x="662" y="17"/>
      <point x="662" y="72" type="qcurve"/>
      <point x="515" y="72" type="line"/>
      <point x="515" y="324" type="line"/>
      <point x="515" y="384"/>
      <point x="488" y="455"/>
      <point x="437" y="491"/>
      <point x="363" y="502"/>
      <point x="315" y="502" type="qcurve"/>
      <point x="296" y="502"/>
      <point x="253" y="487"/>
      <point x="216" y="463"/>
      <point x="191" y="432"/>
      <point x="190" y="416" type="qcurve"/>
      <point x="190" y="590" type="line"/>
      <point x="190" y="617"/>
      <point x="187" y="654"/>
      <point x="177" y="679"/>
      <point x="160" y="695"/>
      <point x="146" y="700" type="qcurve"/>
      <point x="40" y="658" type="line"/>
      <point x="42" y="656" type="line"/>
      <point x="52" y="644"/>
      <point x="64" y="618"/>
      <point x="65" y="590" type="qcurve"/>
      <point x="65" y="233" type="line"/>
      <point x="65" y="187"/>
      <point x="121" y="145"/>
      <point x="166" y="145" type="qcurve"/>
      <point x="183" y="145"/>
      <point x="220" y="158"/>
      <point x="252" y="182"/>
      <point x="272" y="216"/>
      <point x="272" y="236" type="qcurve"/>
      <point x="255" y="221"/>
      <point x="237" y="221" type="qcurve"/>
      <point x="216" y="221"/>
      <point x="190" y="255"/>
      <point x="190" y="300" type="qcurve"/>
      <point x="190" y="369" type="line"/>
      <point x="190" y="381"/>
      <point x="205" y="415"/>
      <point x="233" y="445"/>
      <point x="274" y="466"/>
      <point x="300" y="466" type="qcurve"/>
      <point x="348" y="466"/>
      <point x="390" y="420"/>
      <point x="390" y="369" type="qcurve"/>
      <point x="390" y="72" type="line"/>
      <point x="247" y="72" type="line"/>
      <point x="247" y="17"/>
      <point x="208" y="17" type="qcurve"/>
      <point x="190" y="17"/>
      <point x="176" y="28" type="qcurve"/>
      <point x="182" y="2"/>
      <point x="205" y="-32"/>
      <point x="234" y="-52"/>
      <point x="266" y="-60"/>
      <point x="280" y="-60" type="qcurve"/>
      <point x="320" y="-60"/>
      <point x="365" y="-17"/>
      <point x="365" y="13" type="qcurve"/>
      <point x="365" y="14" type="line"/>
      <point x="365" y="22"/>
      <point x="362" y="39"/>
      <point x="360" y="49" type="qcurve"/>
      <point x="549" y="49" type="line"/>
      <point x="547" y="39"/>
      <point x="544" y="22"/>
      <point x="544" y="14" type="qcurve"/>
      <point x="544" y="13" type="line"/>
      <point x="544" y="-17"/>
      <point x="589" y="-60"/>
      <point x="629" y="-60" type="qcurve"/>
      <point x="643" y="-60"/>
      <point x="675" y="-52"/>
      <point x="704" y="-32"/>
      <point x="727" y="2"/>
    </contour>
  </outline>
</glyph>
<glyph name="uni1210" format="2">
  <advance width="805"/>
  <unicode hex="1210"/>
  <outline>
    <contour>
      <point x="797" y="81" type="qcurve"/>
      <point x="781" y="65"/>
      <point x="762" y="65" type="qcurve"/>
      <point x="740" y="65"/>
      <point x="715" y="102"/>
      <point x="715" y="147" type="qcurve"/>
      <point x="715" y="263" type="line"/>
      <point x="715" y="308"/>
      <point x="698" y="365"/>
      <point x="662" y="399"/>
      <point x="606" y="412"/>
      <point x="567" y="412" type="qcurve"/>
      <point x="555" y="412"/>
      <point x="519" y="412" type="qcurve"/>
      <point x="483" y="412"/>
      <point x="440" y="404" type="qcurve"/>
      <point x="440" y="609" type="line"/>
      <point x="440" y="637"/>
      <point x="436" y="671"/>
      <point x="426" y="691"/>
      <point x="406" y="698"/>
      <point x="390" y="698" type="qcurve"/>
      <point x="265" y="652" type="line"/>
      <point x="282" y="650"/>
      <point x="302" y="642"/>
      <point x="312" y="627"/>
      <point x="315" y="602"/>
      <point x="315" y="583" type="qcurve"/>
      <point x="315" y="394" type="line"/>
      <point x="217" y="379"/>
      <point x="106" y="312"/>
      <point x="52" y="225"/>
      <point x="40" y="126"/>
      <point x="40" y="78" type="qcurve"/>
      <point x="40" y="32"/>
      <point x="89" y="-14"/>
      <point x="116" y="-14" type="qcurve"/>
      <point x="140" y="-14"/>
      <point x="187" y="-1"/>
      <point x="224" y="23"/>
      <point x="247" y="58"/>
      <point x="247" y="81" type="qcurve"/>
      <point x="231" y="65"/>
      <point x="212" y="65" type="qcurve"/>
      <point x="190" y="65"/>
      <point x="165" y="102"/>
      <point x="165" y="147" type="qcurve"/>
      <point x="169" y="191"/>
      <point x="191" y="270"/>
      <point x="228" y="331"/>
      <point x="280" y="368"/>
      <point x="315" y="370" type="qcurve"/>
      <point x="315" y="78" type="line"/>
      <point x="315" y="32"/>
      <point x="364" y="-14"/>
      <point x="391" y="-14" type="qcurve"/>
      <point x="415" y="-14"/>
      <point x="462" y="-1"/>
      <point x="499" y="23"/>
      <point x="522" y="58"/>
      <point x="522" y="81" type="qcurve"/>
      <point x="506" y="65"/>
      <point x="487" y="65" type="qcurve"/>
      <point x="465" y="65"/>
      <point x="440" y="102"/>
      <point x="440" y="147" type="qcurve"/>
      <point x="440" y="388" type="line"/>
      <point x="466" y="389"/>
      <point x="499" y="390"/>
      <point x="513" y="390" type="qcurve"/>
      <point x="539" y="390"/>
      <point x="570" y="375"/>
      <point x="586" y="344"/>
      <point x="590" y="296"/>
      <point x="590" y="263" type="qcurve"/>
      <point x="590" y="78" type="line"/>
      <point x="590" y="32"/>
      <point x="639" y="-14"/>
      <point x="666" y="-14" type="qcurve"/>
      <point x="690" y="-14"/>
      <point x="737" y="-1"/>
      <point x="774" y="23"/>
      <point x="797" y="58"/>
    </contour>
  </outline>
</glyph>
<glyph name="uni1211" format="2">
  <advance width="993"/>
  <unicode hex="1211"/>
  <outline>
    <contour>
      <point x="984" y="294" type="qcurve"/>
      <point x="968" y="276"/>
      <point x="950" y="275" type="qcurve"/>
      <point x="941" y="275"/>
      <point x="920" y="286"/>
      <point x="902" y="303"/>
      <point x="890" y="324"/>
      <point x="889" y="333" type="qcurve"/>
      <point x="715" y="282" type="line"/>
      <point x="713" y="319"/>
      <point x="695" y="369"/>
      <point x="659" y="397"/>
      <point x="605" y="409"/>
      <point x="567" y="409" type="qcurve"/>
      <point x="555" y="409"/>
      <point x="519" y="409" type="qcurve"/>
      <point x="483" y="409"/>
      <point x="440" y="401" type="qcurve"/>
      <point x="440" y="609" type="line"/>
      <point x="440" y="637"/>
      <point x="436" y="671"/>
      <point x="426" y="691"/>
      <point x="406" y="698"/>
      <point x="390" y="698" type="qcurve"/>
      <point x="265" y="652" type="line"/>
      <point x="282" y="650"/>
      <point x="302" y="642"/>
      <point x="312" y="627"/>
      <point x="315" y="602"/>
      <point x="315" y="583" type="qcurve"/>
      <point x="315" y="391" type="line"/>
      <point x="217" y="376"/>
      <point x="106" y="310"/>
      <point x="52" y="225"/>
      <point x="40" y="127"/>
      <point x="40" y="79" type="qcurve"/>
      <point x="40" y="33"/>
      <point x="89" y="-13"/>
      <point x="116" y="-13" type="qcurve"/>
      <point x="140" y="-13"/>
      <point x="187" y="0"/>
      <point x="224" y="24"/>
      <point x="247" y="59"/>
      <point x="247" y="82" type="qcurve"/>
      <point x="231" y="66"/>
      <point x="212" y="66" type="qcurve"/>
      <point x="190" y="66"/>
      <point x="165" y="103"/>
      <point x="165" y="148" type="qcurve"/>
      <point x="169" y="191"/>
      <point x="191" y="270"/>
      <point x="228" y="330"/>
      <point x="280" y="367"/>
      <point x="315" y="369" type="qcurve"/>
      <point x="315" y="79" type="line"/>
      <point x="315" y="33"/>
      <point x="364" y="-13"/>
      <point x="391" y="-13" type="qcurve"/>
      <point x="415" y="-13"/>
      <point x="462" y="0"/>
      <point x="499" y="24"/>
      <point x="522" y="59"/>
      <point x="522" y="82" type="qcurve"/>
      <point x="506" y="66"/>
      <point x="487" y="66" type="qcurve"/>
      <point x="465" y="66"/>
      <point x="440" y="103"/>
      <point x="440" y="148" type="qcurve"/>
      <point x="440" y="382" type="line"/>
      <point x="483" y="388"/>
      <point x="513" y="388" type="qcurve"/>
      <point x="539" y="388"/>
      <point x="570" y="373"/>
      <point x="586" y="342"/>
      <point x="590" y="293"/>
      <point x="590" y="260" type="qcurve"/>
      <point x="590" y="79" type="line"/>
      <point x="590" y="33"/>
      <point x="639" y="-13"/>
      <point x="666" y="-13" type="qcurve"/>
      <point x="690" y="-13"/>
      <point x="737" y="0"/>
      <point x="774" y="24"/>
      <point x="797" y="59"/>
      <point x="797" y="82" type="qcurve"/>
      <point x="781" y="66"/>
      <point x="762" y="66" type="qcurve"/>
      <point x="740" y="66"/>
      <point x="715" y="103"/>
      <point x="715" y="148" type="qcurve"/>
      <point x="715" y="259" type="line"/>
      <point x="778" y="276" type="line"/>
      <point x="781" y="224"/>
      <point x="833" y="179"/>
      <point x="873" y="179" type="qcurve"/>
      <point x="885" y="179" type="line"/>
      <point x="901" y="180"/>
      <point x="937" y="197"/>
      <point x="965" y="226"/>
      <point x="984" y="268"/>
    </contour>
  </outline>
</glyph>
<glyph name="uni1212" format="2">
  <advance width="1010"/>
  <unicode hex="1212"/>
  <outline>
    <contour>
      <point x="1003" y="62" type="qcurve"/>
      <point x="985" y="44"/>
      <point x="969" y="43" type="qcurve"/>
      <point x="949" y="43"/>
      <point x="911" y="84"/>
      <point x="909" y="111" type="qcurve"/>
      <point x="898" y="115"/>
      <point x="878" y="115" type="qcurve"/>
      <point x="842" y="115"/>
      <point x="790" y="78"/>
      <point x="790" y="45" type="qcurve"/>
      <point x="755" y="34" type="line"/>
      <point x="753" y="34"/>
      <point x="744" y="32"/>
      <point x="742" y="32" type="qcurve"/>
      <point x="724" y="32"/>
      <point x="715" y="70"/>
      <point x="715" y="125" type="qcurve"/>
      <point x="715" y="265" type="line"/>
      <point x="715" y="310"/>
      <point x="698" y="367"/>
      <point x="662" y="401"/>
      <point x="606" y="414"/>
      <point x="567" y="414" type="qcurve"/>
      <point x="555" y="414"/>
      <point x="519" y="414" type="qcurve"/>
      <point x="483" y="414"/>
      <point x="440" y="406" type="qcurve"/>
      <point x="440" y="610" type="line"/>
      <point x="440" y="638"/>
      <point x="436" y="672"/>
      <point x="426" y="692"/>
      <point x="406" y="699"/>
      <point x="390" y="699" type="qcurve"/>
      <point x="265" y="653" type="line"/>
      <point x="282" y="651"/>
      <point x="302" y="643"/>
      <point x="312" y="628"/>
      <point x="315" y="603"/>
      <point x="315" y="584" type="qcurve"/>
      <point x="315" y="396" type="line"/>
      <point x="217" y="381"/>
      <point x="106" y="314"/>
      <point x="52" y="227"/>
      <point x="40" y="127"/>
      <point x="40" y="79" type="qcurve"/>
      <point x="40" y="33"/>
      <point x="89" y="-13"/>
      <point x="116" y="-13" type="qcurve"/>
      <point x="140" y="-13"/>
      <point x="187" y="0"/>
      <point x="224" y="24"/>
      <point x="247" y="59"/>
      <point x="247" y="82" type="qcurve"/>
      <point x="231" y="66"/>
      <point x="212" y="66" type="qcurve"/>
      <point x="190" y="66"/>
      <point x="165" y="103"/>
      <point x="165" y="148" type="qcurve"/>
      <point x="169" y="191"/>
      <point x="191" y="272"/>
      <point x="228" y="335"/>
      <point x="280" y="374"/>
      <point x="315" y="376" type="qcurve"/>
      <point x="315" y="79" type="line"/>
      <point x="315" y="33"/>
      <point x="364" y="-13"/>
      <point x="391" y="-13" type="qcurve"/>
      <point x="415" y="-13"/>
      <point x="462" y="0"/>
      <point x="499" y="24"/>
      <point x="522" y="59"/>
      <point x="522" y="82" type="qcurve"/>
      <point x="506" y="66"/>
      <point x="487" y="66" type="qcurve"/>
      <point x="465" y="66"/>
      <point x="440" y="103"/>
      <point x="440" y="148" type="qcurve"/>
      <point x="440" y="387" type="line"/>
      <point x="463" y="391"/>
      <point x="499" y="395"/>
      <point x="513" y="395" type="qcurve"/>
      <point x="540" y="395"/>
      <point x="570" y="380"/>
      <point x="586" y="348"/>
      <point x="590" y="299"/>
      <point x="590" y="265" type="qcurve"/>
      <point x="590" y="79" type="line"/>
      <point x="590" y="-13"/>
      <point x="665" y="-13" type="qcurve"/>
      <point x="790" y="22" type="line"/>
      <point x="796" y="1"/>
      <point x="814" y="-24"/>
      <point x="841" y="-37"/>
      <point x="879" y="-42"/>
      <point x="905" y="-42" type="qcurve"/>
      <point x="921" y="-41"/>
      <point x="956" y="-26"/>
      <point x="985" y="1"/>
      <point x="1003" y="39"/>
    </contour>
  </outline>
</glyph>
<glyph name="uni1213" format="2">
  <advance width="804"/>
  <unicode hex="1213"/>
  <outline>
    <contour>
      <point x="797" y="81" type="qcurve"/>
      <point x="781" y="65"/>
      <point x="762" y="65" type="qcurve"/>
      <point x="740" y="65"/>
      <point x="715" y="102"/>
      <point x="715" y="147" type="qcurve"/>
      <point x="715" y="279" type="line"/>
      <point x="715" y="324"/>
      <point x="698" y="381"/>
      <point x="662" y="415"/>
      <point x="606" y="428"/>
      <point x="567" y="428" type="qcurve"/>
      <point x="534" y="428"/>
      <point x="440" y="419" type="qcurve"/>
      <point x="440" y="610" type="line"/>
      <point x="440" y="638"/>
      <point x="436" y="672"/>
      <point x="426" y="692"/>
      <point x="406" y="699"/>
      <point x="390" y="699" type="qcurve"/>
      <point x="265" y="653" type="line"/>
      <point x="282" y="651"/>
      <point x="302" y="643"/>
      <point x="312" y="628"/>
      <point x="315" y="603"/>
      <point x="315" y="584" type="qcurve"/>
      <point x="315" y="409" type="line"/>
      <point x="234" y="393"/>
      <point x="136" y="362"/>
      <point x="79" y="330"/>
      <point x="54" y="294"/>
      <point x="46" y="273" type="qcurve"/>
      <point x="42" y="264"/>
      <point x="40" y="207"/>
      <point x="40" y="170" type="qcurve"/>
      <point x="40" y="124"/>
      <point x="89" y="78"/>
      <point x="116" y="78" type="qcurve"/>
      <point x="140" y="78"/>
      <point x="187" y="91"/>
      <point x="224" y="115"/>
      <point x="247" y="150"/>
      <point x="247" y="173" type="qcurve"/>
      <point x="231" y="157"/>
      <point x="212" y="157" type="qcurve"/>
      <point x="190" y="157"/>
      <point x="165" y="218"/>
      <point x="165" y="263" type="qcurve"/>
      <point x="171" y="296"/>
      <point x="197" y="339"/>
      <point x="234" y="366"/>
      <point x="281" y="381"/>
      <point x="307" y="386" type="qcurve"/>
      <point x="315" y="388" type="line"/>
      <point x="315" y="170" type="line"/>
      <point x="315" y="124"/>
      <point x="364" y="78"/>
      <point x="391" y="78" type="qcurve"/>
      <point x="415" y="78"/>
      <point x="462" y="91"/>
      <point x="499" y="115"/>
      <point x="522" y="150"/>
      <point x="522" y="173" type="qcurve"/>
      <point x="506" y="157"/>
      <point x="487" y="157" type="qcurve"/>
      <point x="465" y="157"/>
      <point x="440" y="218"/>
      <point x="440" y="263" type="qcurve"/>
      <point x="440" y="397" type="line"/>
      <point x="463" y="401"/>
      <point x="497" y="402"/>
      <point x="513" y="403" type="qcurve"/>
      <point x="540" y="403"/>
      <point x="570" y="388"/>
      <point x="586" y="358"/>
      <point x="590" y="311"/>
      <point x="590" y="279" type="qcurve"/>
      <point x="590" y="78" type="line"/>
      <point x="590" y="32"/>
      <point x="639" y="-14"/>
      <point x="666" y="-14" type="qcurve"/>
      <point x="690" y="-14"/>
      <point x="737" y="-1"/>
      <point x="774" y="23"/>
      <point x="797" y="58"/>
    </contour>
  </outline>
</glyph>
<glyph name="uni1214" format="2">
  <advance width="1637"/>
  <unicode hex="1214"/>
  <outline>
    <contour>
      <point x="1616.17" y="145.419" type="qcurve"/>
      <point x="1616.17" y="312.926" type="line"/>
      <point x="1616.17" y="379.193"/>
      <point x="1525.98" y="439.937"/>
      <point x="1432.1" y="439.937" type="qcurve"/>
      <point x="1382.4" y="439.937"/>
      <point x="1319.81" y="388.397"/>
      <point x="1317.97" y="357.104" type="qcurve"/>
      <point x="1316.13" y="485.956" type="line"/>
      <point x="1316.13" y="568.789"/>
      <point x="1284.84" y="673.712"/>
      <point x="1218.57" y="736.297"/>
      <point x="1115.49" y="760.227"/>
      <point x="1043.7" y="760.227" type="qcurve"/>
      <point x="1021.61" y="760.227"/>
      <point x="955.345" y="760.227" type="qcurve"/>
      <point x="889.079" y="760.227"/>
      <point x="809.927" y="745.501" type="qcurve"/>
      <point x="809.927" y="1124.69" type="line"/>
      <point x="809.927" y="1176.23"/>
      <point x="802.564" y="1238.82"/>
      <point x="784.156" y="1275.63"/>
      <point x="747.341" y="1288.52"/>
      <point x="717.89" y="1288.52" type="qcurve"/>
      <point x="487.797" y="1203.85" type="line"/>
      <point x="519.089" y="1200.16"/>
      <point x="555.904" y="1185.44"/>
      <point x="574.312" y="1157.83"/>
      <point x="579.834" y="1111.81"/>
      <point x="579.834" y="1076.83" type="qcurve"/>
      <point x="579.834" y="727.093" type="line"/>
      <point x="399.441" y="699.482"/>
      <point x="195.119" y="576.152"/>
      <point x="95.7186" y="416.008"/>
      <point x="73.6297" y="233.774"/>
      <point x="73.6297" y="145.419" type="qcurve"/>
      <point x="73.6297" y="60.7445"/>
      <point x="163.826" y="-23.9297"/>
      <point x="213.526" y="-23.9297" type="qcurve"/>
      <point x="257.704" y="-23.9297"/>
      <point x="344.219" y="0"/>
      <point x="412.326" y="44.1778"/>
      <point x="454.663" y="108.604"/>
      <point x="454.663" y="150.941" type="qcurve"/>
      <point x="425.211" y="121.489"/>
      <point x="390.237" y="121.489" type="qcurve"/>
      <point x="349.741" y="121.489"/>
      <point x="303.722" y="189.596"/>
      <point x="303.722" y="272.43" type="qcurve"/>
      <point x="311.085" y="353.423"/>
      <point x="351.582" y="500.682"/>
      <point x="419.689" y="614.808"/>
      <point x="515.408" y="684.756"/>
      <point x="579.834" y="688.438" type="qcurve"/>
      <point x="579.834" y="145.419" type="line"/>
      <point x="579.834" y="60.7445"/>
      <point x="670.03" y="-23.9297"/>
      <point x="719.73" y="-23.9297" type="qcurve"/>
      <point x="763.908" y="-23.9297"/>
      <point x="850.423" y="0"/>
      <point x="918.53" y="44.1778"/>
      <point x="960.868" y="108.604"/>
      <point x="960.868" y="150.941" type="qcurve"/>
      <point x="931.416" y="121.489"/>
      <point x="896.442" y="121.489" type="qcurve"/>
      <point x="855.945" y="121.489"/>
      <point x="809.927" y="189.596"/>
      <point x="809.927" y="272.43" type="qcurve"/>
      <point x="809.927" y="708.686" type="line"/>
      <point x="852.264" y="716.049"/>
      <point x="918.53" y="717.89"/>
      <point x="944.301" y="717.89" type="qcurve"/>
      <point x="992.16" y="717.89"/>
      <point x="1049.22" y="692.119"/>
      <point x="1078.68" y="635.056"/>
      <point x="1086.04" y="546.7"/>
      <point x="1086.04" y="485.956" type="qcurve"/>
      <point x="1086.04" y="145.419" type="line"/>
      <point x="1086.04" y="60.7445"/>
      <point x="1176.23" y="-23.9297"/>
      <point x="1225.93" y="-23.9297" type="qcurve"/>
      <point x="1279.32" y="-18.4074"/>
      <point x="1316.13" y="-5.52223"/>
      <point x="1316.13" y="-3.68148" type="qcurve"/>
      <point x="1317.97" y="-16.5667"/>
      <point x="1382.4" y="-23.9297"/>
      <point x="1432.1" y="-23.9297" type="qcurve"/>
      <point x="1452.35" y="-23.9297"/>
      <point x="1514.93" y="-3.68148"/>
      <point x="1573.83" y="38.6556"/>
      <point x="1616.17" y="101.241"/>
    </contour>
    <contour>
      <point x="1456.03" y="130.693" type="line"/>
      <point x="1456.03" y="66.2667"/>
      <point x="1400.8" y="7.36297"/>
      <point x="1363.99" y="7.36297" type="qcurve"/>
      <point x="1336.38" y="7.36297"/>
      <point x="1317.97" y="14.7259"/>
      <point x="1317.97" y="31.2926" type="qcurve"/>
      <point x="1317.97" y="307.404" type="line"/>
      <point x="1317.97" y="336.856"/>
      <point x="1360.31" y="392.078"/>
      <point x="1384.24" y="392.078" type="qcurve"/>
      <point x="1417.37" y="392.078"/>
      <point x="1456.03" y="344.219"/>
      <point x="1456.03" y="287.156" type="qcurve"/>
    </contour>
  </outline>
</glyph>
<glyph name="uni1215" format="2">
  <advance width="1486"/>
  <unicode hex="1215"/>
  <outline>
    <contour>
      <point x="1467.07" y="150.941" type="qcurve"/>
      <point x="1437.62" y="121.489"/>
      <point x="1402.65" y="121.489" type="qcurve"/>
      <point x="1362.15" y="121.489"/>
      <point x="1316.13" y="189.596"/>
      <point x="1316.13" y="272.43" type="qcurve"/>
      <point x="1316.13" y="443.619" type="line"/>
      <point x="1316.13" y="526.452"/>
      <point x="1284.84" y="631.375"/>
      <point x="1218.57" y="693.96"/>
      <point x="1115.49" y="717.89"/>
      <point x="1043.7" y="717.89" type="qcurve"/>
      <point x="1021.61" y="717.89"/>
      <point x="955.345" y="717.89" type="qcurve"/>
      <point x="889.079" y="717.89"/>
      <point x="809.927" y="703.164" type="qcurve"/>
      <point x="809.927" y="975.593" type="line"/>
      <point x="809.927" y="1027.13"/>
      <point x="802.564" y="1089.72"/>
      <point x="784.156" y="1126.53"/>
      <point x="747.341" y="1139.42"/>
      <point x="717.89" y="1139.42" type="qcurve"/>
      <point x="498.841" y="1089.72" type="line"/>
      <point x="498.841" y="1106.29" type="line"/>
      <point x="500.682" y="1111.81"/>
      <point x="500.682" y="1121.01" type="qcurve"/>
      <point x="500.682" y="1198.32"/>
      <point x="412.326" y="1290.36"/>
      <point x="323.971" y="1290.36" type="qcurve"/>
      <point x="261.385" y="1290.36"/>
      <point x="141.737" y="1220.41"/>
      <point x="119.648" y="1146.78" type="qcurve"/>
      <point x="145.419" y="1161.51"/>
      <point x="165.667" y="1161.51" type="qcurve"/>
      <point x="200.641" y="1161.51"/>
      <point x="261.385" y="1084.2"/>
      <point x="261.385" y="1032.66" type="qcurve"/>
      <point x="261.385" y="1021.61" type="line"/>
      <point x="259.545" y="1017.93"/>
      <point x="259.545" y="1012.41" type="qcurve"/>
      <point x="495.16" y="1054.75" type="line"/>
      <point x="522.771" y="1054.75"/>
      <point x="557.745" y="1043.7"/>
      <point x="574.312" y="1014.25"/>
      <point x="579.834" y="966.39"/>
      <point x="579.834" y="927.734" type="qcurve"/>
      <point x="579.834" y="684.756" type="line"/>
      <point x="399.441" y="657.145"/>
      <point x="195.119" y="546.7"/>
      <point x="95.7186" y="403.123"/>
      <point x="73.6297" y="233.774"/>
      <point x="73.6297" y="145.419" type="qcurve"/>
      <point x="73.6297" y="60.7445"/>
      <point x="163.826" y="-23.9297"/>
      <point x="213.526" y="-23.9297" type="qcurve"/>
      <point x="257.704" y="-23.9297"/>
      <point x="344.219" y="0"/>
      <point x="412.326" y="44.1778"/>
      <point x="454.663" y="108.604"/>
      <point x="454.663" y="150.941" type="qcurve"/>
      <point x="425.211" y="121.489"/>
      <point x="390.237" y="121.489" type="qcurve"/>
      <point x="349.741" y="121.489"/>
      <point x="303.722" y="189.596"/>
      <point x="303.722" y="272.43" type="qcurve"/>
      <point x="318.448" y="434.415"/>
      <point x="452.823" y="636.897"/>
      <point x="579.834" y="644.26" type="qcurve"/>
      <point x="579.834" y="145.419" type="line"/>
      <point x="579.834" y="60.7445"/>
      <point x="670.03" y="-23.9297"/>
      <point x="719.73" y="-23.9297" type="qcurve"/>
      <point x="763.908" y="-23.9297"/>
      <point x="850.423" y="0"/>
      <point x="918.53" y="44.1778"/>
      <point x="960.868" y="108.604"/>
      <point x="960.868" y="150.941" type="qcurve"/>
      <point x="931.416" y="121.489"/>
      <point x="896.442" y="121.489" type="qcurve"/>
      <point x="855.945" y="121.489"/>
      <point x="809.927" y="189.596"/>
      <point x="809.927" y="272.43" type="qcurve"/>
      <point x="809.927" y="662.667" type="line"/>
      <point x="857.786" y="670.03"/>
      <point x="916.69" y="675.552"/>
      <point x="942.46" y="675.552" type="qcurve"/>
      <point x="990.319" y="675.552"/>
      <point x="1047.38" y="649.782"/>
      <point x="1076.83" y="592.719"/>
      <point x="1086.04" y="504.363"/>
      <point x="1086.04" y="443.619" type="qcurve"/>
      <point x="1086.04" y="145.419" type="line"/>
      <point x="1086.04" y="60.7445"/>
      <point x="1176.23" y="-23.9297"/>
      <point x="1225.93" y="-23.9297" type="qcurve"/>
      <point x="1270.11" y="-23.9297"/>
      <point x="1356.63" y="0"/>
      <point x="1424.73" y="44.1778"/>
      <point x="1467.07" y="108.604"/>
    </contour>
  </outline>
</glyph>
<glyph name="uni1216" format="2">
  <advance width="805"/>
  <unicode hex="1216"/>
  <outline>
    <contour>
      <point x="797" y="174" type="qcurve"/>
      <point x="781" y="158"/>
      <point x="762" y="158" type="qcurve"/>
      <point x="740" y="158"/>
      <point x="715" y="195"/>
      <point x="715" y="240" type="qcurve"/>
      <point x="715" y="263" type="line"/>
      <point x="715" y="308"/>
      <point x="698" y="365"/>
      <point x="662" y="399"/>
      <point x="606" y="412"/>
      <point x="567" y="412" type="qcurve"/>
      <point x="555" y="412"/>
      <point x="519" y="412" type="qcurve"/>
      <point x="483" y="412"/>
      <point x="440" y="404" type="qcurve"/>
      <point x="440" y="612" type="line"/>
      <point x="440" y="640"/>
      <point x="436" y="674"/>
      <point x="426" y="694"/>
      <point x="406" y="701"/>
      <point x="390" y="701" type="qcurve"/>
      <point x="265" y="655" type="line"/>
      <point x="282" y="653"/>
      <point x="302" y="645"/>
      <point x="312" y="630"/>
      <point x="315" y="605"/>
      <point x="315" y="586" type="qcurve"/>
      <point x="315" y="397" type="line"/>
      <point x="220" y="383"/>
      <point x="110" y="322"/>
      <point x="54" y="238"/>
      <point x="40" y="135"/>
      <point x="40" y="79" type="qcurve"/>
      <point x="40" y="33"/>
      <point x="89" y="-13"/>
      <point x="116" y="-13" type="qcurve"/>
      <point x="140" y="-13"/>
      <point x="187" y="0"/>
      <point x="224" y="24"/>
      <point x="247" y="59"/>
      <point x="247" y="82" type="qcurve"/>
      <point x="231" y="66"/>
      <point x="212" y="66" type="qcurve"/>
      <point x="190" y="66"/>
      <point x="165" y="103"/>
      <point x="165" y="148" type="qcurve"/>
      <point x="165" y="197"/>
      <point x="186" y="279"/>
      <point x="225" y="340"/>
      <point x="280" y="375"/>
      <point x="315" y="377" type="qcurve"/>
      <point x="315" y="171" type="line"/>
      <point x="315" y="125"/>
      <point x="364" y="79"/>
      <point x="391" y="79" type="qcurve"/>
      <point x="415" y="79"/>
      <point x="462" y="92"/>
      <point x="499" y="116"/>
      <point x="522" y="151"/>
      <point x="522" y="174" type="qcurve"/>
      <point x="506" y="158"/>
      <point x="487" y="158" type="qcurve"/>
      <point x="465" y="158"/>
      <point x="440" y="195"/>
      <point x="440" y="240" type="qcurve"/>
      <point x="440" y="385" type="line"/>
      <point x="461" y="389"/>
      <point x="496" y="391"/>
      <point x="513" y="392" type="qcurve"/>
      <point x="539" y="392"/>
      <point x="570" y="373"/>
      <point x="586" y="335"/>
      <point x="590" y="276"/>
      <point x="590" y="237" type="qcurve"/>
      <point x="590" y="171" type="line"/>
      <point x="590" y="125"/>
      <point x="639" y="79"/>
      <point x="666" y="79" type="qcurve"/>
      <point x="690" y="79"/>
      <point x="737" y="92"/>
      <point x="774" y="116"/>
      <point x="797" y="151"/>
    </contour>
  </outline>
</glyph>
<glyph name="uni1217" format="2">
  <advance width="949"/>
  <unicode hex="1217"/>
  <outline>
    <contour>
      <point x="938" y="28" type="qcurve"/>
      <point x="924" y="17"/>
      <point x="906" y="17" type="qcurve"/>
      <point x="867" y="17"/>
      <point x="867" y="72" type="qcurve"/>
      <point x="715" y="72" type="line"/>
      <point x="715" y="279" type="line"/>
      <point x="715" y="324"/>
      <point x="698" y="381"/>
      <point x="662" y="415"/>
      <point x="606" y="428"/>
      <point x="567" y="428" type="qcurve"/>
      <point x="534" y="428"/>
      <point x="440" y="419" type="qcurve"/>
      <point x="440" y="610" type="line"/>
      <point x="440" y="638"/>
      <point x="436" y="672"/>
      <point x="426" y="692"/>
      <point x="406" y="699"/>
      <point x="390" y="699" type="qcurve"/>
      <point x="265" y="653" type="line"/>
      <point x="282" y="651"/>
      <point x="302" y="643"/>
      <point x="312" y="628"/>
      <point x="315" y="603"/>
      <point x="315" y="584" type="qcurve"/>
      <point x="315" y="409" type="line"/>
      <point x="234" y="393"/>
      <point x="136" y="362"/>
      <point x="79" y="330"/>
      <point x="54" y="294"/>
      <point x="46" y="273" type="qcurve"/>
      <point x="42" y="264"/>
      <point x="40" y="207"/>
      <point x="40" y="170" type="qcurve"/>
      <point x="40" y="124"/>
      <point x="89" y="78"/>
      <point x="116" y="78" type="qcurve"/>
      <point x="140" y="78"/>
      <point x="187" y="91"/>
      <point x="224" y="115"/>
      <point x="247" y="150"/>
      <point x="247" y="173" type="qcurve"/>
      <point x="231" y="157"/>
      <point x="212" y="157" type="qcurve"/>
      <point x="190" y="157"/>
      <point x="165" y="218"/>
      <point x="165" y="263" type="qcurve"/>
      <point x="171" y="296"/>
      <point x="197" y="339"/>
      <point x="234" y="366"/>
      <point x="281" y="381"/>
      <point x="307" y="386" type="qcurve"/>
      <point x="315" y="388" type="line"/>
      <point x="315" y="199" type="line"/>
      <point x="315" y="153"/>
      <point x="364" y="107"/>
      <point x="391" y="107" type="qcurve"/>
      <point x="415" y="107"/>
      <point x="462" y="120"/>
      <point x="499" y="144"/>
      <point x="522" y="179"/>
      <point x="522" y="202" type="qcurve"/>
      <point x="506" y="186"/>
      <point x="487" y="186" type="qcurve"/>
      <point x="465" y="186"/>
      <point x="440" y="218"/>
      <point x="440" y="263" type="qcurve"/>
      <point x="440" y="397" type="line"/>
      <point x="463" y="401"/>
      <point x="497" y="402"/>
      <point x="513" y="403" type="qcurve"/>
      <point x="540" y="403"/>
      <point x="570" y="388"/>
      <point x="586" y="358"/>
      <point x="590" y="311"/>
      <point x="590" y="279" type="qcurve"/>
      <point x="590" y="72" type="line"/>
      <point x="452" y="72" type="line"/>
      <point x="452" y="17"/>
      <point x="413" y="17" type="qcurve"/>
      <point x="395" y="17"/>
      <point x="381" y="28" type="qcurve"/>
      <point x="387" y="2"/>
      <point x="410" y="-32"/>
      <point x="439" y="-52"/>
      <point x="471" y="-60"/>
      <point x="485" y="-60" type="qcurve"/>
      <point x="525" y="-60"/>
      <point x="570" y="-17"/>
      <point x="570" y="13" type="qcurve"/>
      <point x="570" y="14" type="line"/>
      <point x="570" y="22"/>
      <point x="567" y="39"/>
      <point x="565" y="49" type="qcurve"/>
      <point x="754" y="49" type="line"/>
      <point x="752" y="39"/>
      <point x="749" y="22"/>
      <point x="749" y="14" type="qcurve"/>
      <point x="749" y="13" type="line"/>
      <point x="749" y="-17"/>
      <point x="794" y="-60"/>
      <point x="834" y="-60" type="qcurve"/>
      <point x="848" y="-60"/>
      <point x="880" y="-52"/>
      <point x="909" y="-32"/>
      <point x="932" y="2"/>
    </contour>
  </outline>
</glyph>
<glyph name="uni1218" format="2">
  <advance width="988"/>
  <unicode hex="1218"/>
  <outline>
    <contour>
      <point x="944" y="227" type="qcurve"/>
      <point x="944" y="417" type="line"/>
      <point x="944" y="469"/>
      <point x="927" y="534"/>
      <point x="895" y="570"/>
      <point x="848" y="583"/>
      <point x="819" y="583" type="qcurve"/>
      <point x="802" y="583"/>
      <point x="762" y="573"/>
      <point x="723" y="554"/>
      <point x="691" y="528"/>
      <point x="683" y="512" type="qcurve"/>
      <point x="669" y="554"/>
      <point x="614" y="583"/>
      <point x="569" y="583" type="qcurve"/>
      <point x="552" y="583"/>
      <point x="512" y="573"/>
      <point x="476" y="558"/>
      <point x="450" y="539"/>
      <point x="447" y="530" type="qcurve"/>
      <point x="445" y="532" type="line"/>
      <point x="420" y="557"/>
      <point x="367" y="583"/>
      <point x="319" y="583" type="qcurve"/>
      <point x="296" y="583"/>
      <point x="252" y="570"/>
      <point x="217" y="550"/>
      <point x="195" y="526"/>
      <point x="194" y="515" type="qcurve"/>
      <point x="194" y="539"/>
      <point x="187" y="566"/>
      <point x="178" y="580"/>
      <point x="170" y="583"/>
      <point x="169" y="583" type="qcurve"/>
      <point x="40" y="548" type="line"/>
      <point x="59" y="541"/>
      <point x="69" y="515"/>
      <point x="69" y="488" type="qcurve"/>
      <point x="69" y="155" type="line"/>
      <point x="69" y="104"/>
      <point x="109" y="61"/>
      <point x="144" y="61" type="qcurve"/>
      <point x="160" y="61"/>
      <point x="196" y="77"/>
      <point x="208" y="92" type="qcurve"/>
      <point x="236" y="74"/>
      <point x="290" y="60"/>
      <point x="319" y="60" type="qcurve"/>
      <point x="340" y="60"/>
      <point x="384" y="70"/>
      <point x="420" y="89"/>
      <point x="444" y="116"/>
      <point x="444" y="133" type="qcurve"/>
      <point x="444" y="464" type="line"/>
      <point x="444" y="506"/>
      <point x="483" y="547"/>
      <point x="506" y="547" type="qcurve"/>
      <point x="520" y="547"/>
      <point x="543" y="543"/>
      <point x="560" y="522"/>
      <point x="569" y="480"/>
      <point x="569" y="441" type="qcurve"/>
      <point x="569" y="227" type="line"/>
      <point x="569" y="170"/>
      <point x="653" y="108"/>
      <point x="744" y="108" type="qcurve"/>
      <point x="852" y="108"/>
      <point x="944" y="170"/>
    </contour>
    <contour>
      <point x="819" y="226" type="line"/>
      <point x="819" y="176"/>
      <point x="791" y="130"/>
      <point x="744" y="127" type="qcurve"/>
      <point x="728" y="128"/>
      <point x="708" y="143"/>
      <point x="698" y="177"/>
      <point x="694" y="232"/>
      <point x="694" y="273" type="qcurve"/>
      <point x="694" y="464" type="line"/>
      <point x="695" y="506"/>
      <point x="732" y="547"/>
      <point x="756" y="547" type="qcurve"/>
      <point x="770" y="547"/>
      <point x="793" y="543"/>
      <point x="810" y="522"/>
      <point x="819" y="480"/>
      <point x="819" y="441" type="qcurve"/>
    </contour>
    <contour>
      <point x="319" y="202" type="line"/>
      <point x="319" y="144"/>
      <point x="287" y="99"/>
      <point x="265" y="99" type="qcurve"/>
      <point x="258" y="99"/>
      <point x="246" y="102"/>
      <point x="244" y="103" type="qcurve"/>
      <point x="242" y="103"/>
      <point x="226" y="106"/>
      <point x="208" y="121"/>
      <point x="194" y="151"/>
      <point x="194" y="178" type="qcurve"/>
      <point x="194" y="488" type="line"/>
      <point x="195" y="501"/>
      <point x="211" y="522"/>
      <point x="234" y="538"/>
      <point x="260" y="547"/>
      <point x="271" y="547" type="qcurve"/>
      <point x="291" y="547"/>
      <point x="319" y="507"/>
      <point x="319" y="464" type="qcurve"/>
    </contour>
  </outline>
</glyph>
<glyph name="uni1219" format="2">
  <advance width="1223"/>
  <unicode hex="1219"/>
  <outline>
    <contour>
      <point x="1213" y="429" type="qcurve"/>
      <point x="1199" y="411"/>
      <point x="1179" y="409" type="qcurve"/>
      <point x="1169" y="409"/>
      <point x="1148" y="420"/>
      <point x="1131" y="438"/>
      <point x="1119" y="459"/>
      <point x="1118" y="469" type="qcurve"/>
      <point x="944" y="417" type="line"/>
      <point x="944" y="469"/>
      <point x="927" y="534"/>
      <point x="895" y="570"/>
      <point x="848" y="583"/>
      <point x="819" y="583" type="qcurve"/>
      <point x="802" y="583"/>
      <point x="762" y="573"/>
      <point x="723" y="554"/>
      <point x="691" y="528"/>
      <point x="683" y="512" type="qcurve"/>
      <point x="669" y="554"/>
      <point x="614" y="583"/>
      <point x="569" y="583" type="qcurve"/>
      <point x="552" y="583"/>
      <point x="512" y="573"/>
      <point x="476" y="558"/>
      <point x="450" y="539"/>
      <point x="447" y="530" type="qcurve"/>
      <point x="445" y="532" type="line"/>
      <point x="420" y="557"/>
      <point x="367" y="583"/>
      <point x="319" y="583" type="qcurve"/>
      <point x="296" y="583"/>
      <point x="252" y="570"/>
      <point x="217" y="550"/>
      <point x="195" y="526"/>
      <point x="194" y="515" type="qcurve"/>
      <point x="194" y="539"/>
      <point x="187" y="566"/>
      <point x="178" y="580"/>
      <point x="170" y="583"/>
      <point x="169" y="583" type="qcurve"/>
      <point x="40" y="548" type="line"/>
      <point x="59" y="541"/>
      <point x="69" y="515"/>
      <point x="69" y="488" type="qcurve"/>
      <point x="69" y="155" type="line"/>
      <point x="69" y="104"/>
      <point x="109" y="61"/>
      <point x="144" y="61" type="qcurve"/>
      <point x="160" y="61"/>
      <point x="196" y="77"/>
      <point x="208" y="92" type="qcurve"/>
      <point x="236" y="74"/>
      <point x="290" y="60"/>
      <point x="319" y="60" type="qcurve"/>
      <point x="340" y="60"/>
      <point x="384" y="70"/>
      <point x="420" y="89"/>
      <point x="444" y="116"/>
      <point x="444" y="133" type="qcurve"/>
      <point x="444" y="464" type="line"/>
      <point x="444" y="506"/>
      <point x="483" y="547"/>
      <point x="506" y="547" type="qcurve"/>
      <point x="520" y="547"/>
      <point x="543" y="543"/>
      <point x="560" y="522"/>
      <point x="569" y="480"/>
      <point x="569" y="441" type="qcurve"/>
      <point x="569" y="274" type="line"/>
      <point x="569" y="185"/>
      <point x="650" y="108"/>
      <point x="744" y="108" type="qcurve"/>
      <point x="799" y="108"/>
      <point x="876" y="126"/>
      <point x="923" y="165"/>
      <point x="944" y="228"/>
      <point x="944" y="273" type="qcurve"/>
      <point x="944" y="393" type="line"/>
      <point x="1007" y="410" type="line"/>
      <point x="1010" y="355"/>
      <point x="1066" y="310"/>
      <point x="1114" y="310" type="qcurve"/>
      <point x="1130" y="311"/>
      <point x="1165" y="328"/>
      <point x="1194" y="359"/>
      <point x="1213" y="402"/>
    </contour>
    <contour>
      <point x="319" y="202" type="line"/>
      <point x="319" y="144"/>
      <point x="287" y="99"/>
      <point x="265" y="99" type="qcurve"/>
      <point x="258" y="99"/>
      <point x="246" y="102"/>
      <point x="244" y="103" type="qcurve"/>
      <point x="242" y="103"/>
      <point x="226" y="106"/>
      <point x="208" y="121"/>
      <point x="194" y="151"/>
      <point x="194" y="178" type="qcurve"/>
      <point x="194" y="488" type="line"/>
      <point x="195" y="501"/>
      <point x="211" y="522"/>
      <point x="234" y="538"/>
      <point x="260" y="547"/>
      <point x="271" y="547" type="qcurve"/>
      <point x="291" y="547"/>
      <point x="319" y="507"/>
      <point x="319" y="464" type="qcurve"/>
    </contour>
    <contour>
      <point x="819" y="226" type="line"/>
      <point x="819" y="176"/>
      <point x="791" y="130"/>
      <point x="744" y="127" type="qcurve"/>
      <point x="728" y="128"/>
      <point x="708" y="143"/>
      <point x="698" y="177"/>
      <point x="694" y="232"/>
      <point x="694" y="273" type="qcurve"/>
      <point x="694" y="464" type="line"/>
      <point x="694" y="506"/>
      <point x="733" y="547"/>
      <point x="756" y="547" type="qcurve"/>
      <point x="770" y="547"/>
      <point x="793" y="543"/>
      <point x="810" y="522"/>
      <point x="819" y="480"/>
      <point x="819" y="441" type="qcurve"/>
    </contour>
  </outline>
</glyph>
<glyph name="uni121A" format="2">
  <advance width="1217"/>
  <unicode hex="121A"/>
  <outline>
    <contour>
      <point x="1207" y="65" type="qcurve"/>
      <point x="1193" y="47"/>
      <point x="1173" y="45" type="qcurve"/>
      <point x="1163" y="45"/>
      <point x="1142" y="56"/>
      <point x="1126" y="76"/>
      <point x="1114" y="100"/>
      <point x="1113" y="114" type="qcurve"/>
      <point x="1098" y="117"/>
      <point x="1082" y="117" type="qcurve"/>
      <point x="1046" y="117"/>
      <point x="994" y="80"/>
      <point x="994" y="47" type="qcurve"/>
      <point x="959" y="36" type="line"/>
      <point x="955" y="35"/>
      <point x="949" y="34"/>
      <point x="946" y="34" type="qcurve"/>
      <point x="937" y="34"/>
      <point x="926" y="43"/>
      <point x="920" y="69"/>
      <point x="919" y="115"/>
      <point x="919" y="152" type="qcurve"/>
      <point x="919" y="537" type="line"/>
      <point x="919" y="589"/>
      <point x="902" y="653"/>
      <point x="870" y="688"/>
      <point x="823" y="700"/>
      <point x="794" y="700" type="qcurve"/>
      <point x="776" y="700"/>
      <point x="736" y="690"/>
      <point x="699" y="672"/>
      <point x="667" y="646"/>
      <point x="658" y="630" type="qcurve"/>
      <point x="645" y="669"/>
      <point x="596" y="700"/>
      <point x="569" y="700" type="qcurve"/>
      <point x="552" y="700"/>
      <point x="512" y="691"/>
      <point x="476" y="677"/>
      <point x="450" y="657"/>
      <point x="447" y="647" type="qcurve"/>
      <point x="444" y="650" type="line"/>
      <point x="432" y="662"/>
      <point x="407" y="681"/>
      <point x="379" y="694"/>
      <point x="343" y="700"/>
      <point x="319" y="700" type="qcurve"/>
      <point x="295" y="700"/>
      <point x="251" y="687"/>
      <point x="217" y="667"/>
      <point x="195" y="643"/>
      <point x="194" y="633" type="qcurve"/>
      <point x="194" y="657"/>
      <point x="187" y="684"/>
      <point x="178" y="697"/>
      <point x="170" y="700"/>
      <point x="169" y="700" type="qcurve"/>
      <point x="40" y="665" type="line"/>
      <point x="59" y="659"/>
      <point x="69" y="634"/>
      <point x="69" y="607" type="qcurve"/>
      <point x="69" y="397" type="line"/>
      <point x="69" y="348"/>
      <point x="109" y="305"/>
      <point x="144" y="305" type="qcurve"/>
      <point x="161" y="306"/>
      <point x="197" y="322"/>
      <point x="208" y="336" type="qcurve"/>
      <point x="236" y="318"/>
      <point x="290" y="304"/>
      <point x="319" y="304" type="qcurve"/>
      <point x="340" y="304"/>
      <point x="384" y="314"/>
      <point x="420" y="333"/>
      <point x="444" y="359"/>
      <point x="444" y="376" type="qcurve"/>
      <point x="444" y="584" type="line"/>
      <point x="444" y="622"/>
      <point x="479" y="664"/>
      <point x="494" y="664" type="qcurve"/>
      <point x="503" y="664"/>
      <point x="521" y="660"/>
      <point x="535" y="640"/>
      <point x="544" y="598"/>
      <point x="544" y="560" type="qcurve"/>
      <point x="544" y="476" type="line"/>
      <point x="544" y="406"/>
      <point x="601" y="331"/>
      <point x="664" y="331" type="qcurve"/>
      <point x="682" y="331"/>
      <point x="703" y="334" type="qcurve"/>
      <point x="794" y="351" type="line"/>
      <point x="794" y="81" type="line"/>
      <point x="794" y="-12"/>
      <point x="869" y="-12" type="qcurve"/>
      <point x="994" y="24" type="line"/>
      <point x="1000" y="3"/>
      <point x="1018" y="-22"/>
      <point x="1045" y="-36"/>
      <point x="1083" y="-41"/>
      <point x="1109" y="-41" type="qcurve"/>
      <point x="1126" y="-40"/>
      <point x="1161" y="-24"/>
      <point x="1189" y="4"/>
      <point x="1207" y="42"/>
    </contour>
    <contour>
      <point x="794" y="443" type="line"/>
      <point x="794" y="401"/>
      <point x="765" y="362"/>
      <point x="719" y="359" type="qcurve"/>
      <point x="689" y="361"/>
      <point x="669" y="419"/>
      <point x="669" y="490" type="qcurve"/>
      <point x="669" y="584" type="line"/>
      <point x="670" y="626"/>
      <point x="707" y="664"/>
      <point x="731" y="664" type="qcurve"/>
      <point x="745" y="664"/>
      <point x="768" y="660"/>
      <point x="785" y="640"/>
      <point x="794" y="598"/>
      <point x="794" y="560" type="qcurve"/>
    </contour>
    <contour>
      <point x="319" y="443" type="line" smooth="yes"/>
      <point x="319" y="387"/>
      <point x="287" y="342"/>
      <point x="265" y="342" type="qcurve"/>
      <point x="257" y="342"/>
      <point x="246" y="346"/>
      <point x="244" y="347" type="qcurve"/>
      <point x="242" y="347"/>
      <point x="226" y="350"/>
      <point x="208" y="365"/>
      <point x="194" y="395"/>
      <point x="194" y="421" type="qcurve"/>
      <point x="194" y="607" type="line"/>
      <point x="195" y="619"/>
      <point x="212" y="640"/>
      <point x="235" y="655"/>
      <point x="260" y="664"/>
      <point x="271" y="664" type="qcurve"/>
      <point x="291" y="664"/>
      <point x="319" y="626"/>
      <point x="319" y="584" type="qcurve"/>
    </contour>
  </outline>
</glyph>
